<svg width="72" height="72" viewBox="0 0 72 72" fill="none" xmlns="http://www.w3.org/2000/svg">
<path d="M40.2187 36C40.2187 33.5939 38.3262 31.6364 36 31.6364C33.6738 31.6364 31.7812 33.5939 31.7812 36C31.7812 38.4061 33.6738 40.3636 36 40.3636C38.3262 40.3636 40.2187 38.4061 40.2187 36ZM36 38.1818C34.8369 38.1818 33.8906 37.2031 33.8906 36C33.8906 34.7969 34.8369 33.8182 36 33.8182C37.1631 33.8182 38.1094 34.7969 38.1094 36C38.1094 37.2031 37.1631 38.1818 36 38.1818Z" fill="url(#paint0_linear)"/>
<path d="M16.3828 60H31.2539C31.8363 60 32.3086 59.5116 32.3086 58.9091C32.3086 58.3066 31.8363 57.8182 31.2539 57.8182H16.3828C13.8362 57.8182 11.7053 55.9412 11.2154 53.4535H60.7846C60.2947 55.9412 58.1638 57.8182 55.6172 57.8182H40.7461C40.1637 57.8182 39.6914 58.3066 39.6914 58.9091C39.6914 59.5116 40.1637 60 40.7461 60H55.6172C59.6881 60 63 56.5743 63 52.3636C63 51.7611 62.5277 51.2727 61.9453 51.2727H58.2539V22.9091C58.2539 22.3066 57.7816 21.8182 57.1992 21.8182H49.7109V13.0909C49.7109 12.6886 49.4968 12.3189 49.154 12.1291C48.811 11.9392 48.3947 11.9601 48.0712 12.1833L40.2187 17.598V13.0909C40.2187 12.4884 39.7465 12 39.1641 12H23.3437C22.7614 12 22.2891 12.4884 22.2891 13.0909V21.8182H14.8008C14.2184 21.8182 13.7461 22.3066 13.7461 22.9091V51.2727H10.0547C9.47229 51.2727 9 51.7611 9 52.3636C9 56.5743 12.3119 60 16.3828 60ZM41.2734 51.2727H30.7266V48C30.7266 44.9924 33.0922 42.5455 36 42.5455C38.9078 42.5455 41.2734 44.9924 41.2734 48V51.2727ZM47.6016 15.1293V24.1435L41.0653 19.6364L47.6016 15.1293ZM24.3984 14.1818H38.1094V25.0909H24.3984V14.1818ZM15.8555 24H22.2891V26.1818C22.2891 26.7843 22.7614 27.2727 23.3437 27.2727H39.1641C39.7465 27.2727 40.2187 26.7843 40.2187 26.1818V21.6747L48.0712 27.0895C48.3953 27.313 48.8115 27.3332 49.154 27.1437C49.4968 26.9539 49.7109 26.5841 49.7109 26.1818V24H56.1445V51.2727H43.3828V48C43.3828 43.7893 40.0709 40.3636 36 40.3636C31.9291 40.3636 28.6172 43.7893 28.6172 48V51.2727H15.8555V24Z" fill="url(#paint1_linear)"/>
<path d="M36 60C36.5825 60 37.0547 59.5116 37.0547 58.9091C37.0547 58.3066 36.5825 57.8182 36 57.8182C35.4175 57.8182 34.9453 58.3066 34.9453 58.9091C34.9453 59.5116 35.4175 60 36 60Z" fill="url(#paint2_linear)"/>
<defs>
<linearGradient id="paint0_linear" x1="63.1277" y1="62.7561" x2="28.9449" y2="20.7516" gradientUnits="userSpaceOnUse">
<stop stop-color="#62214B"/>
<stop offset="0.399987" stop-color="#E6655E"/>
<stop offset="1" stop-color="#FFAB59"/>
</linearGradient>
<linearGradient id="paint1_linear" x1="63.1277" y1="62.7561" x2="28.9449" y2="20.7516" gradientUnits="userSpaceOnUse">
<stop stop-color="#62214B"/>
<stop offset="0.399987" stop-color="#E6655E"/>
<stop offset="1" stop-color="#FFAB59"/>
</linearGradient>
<linearGradient id="paint2_linear" x1="63.1277" y1="62.7561" x2="28.9449" y2="20.7516" gradientUnits="userSpaceOnUse">
<stop stop-color="#62214B"/>
<stop offset="0.399987" stop-color="#E6655E"/>
<stop offset="1" stop-color="#FFAB59"/>
</linearGradient>
</defs>
</svg>
