<svg width="72" height="72" viewBox="0 0 72 72" fill="none" xmlns="http://www.w3.org/2000/svg">
<path d="M11.4035 23.7936H20.3638C20.833 23.7936 21.2134 23.4099 21.2134 22.9363C21.2134 22.4628 20.833 22.079 20.3638 22.079H11.4035C10.9343 22.079 10.5539 22.4628 10.5539 22.9363C10.5539 23.4099 10.9341 23.7936 11.4035 23.7936Z" fill="url(#paint0_linear)"/>
<path d="M20.0566 27.9207H16.517C16.0478 27.9207 15.6674 28.3045 15.6674 28.778C15.6674 29.2516 16.0478 29.6353 16.517 29.6353H20.0566C20.5258 29.6353 20.9062 29.2516 20.9062 28.778C20.9062 28.3045 20.5258 27.9207 20.0566 27.9207Z" fill="url(#paint1_linear)"/>
<path d="M7.84961 33.8656H16.517C16.9862 33.8656 17.3666 33.4819 17.3666 33.0083C17.3666 32.5348 16.9862 32.151 16.517 32.151H7.84961C7.3804 32.151 7 32.5348 7 33.0083C7 33.4819 7.3804 33.8656 7.84961 33.8656Z" fill="url(#paint2_linear)"/>
<path d="M21.2134 49.0635C21.2134 48.59 20.833 48.2063 20.3638 48.2063H11.4035C10.9343 48.2063 10.5539 48.59 10.5539 49.0635C10.5539 49.5371 10.9343 49.9208 11.4035 49.9208H20.3638C20.833 49.9208 21.2134 49.5371 21.2134 49.0635Z" fill="url(#paint3_linear)"/>
<path d="M20.0566 42.3647H16.517C16.0478 42.3647 15.6674 42.7484 15.6674 43.222C15.6674 43.6956 16.0478 44.0793 16.517 44.0793H20.0566C20.5258 44.0793 20.9062 43.6956 20.9062 43.222C20.9062 42.7484 20.5258 42.3647 20.0566 42.3647Z" fill="url(#paint4_linear)"/>
<path d="M17.3666 38.9917C17.3666 38.5181 16.9862 38.1344 16.517 38.1344H7.84961C7.3804 38.1344 7 38.5181 7 38.9917C7 39.4652 7.3804 39.849 7.84961 39.849H16.517C16.9862 39.849 17.3666 39.4652 17.3666 38.9917Z" fill="url(#paint5_linear)"/>
<path d="M43.1966 25.6933C43.666 25.6933 44.0462 25.3096 44.0462 24.8361V23.5275C44.0462 23.054 43.666 22.6703 43.1966 22.6703C42.7273 22.6703 42.347 23.054 42.347 23.5275V24.8361C42.347 25.3096 42.7273 25.6933 43.1966 25.6933Z" fill="url(#paint6_linear)"/>
<path d="M52.5379 26.5743C52.206 26.2396 51.6681 26.2396 51.3363 26.5743L50.4193 27.4996C50.0875 27.8345 50.0875 28.3772 50.4193 28.712C50.7514 29.0468 51.2891 29.0467 51.6209 28.712L52.5379 27.7867C52.8696 27.4519 52.8696 26.9092 52.5379 26.5743Z" fill="url(#paint7_linear)"/>
<path d="M54.2608 35.1428C53.7915 35.1428 53.4112 35.5265 53.4112 36C53.4112 36.4736 53.7915 36.8573 54.2608 36.8573H55.5576C56.0269 36.8573 56.4072 36.4736 56.4072 36C56.4072 35.5265 56.0269 35.1428 55.5576 35.1428H54.2608Z" fill="url(#paint8_linear)"/>
<path d="M51.6209 43.2878C51.289 42.9531 50.7511 42.9531 50.4193 43.2878C50.0875 43.6227 50.0875 44.1654 50.4193 44.5002L51.3363 45.4255C51.6684 45.7603 52.2061 45.7602 52.5379 45.4255C52.8697 45.0906 52.8697 44.5479 52.5379 44.2131L51.6209 43.2878Z" fill="url(#paint9_linear)"/>
<path d="M42.347 47.164V48.4724C42.347 48.946 42.7273 49.3297 43.1966 49.3297C43.666 49.3297 44.0462 48.946 44.0462 48.4724V47.164C44.0462 46.6904 43.666 46.3067 43.1966 46.3067C42.7273 46.3067 42.347 46.6905 42.347 47.164Z" fill="url(#paint10_linear)"/>
<path d="M34.7723 43.2878L33.8552 44.2131C33.5234 44.548 33.5234 45.0907 33.8552 45.4255C34.1872 45.7603 34.725 45.7602 35.0567 45.4255L35.9737 44.5002C36.3055 44.1653 36.3055 43.6226 35.9737 43.2878C35.642 42.9531 35.1041 42.9531 34.7723 43.2878Z" fill="url(#paint11_linear)"/>
<path d="M30.8356 35.1428C30.3664 35.1428 29.986 35.5265 29.986 36C29.986 36.4736 30.3664 36.8573 30.8356 36.8573H32.1325C32.6017 36.8573 32.9821 36.4736 32.9821 36C32.9821 35.5265 32.6017 35.1428 32.1325 35.1428H30.8356Z" fill="url(#paint12_linear)"/>
<path d="M35.9738 27.4996L35.0568 26.5743C34.725 26.2396 34.187 26.2396 33.8554 26.5743C33.5236 26.9092 33.5236 27.4519 33.8554 27.7867L34.7724 28.712C35.1043 29.0468 35.6421 29.0467 35.9738 28.712C36.3056 28.3772 36.3056 27.8345 35.9738 27.4996Z" fill="url(#paint13_linear)"/>
<path d="M47.7653 36C47.7653 35.5264 47.385 35.1427 46.9157 35.1427H44.0462V28.7779C44.0462 28.3043 43.666 27.9206 43.1966 27.9206C42.7273 27.9206 42.347 28.3043 42.347 28.7779V36C42.347 36.4735 42.7273 36.8573 43.1966 36.8573H46.9157C47.3849 36.8573 47.7653 36.4735 47.7653 36Z" fill="url(#paint14_linear)"/>
<path d="M59.3066 35.8585C59.775 35.8298 60.1316 35.4235 60.1032 34.9509C59.5627 25.955 52.1365 18.9081 43.1965 18.9081C33.8563 18.9081 26.2574 26.5755 26.2574 36.0001C26.2574 45.4246 33.8563 53.0921 43.1965 53.0921C51.5645 53.0921 58.7047 46.9058 59.9469 38.5577C60.0165 38.0895 59.6968 37.6529 59.2327 37.5826C58.7699 37.5126 58.3361 37.8348 58.2664 38.3032C57.1506 45.8031 50.7326 51.3776 43.1965 51.3776C34.7932 51.3776 27.9566 44.4793 27.9566 36.0002C27.9566 27.5211 34.7932 20.6227 43.1965 20.6227C51.2396 20.6227 57.9208 26.9621 58.407 35.0549C58.4353 35.5272 58.8377 35.8859 59.3066 35.8585Z" fill="url(#paint15_linear)"/>
<path d="M43.1965 14C40.2081 14 37.2801 14.6256 34.5851 15.7955H19.5947C19.1255 15.7955 18.7451 16.1792 18.7451 16.6527C18.7451 17.1263 19.1255 17.51 19.5947 17.51H31.3888C29.7941 18.5456 28.3261 19.7947 27.0317 21.2367C26.7168 21.5875 26.7433 22.1297 27.0911 22.4476C27.439 22.7654 27.9761 22.7386 28.2912 22.3877C32.0977 18.1468 37.5305 15.7145 43.1965 15.7145C54.282 15.7145 63.3008 24.8145 63.3008 36C63.3008 47.1853 54.2821 56.2855 43.1965 56.2855C32.1111 56.2855 23.0924 47.1855 23.0924 36C23.0924 32.0831 24.2013 28.2814 26.299 25.0057C26.5537 24.608 26.4406 24.0774 26.0465 23.8205C25.6524 23.5636 25.1266 23.6775 24.8718 24.0752C22.596 27.6287 21.3932 31.7522 21.3932 36C21.3932 43.7459 25.3814 50.5688 31.3942 54.49H19.5948C19.1256 54.49 18.7452 54.8737 18.7452 55.3473C18.7452 55.8208 19.1256 56.2045 19.5948 56.2045H34.5735C37.2197 57.3589 40.1352 58 43.1966 58C55.219 58 65 48.1309 65 36C65 23.8691 55.219 14 43.1965 14Z" fill="url(#paint16_linear)"/>
<defs>
<linearGradient id="paint0_linear" x1="65.1372" y1="60.5265" x2="35.1499" y2="17.3498" gradientUnits="userSpaceOnUse">
<stop stop-color="#62214B"/>
<stop offset="0.399987" stop-color="#E6655E"/>
<stop offset="1" stop-color="#FFAB59"/>
</linearGradient>
<linearGradient id="paint1_linear" x1="65.1372" y1="60.5265" x2="35.1499" y2="17.3498" gradientUnits="userSpaceOnUse">
<stop stop-color="#62214B"/>
<stop offset="0.399987" stop-color="#E6655E"/>
<stop offset="1" stop-color="#FFAB59"/>
</linearGradient>
<linearGradient id="paint2_linear" x1="65.1372" y1="60.5265" x2="35.1499" y2="17.3498" gradientUnits="userSpaceOnUse">
<stop stop-color="#62214B"/>
<stop offset="0.399987" stop-color="#E6655E"/>
<stop offset="1" stop-color="#FFAB59"/>
</linearGradient>
<linearGradient id="paint3_linear" x1="65.1372" y1="60.5265" x2="35.1499" y2="17.3498" gradientUnits="userSpaceOnUse">
<stop stop-color="#62214B"/>
<stop offset="0.399987" stop-color="#E6655E"/>
<stop offset="1" stop-color="#FFAB59"/>
</linearGradient>
<linearGradient id="paint4_linear" x1="65.1372" y1="60.5265" x2="35.1499" y2="17.3498" gradientUnits="userSpaceOnUse">
<stop stop-color="#62214B"/>
<stop offset="0.399987" stop-color="#E6655E"/>
<stop offset="1" stop-color="#FFAB59"/>
</linearGradient>
<linearGradient id="paint5_linear" x1="65.1372" y1="60.5265" x2="35.1499" y2="17.3498" gradientUnits="userSpaceOnUse">
<stop stop-color="#62214B"/>
<stop offset="0.399987" stop-color="#E6655E"/>
<stop offset="1" stop-color="#FFAB59"/>
</linearGradient>
<linearGradient id="paint6_linear" x1="65.1372" y1="60.5265" x2="35.1499" y2="17.3498" gradientUnits="userSpaceOnUse">
<stop stop-color="#62214B"/>
<stop offset="0.399987" stop-color="#E6655E"/>
<stop offset="1" stop-color="#FFAB59"/>
</linearGradient>
<linearGradient id="paint7_linear" x1="65.1372" y1="60.5265" x2="35.1499" y2="17.3498" gradientUnits="userSpaceOnUse">
<stop stop-color="#62214B"/>
<stop offset="0.399987" stop-color="#E6655E"/>
<stop offset="1" stop-color="#FFAB59"/>
</linearGradient>
<linearGradient id="paint8_linear" x1="65.1372" y1="60.5265" x2="35.1499" y2="17.3498" gradientUnits="userSpaceOnUse">
<stop stop-color="#62214B"/>
<stop offset="0.399987" stop-color="#E6655E"/>
<stop offset="1" stop-color="#FFAB59"/>
</linearGradient>
<linearGradient id="paint9_linear" x1="65.1372" y1="60.5265" x2="35.1499" y2="17.3498" gradientUnits="userSpaceOnUse">
<stop stop-color="#62214B"/>
<stop offset="0.399987" stop-color="#E6655E"/>
<stop offset="1" stop-color="#FFAB59"/>
</linearGradient>
<linearGradient id="paint10_linear" x1="65.1372" y1="60.5265" x2="35.1499" y2="17.3498" gradientUnits="userSpaceOnUse">
<stop stop-color="#62214B"/>
<stop offset="0.399987" stop-color="#E6655E"/>
<stop offset="1" stop-color="#FFAB59"/>
</linearGradient>
<linearGradient id="paint11_linear" x1="65.1372" y1="60.5265" x2="35.1499" y2="17.3498" gradientUnits="userSpaceOnUse">
<stop stop-color="#62214B"/>
<stop offset="0.399987" stop-color="#E6655E"/>
<stop offset="1" stop-color="#FFAB59"/>
</linearGradient>
<linearGradient id="paint12_linear" x1="65.1372" y1="60.5265" x2="35.1499" y2="17.3498" gradientUnits="userSpaceOnUse">
<stop stop-color="#62214B"/>
<stop offset="0.399987" stop-color="#E6655E"/>
<stop offset="1" stop-color="#FFAB59"/>
</linearGradient>
<linearGradient id="paint13_linear" x1="65.1372" y1="60.5265" x2="35.1499" y2="17.3498" gradientUnits="userSpaceOnUse">
<stop stop-color="#62214B"/>
<stop offset="0.399987" stop-color="#E6655E"/>
<stop offset="1" stop-color="#FFAB59"/>
</linearGradient>
<linearGradient id="paint14_linear" x1="65.1372" y1="60.5265" x2="35.1499" y2="17.3498" gradientUnits="userSpaceOnUse">
<stop stop-color="#62214B"/>
<stop offset="0.399987" stop-color="#E6655E"/>
<stop offset="1" stop-color="#FFAB59"/>
</linearGradient>
<linearGradient id="paint15_linear" x1="65.1372" y1="60.5265" x2="35.1499" y2="17.3498" gradientUnits="userSpaceOnUse">
<stop stop-color="#62214B"/>
<stop offset="0.399987" stop-color="#E6655E"/>
<stop offset="1" stop-color="#FFAB59"/>
</linearGradient>
<linearGradient id="paint16_linear" x1="65.1372" y1="60.5265" x2="35.1499" y2="17.3498" gradientUnits="userSpaceOnUse">
<stop stop-color="#62214B"/>
<stop offset="0.399987" stop-color="#E6655E"/>
<stop offset="1" stop-color="#FFAB59"/>
</linearGradient>
</defs>
</svg>
