<svg xmlns="http://www.w3.org/2000/svg" viewBox="0 0 399 69.78"><defs><style>.cls-1{fill:#183665;}.cls-2{fill:#ffcc32;}.cls-3{fill:#d23339;}</style></defs><g id="Layer_2" data-name="Layer 2"><g id="Layer_1-2" data-name="Layer 1"><path class="cls-1" d="M83.78,68.83V0H94.62V68.83Z"/><path class="cls-1" d="M108.73,42.67c0-17.55,10-26.41,29.59-26.41,20.91,0,27.62,10,27.62,26.24,0,1.89-.17,4.3-.17,4.3H120c.69,9.9,7.57,14.2,20.22,14.2,8.69,0,18.07-1.46,23.74-3.7v8.43c-3.18,1.55-13,4-23.92,4C119.39,69.78,108.73,60.91,108.73,42.67Zm11.18-3.61H155.1c-.17-8.69-4.73-13.94-16.95-13.94C127.83,25.12,120.77,28.22,119.91,39.06Z"/><path class="cls-1" d="M235.71,68.83H224.87V36.13c0-7.74-4.47-10.49-13.42-10.49a44.67,44.67,0,0,0-20.91,5v38.2H179.79V17.2H190v5.68a48.76,48.76,0,0,1,24.35-6.62c14.37,0,21.33,5.5,21.33,17.12Z"/><path class="cls-1" d="M268.49,17.2h21.25V25H268.49V51.28c0,7,3.27,9.46,10.24,9.46a64.62,64.62,0,0,0,9.72-.86v8.69a65.37,65.37,0,0,1-12.3,1.21c-14.63,0-18.42-7.49-18.42-17.39V25H246.46V17.2h11.27V6.71h10.76Z"/><path class="cls-1" d="M336.8,25.81c-11.36,0-18.16,2.58-23.23,5.16V68.83H302.81V17.2h10.24v5.25c5.77-3.52,13-6.19,23.75-6.19Z"/><path class="cls-1" d="M399,34.5V68.83H388.76V62.38c-4.9,3.52-15.22,7.4-24.43,7.4-10.41,0-21.42-3.53-21.42-16.7s11.18-15.91,25.55-15.91a80.33,80.33,0,0,1,19.79,2.49V35c0-6.72-4.56-9.73-18.16-9.73a68.82,68.82,0,0,0-23,4.22V20.22c5.51-2.24,15-4,24.52-4C391.09,16.26,399,22,399,34.5ZM353.83,53.17c0,5.59,4.65,8.43,13.42,8.43,7.32,0,16.09-2.67,20.83-6.54V45.94a107.24,107.24,0,0,0-18.33-1.63C358.74,44.31,353.83,46.29,353.83,53.17Z"/><path class="cls-2" d="M39.13,33.2,53.72,58.48c2.52,4.36,2,7.69,1.52,9.25,8.88-8.94,2.83-18.35,2.57-18.75L47.36,30.89A16.91,16.91,0,0,1,45,23.07Z"/><path class="cls-1" d="M55.12.67c-8.83,0-12.65,7.42-12.84,7.8L31.84,26.55a17,17,0,0,1-5.58,6H38L52.55,7.25C55.07,2.9,58.2,1.66,59.8,1.31A18.14,18.14,0,0,0,55.12.67Z"/><path class="cls-3" d="M36.13,42.16A16.88,16.88,0,0,1,43.81,44L38,33.88H8.77c-5,0-7.67-2.1-8.77-3.31,1.37,5,4.23,8.51,8.52,10.34A15.75,15.75,0,0,0,15,42.17H36.13Z"/></g></g></svg>