<svg width="72" height="72" viewBox="0 0 72 72" fill="none" xmlns="http://www.w3.org/2000/svg">
<path fill-rule="evenodd" clip-rule="evenodd" d="M45.0299 37.2947C47.5584 37.2947 50.0302 36.5236 52.1326 35.0789C54.2349 33.6343 55.8736 31.581 56.8412 29.1786C57.8088 26.7762 58.062 24.1328 57.5687 21.5824C57.0754 19.0321 55.8578 16.6895 54.0699 14.8508C52.2819 13.0121 50.004 11.7599 47.524 11.2526C45.0441 10.7453 42.4736 11.0057 40.1375 12.0008C37.8015 12.9959 35.8048 14.681 34.4001 16.8431C32.9953 19.0051 32.2455 21.547 32.2455 24.1473C32.2494 27.633 33.5976 30.9747 35.9943 33.4395C38.391 35.9042 41.6405 37.2906 45.0299 37.2947ZM45.0299 12.7742C47.2172 12.7742 49.3554 13.4412 51.1741 14.6909C52.9927 15.9406 54.4102 17.7169 55.2473 19.795C56.0843 21.8732 56.3033 24.16 55.8766 26.3661C55.4499 28.5723 54.3966 30.5988 52.8499 32.1894C51.3033 33.7799 49.3327 34.8631 47.1875 35.3019C45.0422 35.7408 42.8186 35.5155 40.7978 34.6547C38.7769 33.7939 37.0497 32.3362 35.8345 30.4659C34.6193 28.5956 33.9707 26.3967 33.9707 24.1473C33.9741 21.1321 35.1404 18.2413 37.2136 16.1092C39.2869 13.9771 42.0979 12.7777 45.0299 12.7742ZM61.88 41.1736C61.7591 40.8653 61.5512 40.6013 61.283 40.4157C61.0149 40.2302 60.6988 40.1315 60.3756 40.1324H59.5376C58.1189 40.1335 56.724 40.5074 55.4853 41.2187L49.3657 44.7377H47.6203C47.4169 43.5951 46.8307 42.5619 45.9635 41.8177C45.0963 41.0735 44.0029 40.6653 42.8734 40.6641H31.8512C31.7256 40.6642 31.6016 40.6924 31.4877 40.7468C31.3738 40.8011 31.2728 40.8803 31.1917 40.9789L27.8521 45.0494C27.772 44.9521 27.6723 44.8738 27.5599 44.82C27.4474 44.7662 27.325 44.7381 27.201 44.7377H10.8626C10.6338 44.7377 10.4144 44.8312 10.2527 44.9975C10.0909 45.1639 10 45.3895 10 45.6248C10 45.8601 10.0909 46.0857 10.2527 46.2521C10.4144 46.4184 10.6338 46.5119 10.8626 46.5119H21.4013V59.2258H10.8626C10.6338 59.2258 10.4144 59.3193 10.2527 59.4856C10.0909 59.652 10 59.8776 10 60.1129C10 60.3482 10.0909 60.5738 10.2527 60.7402C10.4144 60.9065 10.6338 61 10.8626 61H27.201C27.4298 61 27.6492 60.9065 27.8109 60.7402C27.9727 60.5738 28.0636 60.3482 28.0636 60.1129V55.8589L45.655 55.0286C45.6722 55.0286 45.689 55.0285 45.7043 55.0245C48.4708 54.7211 51.0583 53.4715 53.0523 51.4761L61.5093 42.9959C61.7407 42.7648 61.8997 42.4678 61.9657 42.1431C62.0318 41.8183 62.0019 41.4807 61.88 41.1736ZM26.3403 59.2258H23.1265V46.5119H26.3403V59.2258ZM51.8495 50.2083C50.1394 51.9189 47.9221 52.9922 45.5505 53.2574L28.0656 54.0832V47.544L32.2554 42.4388H42.8734C43.5803 42.4404 44.2654 42.6899 44.8157 43.1462C45.366 43.6024 45.7485 44.238 45.9 44.9481L37.159 47.1547C36.9546 47.2065 36.7757 47.3335 36.656 47.5117C36.5363 47.6899 36.4841 47.9069 36.5093 48.1219C36.5344 48.3369 36.6352 48.535 36.7925 48.6789C36.9499 48.8227 37.153 48.9025 37.3635 48.903C37.4332 48.9031 37.5025 48.8944 37.5701 48.8771L46.9385 46.5119H49.5905C49.7378 46.512 49.8828 46.4732 50.0114 46.3994L56.3277 42.7673C57.3089 42.2032 58.414 41.9065 59.5381 41.9056H60.1296L51.8495 50.2083ZM47.2363 19.0241H49.2746L49.6719 17.6159H41.6826L41.2767 19.0241H43.7037C45.1202 19.0717 45.9666 19.6599 46.243 20.7889H41.6567L41.2594 22.1971H46.2603C46.1394 22.7437 45.8544 23.1775 45.4052 23.4984C44.9561 23.8133 44.3717 23.9737 43.6519 23.9797H41.5013L41.5099 25.0937L46.0876 30.5929H48.0482V30.486L43.7901 25.3879C45.0511 25.3879 46.0357 25.1205 46.744 24.5857C47.4522 24.051 47.8582 23.2547 47.9618 22.1971H49.2746L49.6719 20.7889H47.9359C47.838 20.0937 47.6048 19.5054 47.2363 19.0241Z" fill="url(#paint0_linear)"/>
<defs>
<linearGradient id="paint0_linear" x1="61.9239" y1="61" x2="10.4455" y2="28.7338" gradientUnits="userSpaceOnUse">
<stop stop-color="#62214B"/>
<stop offset="0.450757" stop-color="#E6655E"/>
<stop offset="1" stop-color="#FFAB59"/>
</linearGradient>
</defs>
</svg>
