<svg width="72" height="72" viewBox="0 0 72 72" fill="none" xmlns="http://www.w3.org/2000/svg">
<path fill-rule="evenodd" clip-rule="evenodd" d="M23.8475 5H60.0672C62.14 5 63.8262 6.68639 63.8262 8.75913V56.6199C63.8262 56.9711 63.6868 57.3079 63.4385 57.5562L54.3823 66.6125C54.1339 66.8608 53.7972 67.0003 53.446 67.0003H23.8475C21.7747 67.0003 20.0884 65.3139 20.0884 63.2411V48.7676C13.2174 46.8013 8.17383 40.4634 8.17383 32.9695C8.17383 25.4756 13.2175 19.1377 20.0884 17.1714V8.75913C20.0884 6.68639 21.7747 5 23.8475 5ZM60.0672 7.64798H23.8475C23.2348 7.64798 22.7363 8.14643 22.7363 8.75913V12.7549H61.1782V8.75913C61.1782 8.14643 60.6798 7.64798 60.0672 7.64798ZM24.6027 19.1885C17.0038 19.1885 10.8218 25.3706 10.8218 32.9694C10.8218 40.5682 17.0038 46.7504 24.6027 46.7504C32.2015 46.7504 38.3835 40.5682 38.3835 32.9694C38.3835 25.3706 32.2015 19.1885 24.6027 19.1885ZM22.7363 49.2917V63.241C22.7363 63.8537 23.2348 64.352 23.8475 64.352H52.1218V59.0547C52.1218 56.982 53.8079 55.2957 55.8808 55.2957H61.1779V15.4029H22.736V16.6471C23.3488 16.5775 23.9713 16.5404 24.6024 16.5404C29.6321 16.5404 34.1402 18.8131 37.1561 22.3845H45.0968C45.828 22.3845 46.4208 22.9773 46.4208 23.7085C46.4208 24.4397 45.828 25.0325 45.0968 25.0325H38.9827C40.1007 27.0499 40.8068 29.3256 40.9859 31.7459H45.0969C45.8281 31.7459 46.4209 32.3387 46.4209 33.0699C46.4209 33.8011 45.8281 34.3939 45.0969 34.3939H40.9691C40.7598 36.8196 40.022 39.0962 38.8704 41.1074H45.097C45.8283 41.1074 46.421 41.7002 46.421 42.4314C46.421 43.1626 45.8283 43.7554 45.097 43.7554H36.9846C33.9706 47.211 29.5375 49.3984 24.6028 49.3984C23.9717 49.3984 23.3492 49.3613 22.7363 49.2917ZM54.7701 59.0548V62.4795L59.3059 57.9438H55.8811C55.2686 57.9438 54.7701 58.4421 54.7701 59.0548ZM54.6959 25.0325H50.299C49.5678 25.0325 48.975 24.4397 48.975 23.7085C48.975 22.9773 49.5678 22.3845 50.299 22.3845H54.6959C55.4271 22.3845 56.0199 22.9773 56.0199 23.7085C56.0199 24.4397 55.4271 25.0325 54.6959 25.0325ZM50.299 34.3939H54.6959C55.4271 34.3939 56.0199 33.8011 56.0199 33.0699C56.0199 32.3387 55.4271 31.7459 54.6959 31.7459H50.299C49.5678 31.7459 48.975 32.3387 48.975 33.0699C48.975 33.8011 49.5678 34.3939 50.299 34.3939ZM54.6959 43.7554H50.299C49.5678 43.7554 48.975 43.1626 48.975 42.4314C48.975 41.7002 49.5678 41.1074 50.299 41.1074H54.6959C55.4271 41.1074 56.0199 41.7002 56.0199 42.4314C56.0199 43.1626 55.4271 43.7554 54.6959 43.7554ZM54.6959 53.1167C55.4271 53.1167 56.0199 52.524 56.0199 51.7928C56.0199 51.0615 55.4271 50.4688 54.6959 50.4688H42.3103C41.579 50.4688 40.9863 51.0615 40.9863 51.7928C40.9863 52.524 41.579 53.1167 42.3103 53.1167H54.6959ZM16.9819 25.9539C16.3273 26.5823 16 27.4037 16 28.4182V29.2244C16 30.2843 16.3273 31.1285 16.9819 31.7568C17.6441 32.3776 18.5094 32.688 19.5779 32.688C20.6388 32.688 21.4966 32.3776 22.1512 31.7568C22.8059 31.136 23.1332 30.3146 23.1332 29.2926V28.475C23.1332 27.4075 22.8059 26.5633 22.1512 25.9426C21.4966 25.3142 20.6313 25 19.5553 25C18.4944 25 17.6366 25.318 16.9819 25.9539ZM18.5508 30.3941C18.295 30.114 18.167 29.7468 18.167 29.2926V28.4636C18.167 27.9715 18.295 27.5892 18.5508 27.3166C18.8066 27.0365 19.1415 26.8965 19.5553 26.8965C19.9917 26.8965 20.3341 27.0365 20.5824 27.3166C20.8307 27.5967 20.9549 27.9639 20.9549 28.4182V29.2585C20.9549 29.7279 20.8307 30.1026 20.5824 30.3828C20.3341 30.6629 19.9992 30.8029 19.5779 30.8029C19.1565 30.8029 18.8141 30.6667 18.5508 30.3941ZM24.8488 35.2545C24.1866 35.8753 23.8555 36.6967 23.8555 37.7188V38.5591C23.8555 39.5963 24.1828 40.4291 24.8375 41.0574C25.4921 41.6858 26.3612 42 27.4447 42C28.5207 42 29.3822 41.6896 30.0293 41.0688C30.6764 40.4404 31 39.619 31 38.6045V37.7869C31 36.7043 30.6689 35.8564 30.0068 35.2432C29.3521 34.6224 28.4906 34.312 27.4221 34.312C26.3687 34.312 25.5109 34.6261 24.8488 35.2545ZM26.4289 39.672C26.158 39.3768 26.0226 39.0209 26.0226 38.6045V37.7528C26.0226 37.2759 26.1505 36.9011 26.4063 36.6286C26.6622 36.3485 27.0008 36.2084 27.4221 36.2084C27.8435 36.2084 28.1821 36.3485 28.4379 36.6286C28.6938 36.9011 28.8217 37.2645 28.8217 37.7188V38.5818C28.8217 39.6039 28.3627 40.1149 27.4447 40.1149C27.0384 40.1149 26.6998 39.9673 26.4289 39.672ZM18.6298 39.672L20.2212 40.5351L28.246 27.6119L26.6546 26.7488L18.6298 39.672Z" fill="url(#paint0_linear)"/>
<defs>
<linearGradient id="paint0_linear" x1="63.7448" y1="67.0003" x2="4.37958" y2="34.885" gradientUnits="userSpaceOnUse">
<stop stop-color="#62214B"/>
<stop offset="0.450757" stop-color="#E6655E"/>
<stop offset="1" stop-color="#FFAB59"/>
</linearGradient>
</defs>
</svg>
