<svg width="72" height="72" viewBox="0 0 72 72" fill="none" xmlns="http://www.w3.org/2000/svg">
<path fill-rule="evenodd" clip-rule="evenodd" d="M62.2065 9H31.1381C30.9298 9 30.7246 9.08501 30.5775 9.23224L21.0671 18.7427C20.9197 18.8899 20.8348 19.095 20.8348 19.3032V23.3717H9.79173C9.35403 23.3717 8.99913 23.7266 8.99913 24.1643V35.2073C8.99913 35.6451 9.35403 36 9.79173 36C10.2294 36 10.5843 35.6451 10.5843 35.2074V24.9569H34.3612V55.4971H10.5842V39.0118C10.5842 38.5741 10.2293 38.2192 9.79162 38.2192C9.35393 38.2192 8.99902 38.574 8.99902 39.0118V56.2897C8.99902 56.7274 9.35393 57.0823 9.79162 57.0823H20.8347V62.2075C20.8347 62.6452 21.1896 63.0001 21.6273 63.0001H62.2065C62.6442 63.0001 62.9991 62.6452 62.9991 62.2075V9.7926C62.9991 9.3549 62.6442 9 62.2065 9ZM30.3455 11.7059V18.5107H23.5406L30.3455 11.7059ZM61.414 61.4149H22.4199V57.0823H35.1538C35.5915 57.0823 35.9464 56.7274 35.9464 56.2897V24.1644C35.9464 23.7267 35.5915 23.3718 35.1538 23.3718H22.4199V20.0958H31.1381C31.5758 20.0958 31.9307 19.7409 31.9307 19.3032V10.5851H61.414V61.4149ZM46.1448 47.043H40.227C39.7893 47.043 39.4344 47.3979 39.4344 47.8356C39.4344 48.2733 39.7893 48.6282 40.227 48.6282H46.1448C46.5825 48.6282 46.9374 48.2733 46.9374 47.8356C46.9374 47.3979 46.5825 47.043 46.1448 47.043ZM49.5264 47.043H57.9804C58.4181 47.043 58.773 47.3979 58.773 47.8356C58.773 48.2733 58.4181 48.6282 57.9804 48.6282H49.5264C49.0887 48.6282 48.7338 48.2733 48.7338 47.8356C48.7338 47.3979 49.0887 47.043 49.5264 47.043ZM43.6086 51.2701H40.227C39.7893 51.2701 39.4344 51.625 39.4344 52.0627C39.4344 52.5004 39.7893 52.8553 40.227 52.8553H43.6086C44.0463 52.8553 44.4012 52.5004 44.4012 52.0627C44.4012 51.6249 44.0463 51.2701 43.6086 51.2701ZM46.9902 51.2701H57.9804C58.4181 51.2701 58.773 51.6249 58.773 52.0627C58.773 52.5004 58.4181 52.8553 57.9804 52.8553H46.9902C46.5525 52.8553 46.1976 52.5004 46.1976 52.0627C46.1976 51.625 46.5525 51.2701 46.9902 51.2701ZM48.681 55.4971H40.227C39.7893 55.4971 39.4344 55.852 39.4344 56.2897C39.4344 56.7273 39.7893 57.0822 40.227 57.0822H48.681C49.1187 57.0822 49.4736 56.7273 49.4736 56.2897C49.4736 55.852 49.1187 55.4971 48.681 55.4971ZM52.0626 55.4971H57.9805C58.4181 55.4971 58.773 55.852 58.773 56.2897C58.773 56.7273 58.4181 57.0822 57.9805 57.0822H52.0626C51.6249 57.0822 51.27 56.7273 51.27 56.2897C51.27 55.852 51.6249 55.4971 52.0626 55.4971ZM31.7731 26.7534H13.1742C12.7365 26.7534 12.3816 27.1083 12.3816 27.546V32.6185C12.3816 33.0562 12.7365 33.4111 13.1742 33.4111H31.773C32.2106 33.4111 32.5656 33.0562 32.5656 32.6185V27.546C32.5656 27.1082 32.2108 26.7534 31.7731 26.7534ZM30.9805 31.8259H13.9668V28.3385H30.9805V31.8259ZM25.0099 35.2074H31.773C32.2107 35.2074 32.5655 35.5623 32.5656 36V42.7632C32.5656 43.2009 32.2107 43.5558 31.773 43.5558H25.0099C24.5722 43.5558 24.2173 43.2009 24.2173 42.7632V36C24.2173 35.5623 24.5722 35.2074 25.0099 35.2074ZM25.8023 41.9707H30.9804V36.7926H25.8023V41.9707ZM19.9375 35.2074H13.1742C12.7365 35.2074 12.3816 35.5623 12.3816 36V42.7632C12.3816 43.2009 12.7365 43.5558 13.1742 43.5558H19.9374C20.375 43.5558 20.7299 43.2009 20.7299 42.7632V36C20.7299 35.5623 20.3752 35.2074 19.9375 35.2074ZM19.1449 41.9707H13.9668V36.7926H19.1449V41.9707ZM25.0099 45.3522H31.773C32.2107 45.3522 32.5655 45.7071 32.5656 46.1448V52.908C32.5656 53.3457 32.2107 53.7006 31.773 53.7006H25.0099C24.5722 53.7006 24.2173 53.3457 24.2173 52.908V46.1448C24.2173 45.7071 24.5722 45.3522 25.0099 45.3522ZM25.8023 52.1154H30.9804V46.9373H25.8023V52.1154ZM19.9375 45.3522H13.1742C12.7365 45.3522 12.3816 45.7071 12.3816 46.1448V52.908C12.3816 53.3457 12.7365 53.7006 13.1742 53.7006H19.9374C20.375 53.7006 20.7299 53.3457 20.7299 52.908V46.1448C20.7299 45.7071 20.3752 45.3522 19.9375 45.3522ZM19.1449 52.1154H13.9668V46.9373H19.1449V52.1154ZM17.3484 38.589H17.4012C17.8389 38.589 18.1938 38.9439 18.1938 39.3816C18.1938 39.8193 17.8389 40.1742 17.4012 40.1742H17.3484V40.2271C17.3484 40.6648 16.9935 41.0197 16.5558 41.0197C16.1181 41.0197 15.7632 40.6648 15.7632 40.2271V40.1742H15.7104C15.2727 40.1742 14.9178 39.8193 14.9178 39.3816C14.9178 38.9439 15.2727 38.589 15.7104 38.589H15.7632V38.5362C15.7632 38.0985 16.1181 37.7436 16.5558 37.7436C16.9935 37.7436 17.3484 38.0985 17.3484 38.5362V38.589ZM29.2369 38.589H27.5461C27.1084 38.589 26.7535 38.9439 26.7535 39.3816C26.7535 39.8193 27.1084 40.1742 27.5461 40.1742H29.2369C29.6746 40.1742 30.0295 39.8193 30.0295 39.3816C30.0295 38.9439 29.6746 38.589 29.2369 38.589ZM17.9616 49.2414L17.6766 49.5264L17.9614 49.8113C18.2709 50.1208 18.2709 50.6226 17.9614 50.9322C17.8066 51.087 17.6037 51.1643 17.401 51.1643C17.1983 51.1643 16.9954 51.087 16.8407 50.9322L16.5557 50.6472L16.2707 50.9322C16.116 51.087 15.9131 51.1643 15.7104 51.1643C15.5076 51.1643 15.3047 51.087 15.15 50.9322C14.8404 50.6227 14.8404 50.1209 15.15 49.8113L15.435 49.5264L15.15 49.2414C14.8404 48.9319 14.8404 48.4301 15.15 48.1206C15.4594 47.811 15.9613 47.811 16.2708 48.1206L16.5558 48.4055L16.8408 48.1206C17.1502 47.811 17.652 47.811 17.9616 48.1206C18.2711 48.43 18.2711 48.9319 17.9616 49.2414ZM29.7972 48.1206C29.4877 47.811 28.9858 47.811 28.6764 48.1206L26.9856 49.8113C26.4973 50.2994 26.8529 51.1643 27.546 51.1643C27.7488 51.1643 27.9516 51.087 28.1063 50.9322L29.7971 49.2414C30.1068 48.9319 30.1068 48.43 29.7972 48.1206ZM51.2361 21.9533H54.386L55 20H42.654L42.0267 21.9533H45.7772C47.9661 22.0192 49.2741 22.8352 49.7012 24.4011H42.614L42 26.3544H49.7279C49.5411 27.1126 49.1006 27.7143 48.4066 28.1593C47.7125 28.5962 46.8094 28.8187 45.6971 28.8269H42.3737L42.3871 30.3723L49.461 38H52.4908V37.8516L45.9107 30.7802C47.8593 30.7802 49.3809 30.4093 50.4754 29.6676C51.5698 28.9258 52.1971 27.8214 52.3573 26.3544H54.386L55 24.4011H52.3172C52.166 23.4368 51.8056 22.6209 51.2361 21.9533Z" fill="url(#paint0_linear)"/>
<defs>
<linearGradient id="paint0_linear" x1="62.9201" y1="63.0001" x2="8.29933" y2="30.0811" gradientUnits="userSpaceOnUse">
<stop stop-color="#62214B"/>
<stop offset="0.450757" stop-color="#E6655E"/>
<stop offset="1" stop-color="#FFAB59"/>
</linearGradient>
</defs>
</svg>
