<svg width="72" height="72" viewBox="0 0 72 72" fill="none" xmlns="http://www.w3.org/2000/svg">
<g clip-path="url(#clip0)">
<path d="M59.3983 27.6681H54.4081L53.0075 17.0998C52.807 15.6809 51.504 14.6861 50.0823 14.8667L12.2591 19.8794C11.5736 19.9713 10.9529 20.3323 10.5341 20.8828C10.1135 21.4296 9.92989 22.1222 10.0242 22.8054L13.2157 46.8741C13.3852 48.1703 14.4902 49.1395 15.7975 49.1385C15.9094 49.1383 16.0212 49.1307 16.1322 49.116L18.6377 48.7856V54.5527C18.6377 55.9897 19.8025 57.1545 21.2394 57.1545H59.3983C60.8352 57.1545 62 55.9897 62 54.5527V30.2698C62 28.8329 60.8352 27.6681 59.3983 27.6681ZM52.6589 27.6681H45.8866L52.5418 26.7861L52.6589 27.6681ZM11.7414 22.5713C11.7109 22.3449 11.7727 22.1158 11.9131 21.9356C12.0526 21.7501 12.2606 21.6283 12.4907 21.5974L50.3069 16.5864C50.7825 16.5261 51.2187 16.8579 51.2878 17.3323L51.6304 19.9149L12.0839 25.1592L11.7414 22.5713ZM18.6377 47.0363L15.9093 47.3962C15.4345 47.4593 14.9985 47.1255 14.9354 46.6507C14.9354 46.6506 14.9354 46.6505 14.9354 46.6504L13.0006 32.0303L18.6377 31.2854V47.0363ZM18.7522 29.5214L12.7682 30.3106L12.3129 26.8798L51.8593 21.6347L52.1195 23.6224L52.312 25.0664L32.6871 27.6681H21.2394C20.0925 27.6702 19.0822 28.4229 18.7522 29.5214ZM60.2655 54.5527C60.2655 55.0317 59.8772 55.42 59.3983 55.42H21.2394C20.7605 55.42 20.3722 55.0317 20.3722 54.5527V30.2959C20.3722 30.2872 20.3765 30.2785 20.3765 30.2698C20.3765 29.7909 20.7648 29.4026 21.2438 29.4026H59.3983C59.8772 29.4026 60.2655 29.7909 60.2655 30.2698V54.5527Z" fill="url(#paint0_linear)"/>
<path d="M48.0772 40.6969C48.4259 40.4395 48.734 40.1314 48.9913 39.7828C50.4172 41.7021 53.129 42.1021 55.0484 40.6761C56.9677 39.2503 57.3677 36.5384 55.9417 34.6191C55.1236 33.5179 53.832 32.8696 52.4603 32.8716C51.09 32.8754 49.8029 33.529 48.9913 34.633C47.5692 32.706 44.8544 32.2968 42.9274 33.7189C41.0005 35.1409 40.5913 37.8558 42.0133 39.7828C43.4354 41.7096 46.1503 42.1189 48.0772 40.6969ZM52.4603 34.6061C53.8972 34.6061 55.062 35.7709 55.062 37.2078C55.062 38.6447 53.8972 39.8096 52.4603 39.8096C51.0234 39.8096 49.8585 38.6447 49.8585 37.2078C49.8585 35.7709 51.0234 34.6061 52.4603 34.6061ZM45.5223 34.6061C46.9592 34.6061 48.124 35.7709 48.124 37.2078C48.124 38.6447 46.9592 39.8096 45.5223 39.8096C44.0854 39.8096 42.9206 38.6447 42.9206 37.2078C42.9206 35.7709 44.0854 34.6061 45.5223 34.6061Z" fill="url(#paint1_linear)"/>
<path d="M25.5758 33.7388H23.8413V35.4733H25.5758V33.7388Z" fill="url(#paint2_linear)"/>
<path d="M37.7173 33.7388H27.3103V35.4733H37.7173V33.7388Z" fill="url(#paint3_linear)"/>
<path d="M37.7172 37.2078H23.8413V38.9423H37.7172V37.2078Z" fill="url(#paint4_linear)"/>
<path d="M55.9294 45.013H24.7086C24.2296 45.013 23.8413 45.4013 23.8413 45.8803V51.0838C23.8413 51.5627 24.2296 51.951 24.7086 51.951H55.9294C56.4084 51.951 56.7967 51.5627 56.7967 51.0838V45.8803C56.7967 45.4013 56.4085 45.013 55.9294 45.013ZM55.0622 50.2165H25.5758V46.7475H55.0622V50.2165Z" fill="url(#paint5_linear)"/>
</g>
<defs>
<linearGradient id="paint0_linear" x1="61.924" y1="57.1545" x2="15.6248" y2="22.8593" gradientUnits="userSpaceOnUse">
<stop stop-color="#62214B"/>
<stop offset="0.450757" stop-color="#E6655E"/>
<stop offset="1" stop-color="#FFAB59"/>
</linearGradient>
<linearGradient id="paint1_linear" x1="56.7733" y1="41.5444" x2="46.8854" y2="30.8047" gradientUnits="userSpaceOnUse">
<stop stop-color="#62214B"/>
<stop offset="0.450757" stop-color="#E6655E"/>
<stop offset="1" stop-color="#FFAB59"/>
</linearGradient>
<linearGradient id="paint2_linear" x1="25.5733" y1="35.4733" x2="23.8188" y2="34.4159" gradientUnits="userSpaceOnUse">
<stop stop-color="#62214B"/>
<stop offset="0.450757" stop-color="#E6655E"/>
<stop offset="1" stop-color="#FFAB59"/>
</linearGradient>
<linearGradient id="paint3_linear" x1="37.702" y1="35.4733" x2="36.6826" y2="31.7868" gradientUnits="userSpaceOnUse">
<stop stop-color="#62214B"/>
<stop offset="0.450757" stop-color="#E6655E"/>
<stop offset="1" stop-color="#FFAB59"/>
</linearGradient>
<linearGradient id="paint4_linear" x1="37.697" y1="38.9423" x2="36.9078" y2="35.1376" gradientUnits="userSpaceOnUse">
<stop stop-color="#62214B"/>
<stop offset="0.450757" stop-color="#E6655E"/>
<stop offset="1" stop-color="#FFAB59"/>
</linearGradient>
<linearGradient id="paint5_linear" x1="56.7485" y1="51.951" x2="51.8066" y2="37.8037" gradientUnits="userSpaceOnUse">
<stop stop-color="#62214B"/>
<stop offset="0.450757" stop-color="#E6655E"/>
<stop offset="1" stop-color="#FFAB59"/>
</linearGradient>
<clipPath id="clip0">
<rect width="52" height="52" fill="white" transform="translate(10 10)"/>
</clipPath>
</defs>
</svg>
