<svg width="72" height="72" viewBox="0 0 72 72" fill="none" xmlns="http://www.w3.org/2000/svg">
<path d="M53.6055 28.1172C53.8366 28.1172 54.0634 28.0231 54.2268 27.8596C54.3903 27.6962 54.4844 27.4694 54.4844 27.2383C54.4844 27.0071 54.3903 26.7804 54.2268 26.6169C54.0634 26.4534 53.8366 26.3594 53.6055 26.3594C53.3743 26.3594 53.1476 26.4533 52.9841 26.6169C52.8206 26.7805 52.7266 27.0071 52.7266 27.2383C52.7266 27.4694 52.8205 27.6962 52.9841 27.8596C53.1476 28.0231 53.3743 28.1172 53.6055 28.1172Z" fill="url(#paint0_linear)"/>
<path d="M30.2704 51.9942H30.2573C29.772 51.9942 29.3784 52.3877 29.3784 52.8731C29.3784 53.3584 29.772 53.752 30.2573 53.752H30.2704C30.7558 53.752 31.1493 53.3584 31.1493 52.8731C31.1493 52.3877 30.7558 51.9942 30.2704 51.9942Z" fill="url(#paint1_linear)"/>
<path d="M58 48.2961V19.1523C58 17.6985 56.8172 16.5156 55.3633 16.5156H52.3527V15.9883C52.3527 14.3405 51.0122 13 49.3644 13C47.7166 13 46.3761 14.3405 46.3761 15.9883V16.5156H38.4771V15.9883C38.4771 14.3405 37.1366 13 35.4888 13C33.8411 13 32.5006 14.3405 32.5006 15.9883V16.5156H24.6016V15.9883C24.6016 14.3405 23.2611 13 21.6133 13C19.9655 13 18.625 14.3405 18.625 15.9883V16.5156H15.6367C14.1828 16.5156 13 17.6985 13 19.1523V55.3633C13 56.8172 14.1828 58 15.6367 58H48.2961C48.5387 58 48.7583 57.9016 48.9173 57.7427C48.9174 57.7427 48.9175 57.7427 48.9176 57.7426L57.7426 48.9176C57.9016 48.7585 58 48.5387 58 48.2961ZM48.1339 15.9883C48.1339 15.3098 48.6859 14.7578 49.3644 14.7578C50.0429 14.7578 50.5949 15.3098 50.5949 15.9883V20.2949C50.5949 20.9734 50.0429 21.5254 49.3644 21.5254C48.6859 21.5254 48.1339 20.9734 48.1339 20.2949V15.9883ZM34.2584 15.9883C34.2584 15.3098 34.8103 14.7578 35.4888 14.7578C36.1674 14.7578 36.7193 15.3098 36.7193 15.9883V20.2949C36.7193 20.9734 36.1674 21.5254 35.4888 21.5254C34.8103 21.5254 34.2584 20.9734 34.2584 20.2949V15.9883ZM20.3828 15.9883C20.3828 15.3098 20.9348 14.7578 21.6133 14.7578C22.2918 14.7578 22.8438 15.3098 22.8438 15.9883V20.2949C22.8438 20.9734 22.2918 21.5254 21.6133 21.5254C20.9348 21.5254 20.3828 20.9734 20.3828 20.2949V15.9883ZM14.7578 55.3633V53.752H26.7549C27.2402 53.752 27.6338 53.3584 27.6338 52.8731C27.6338 52.3877 27.2402 51.9942 26.7549 51.9942H14.7578V28.1172H50.0898C50.5752 28.1172 50.9688 27.7236 50.9688 27.2383C50.9688 26.7529 50.5752 26.3594 50.0898 26.3594H14.7578V19.1523C14.7578 18.6677 15.1521 18.2734 15.6367 18.2734H18.625V20.2949C18.625 21.9427 19.9655 23.2832 21.6133 23.2832C23.2611 23.2832 24.6016 21.9427 24.6016 20.2949V18.2734H32.5006V20.2949C32.5006 21.9427 33.8411 23.2832 35.4888 23.2832C37.1366 23.2832 38.4771 21.9427 38.4771 20.2949V18.2734H46.3761V20.2949C46.3761 21.9427 47.7166 23.2832 49.3644 23.2832C51.0122 23.2832 52.3527 21.9427 52.3527 20.2949V18.2734H55.3633C55.8479 18.2734 56.2422 18.6677 56.2422 19.1523V47.4172H50.0539C48.6 47.4172 47.4172 48.6 47.4172 50.0539V56.2422H15.6367C15.1521 56.2422 14.7578 55.8479 14.7578 55.3633ZM49.175 54.9991V50.0538C49.175 49.5692 49.5693 49.1749 50.0539 49.1749H54.9992L49.175 54.9991Z" fill="url(#paint2_linear)"/>
<path d="M30.2319 43.8068V40.7734V37.7401C30.2319 36.7957 29.4636 36.0273 28.5192 36.0273H24.7124C24.2271 36.0273 23.8335 36.4209 23.8335 36.9062C23.8335 37.3916 24.2271 37.7852 24.7124 37.7852H28.4741V39.8945H24.7124C24.2271 39.8945 23.8335 40.2881 23.8335 40.7734C23.8335 41.2588 24.2271 41.6523 24.7124 41.6523H28.4741V43.7617H24.7124C24.2271 43.7617 23.8335 44.1553 23.8335 44.6406C23.8335 45.126 24.2271 45.5195 24.7124 45.5195H28.5192C29.4635 45.5195 30.2319 44.7512 30.2319 43.8068Z" fill="url(#paint3_linear)"/>
<path d="M37.8608 37.7852C38.3462 37.7852 38.7397 37.3916 38.7397 36.9062C38.7397 36.4209 38.3462 36.0273 37.8608 36.0273H34.054C33.1096 36.0273 32.3413 36.7957 32.3413 37.7401V40.7734V43.8068C32.3413 44.7512 33.1096 45.5195 34.054 45.5195H37.0269C37.9713 45.5195 38.7397 44.7512 38.7397 43.8068V41.6073C38.7397 40.663 37.9713 39.8946 37.0269 39.8946H35.7339H34.0991V37.7852H37.8608V37.7852ZM35.7339 41.6523H36.9819V43.7617H34.0991V41.6523H35.7339Z" fill="url(#paint4_linear)"/>
<path d="M45.5348 39.8945H44.0484H42.607V37.7852H46.3687C46.8541 37.7852 47.2477 37.3916 47.2477 36.9063C47.2477 36.4209 46.8541 36.0273 46.3687 36.0273H42.5619C41.6175 36.0273 40.8492 36.7957 40.8492 37.7401V39.9395C40.8492 40.8839 41.6175 41.6523 42.5619 41.6523H44.0484H45.4897V43.7616H41.728C41.2427 43.7616 40.8491 44.1552 40.8491 44.6405C40.8491 45.1259 41.2427 45.5194 41.728 45.5194H45.5348C46.4792 45.5194 47.2476 44.7511 47.2476 43.8067V41.6073C47.2476 40.6629 46.4792 39.8945 45.5348 39.8945Z" fill="url(#paint5_linear)"/>
<defs>
<linearGradient id="paint0_linear" x1="54.0152" y1="28.1163" x2="52.9209" y2="26.8177" gradientUnits="userSpaceOnUse">
<stop stop-color="#62214B"/>
<stop offset="0.450757" stop-color="#E6655E"/>
<stop offset="1" stop-color="#FFAB59"/>
</linearGradient>
<linearGradient id="paint1_linear" x1="30.6767" y1="53.7511" x2="29.5837" y2="52.4445" gradientUnits="userSpaceOnUse">
<stop stop-color="#62214B"/>
<stop offset="0.450757" stop-color="#E6655E"/>
<stop offset="1" stop-color="#FFAB59"/>
</linearGradient>
<linearGradient id="paint2_linear" x1="45.9891" y1="57.9766" x2="17.9738" y2="24.7329" gradientUnits="userSpaceOnUse">
<stop stop-color="#62214B"/>
<stop offset="0.450757" stop-color="#E6655E"/>
<stop offset="1" stop-color="#FFAB59"/>
</linearGradient>
<linearGradient id="paint3_linear" x1="28.5241" y1="45.5146" x2="22.6744" y2="40.8355" gradientUnits="userSpaceOnUse">
<stop stop-color="#62214B"/>
<stop offset="0.450757" stop-color="#E6655E"/>
<stop offset="1" stop-color="#FFAB59"/>
</linearGradient>
<linearGradient id="paint4_linear" x1="37.0319" y1="45.5146" x2="31.1822" y2="40.8355" gradientUnits="userSpaceOnUse">
<stop stop-color="#62214B"/>
<stop offset="0.450757" stop-color="#E6655E"/>
<stop offset="1" stop-color="#FFAB59"/>
</linearGradient>
<linearGradient id="paint5_linear" x1="45.5398" y1="45.5145" x2="39.6901" y2="40.8354" gradientUnits="userSpaceOnUse">
<stop stop-color="#62214B"/>
<stop offset="0.450757" stop-color="#E6655E"/>
<stop offset="1" stop-color="#FFAB59"/>
</linearGradient>
</defs>
</svg>
