<svg width="72" height="72" viewBox="0 0 72 72" fill="none" xmlns="http://www.w3.org/2000/svg">
<path fill-rule="evenodd" clip-rule="evenodd" d="M56.9219 14.4688H52.0807V13.0469C52.0807 11.3668 50.7139 10 49.0338 10C47.3538 10 45.9869 11.3668 45.9869 13.0469V14.4688H28.9244V13.0469C28.9244 11.3668 27.5576 10 25.8776 10C24.1975 10 22.8307 11.3668 22.8307 13.0469V14.5063C22.7444 14.4825 22.6539 14.4688 22.5599 14.4688H18.5133C15.7132 14.4688 13.4351 16.7468 13.4351 19.5469V36.8463C13.4351 37.4073 13.8899 37.8619 14.4508 37.8619C15.0116 37.8619 15.4664 37.4073 15.4664 36.8463V24.9297H52.0807C52.6415 24.9297 53.0963 24.475 53.0963 23.9141C53.0963 23.3531 52.6415 22.8984 52.0807 22.8984H15.4664V19.5469C15.4664 17.8668 16.8332 16.5 18.5133 16.5H22.5599C22.6539 16.5 22.7444 16.4862 22.8307 16.4624V17.7695C22.8307 19.4496 24.1975 20.8164 25.8776 20.8164C27.5576 20.8164 28.9244 19.4496 28.9244 17.7695V16.5H45.9869V17.7695C45.9869 19.4496 47.3538 20.8164 49.0338 20.8164C50.7139 20.8164 52.0807 19.4496 52.0807 17.7695V16.5H56.9219C58.6019 16.5 59.9688 17.8668 59.9688 19.5469V58.14C59.9688 59.1483 59.1484 59.9688 58.14 59.9688C57.1316 59.9688 56.3113 59.1483 56.3113 58.14V55.5127C56.3113 54.9518 55.8565 54.4971 55.2957 54.4971H43.4818C42.921 54.4971 42.4662 54.9518 42.4662 55.5127C42.4662 56.0736 42.921 56.5283 43.4818 56.5283H54.28V58.14C54.28 58.8013 54.4474 59.4241 54.7416 59.9688H13.8594C12.8514 59.9688 12.0312 59.1486 12.0312 58.1406V56.5283H34.7635C35.3243 56.5283 35.7791 56.0736 35.7791 55.5127C35.7791 54.9518 35.3243 54.4971 34.7635 54.4971H24.6158C26.3905 52.9687 27.5174 50.7079 27.5174 48.1875C27.5174 43.5954 23.7814 39.8594 19.1893 39.8594C14.5971 39.8594 10.8611 43.5954 10.8611 48.1875C10.8611 50.7079 11.9881 52.9687 13.7628 54.4971H11.0156C10.4548 54.4971 10 54.9518 10 55.5127V58.1406C10 60.2687 11.7313 62 13.8594 62H58.14C60.2684 62 62 60.2685 62 58.14V19.5469C62 16.7468 59.722 14.4688 56.9219 14.4688ZM26.8932 17.7695C26.8932 18.3295 26.4376 18.7852 25.8776 18.7852C25.3176 18.7852 24.8619 18.3295 24.8619 17.7695V13.0469C24.8619 12.4869 25.3176 12.0312 25.8776 12.0312C26.4376 12.0312 26.8932 12.4869 26.8932 13.0469V17.7695ZM50.0494 17.7695C50.0494 18.3295 49.5938 18.7852 49.0338 18.7852C48.4738 18.7852 48.0182 18.3295 48.0182 17.7695V13.0469C48.0182 12.4869 48.4738 12.0312 49.0338 12.0312C49.5938 12.0312 50.0494 12.4869 50.0494 13.0469V17.7695ZM12.8924 48.1875C12.8924 44.7154 15.7172 41.8906 19.1893 41.8906C22.6614 41.8906 25.4861 44.7154 25.4861 48.1875C25.4861 51.6596 22.6614 54.4844 19.1893 54.4844C15.7172 54.4844 12.8924 51.6596 12.8924 48.1875ZM57.5627 23.196C57.3739 23.0071 57.1118 22.8984 56.8447 22.8984C56.5775 22.8984 56.3156 23.0071 56.1267 23.196C55.9378 23.3849 55.8291 23.647 55.8291 23.9141C55.8291 24.1812 55.9377 24.4432 56.1267 24.6321C56.3157 24.821 56.5775 24.9297 56.8447 24.9297C57.1118 24.9297 57.3739 24.821 57.5627 24.6321C57.7516 24.4432 57.8603 24.1812 57.8603 23.9141C57.8603 23.647 57.7517 23.3849 57.5627 23.196ZM39.6136 54.4976C39.8807 54.4976 40.1427 54.6052 40.3315 54.7941C40.5205 54.9841 40.6292 55.2451 40.6292 55.5122C40.6292 55.7793 40.5204 56.0413 40.3315 56.2313C40.1427 56.4202 39.8807 56.5278 39.6136 56.5278C39.3465 56.5278 39.0844 56.4202 38.8955 56.2313C38.7065 56.0413 38.5979 55.7803 38.5979 55.5122C38.5979 55.2451 38.7066 54.9841 38.8955 54.7941C39.0844 54.6052 39.3465 54.4976 39.6136 54.4976ZM32.9779 40.875C30.8499 40.875 29.1186 42.6063 29.1186 44.7344C29.1186 46.8624 30.8499 48.5938 32.9779 48.5938C35.106 48.5938 36.8373 46.8624 36.8373 44.7344C36.8373 42.6063 35.106 40.875 32.9779 40.875ZM32.9779 46.5625C31.9699 46.5625 31.1498 45.7424 31.1498 44.7344C31.1498 43.7264 31.9699 42.9062 32.9779 42.9062C33.986 42.9062 34.8061 43.7264 34.8061 44.7344C34.8061 45.7424 33.986 46.5625 32.9779 46.5625ZM38.5977 44.7344C38.5977 42.6063 40.3291 40.875 42.4571 40.875C44.5852 40.875 46.3165 42.6063 46.3165 44.7344C46.3165 46.8624 44.5852 48.5938 42.4571 48.5938C40.3291 48.5938 38.5977 46.8624 38.5977 44.7344ZM40.629 44.7344C40.629 45.7424 41.4491 46.5625 42.4571 46.5625C43.4651 46.5625 44.2852 45.7424 44.2852 44.7344C44.2852 43.7264 43.4651 42.9062 42.4571 42.9062C41.4491 42.9062 40.629 43.7264 40.629 44.7344ZM51.9363 40.875C49.8083 40.875 48.077 42.6063 48.077 44.7344C48.077 46.8624 49.8083 48.5938 51.9363 48.5938C54.0644 48.5938 55.7957 46.8624 55.7957 44.7344C55.7957 42.6063 54.0644 40.875 51.9363 40.875ZM51.9363 46.5625C50.9283 46.5625 50.1082 45.7424 50.1082 44.7344C50.1082 43.7264 50.9283 42.9062 51.9363 42.9062C52.9443 42.9062 53.7645 43.7264 53.7645 44.7344C53.7645 45.7424 52.9443 46.5625 51.9363 46.5625ZM19.6395 34.1719C19.6395 32.0438 21.3708 30.3125 23.4989 30.3125C25.6269 30.3125 27.3582 32.0438 27.3582 34.1719C27.3582 36.2999 25.6269 38.0312 23.4989 38.0312C21.3708 38.0312 19.6395 36.2999 19.6395 34.1719ZM21.6707 34.1719C21.6707 35.1799 22.4908 36 23.4989 36C24.5069 36 25.327 35.1799 25.327 34.1719C25.327 33.1639 24.5069 32.3438 23.4989 32.3438C22.4908 32.3438 21.6707 33.1639 21.6707 34.1719ZM42.4571 30.3125C40.3291 30.3125 38.5977 32.0438 38.5977 34.1719C38.5977 36.2999 40.3291 38.0312 42.4571 38.0312C44.5852 38.0312 46.3165 36.2999 46.3165 34.1719C46.3165 32.0438 44.5852 30.3125 42.4571 30.3125ZM42.4571 36C41.4491 36 40.629 35.1799 40.629 34.1719C40.629 33.1639 41.4491 32.3438 42.4571 32.3438C43.4651 32.3438 44.2852 33.1639 44.2852 34.1719C44.2852 35.1799 43.4651 36 42.4571 36ZM48.077 34.1719C48.077 32.0438 49.8083 30.3125 51.9363 30.3125C54.0644 30.3125 55.7957 32.0438 55.7957 34.1719C55.7957 36.2999 54.0644 38.0312 51.9363 38.0312C49.8083 38.0312 48.077 36.2999 48.077 34.1719ZM50.1082 34.1719C50.1082 35.1799 50.9283 36 51.9363 36C52.9443 36 53.7645 35.1799 53.7645 34.1719C53.7645 33.1639 52.9443 32.3438 51.9363 32.3438C50.9283 32.3438 50.1082 33.1639 50.1082 34.1719ZM32.9779 30.3125C30.8499 30.3125 29.1186 32.0438 29.1186 34.1719C29.1186 36.2999 30.8499 38.0312 32.9779 38.0312C35.106 38.0312 36.8373 36.2999 36.8373 34.1719C36.8373 32.0438 35.106 30.3125 32.9779 30.3125ZM32.9779 36C31.9699 36 31.1498 35.1799 31.1498 34.1719C31.1498 33.1639 31.9699 32.3438 32.9779 32.3438C33.986 32.3438 34.8061 33.1639 34.8061 34.1719C34.8061 35.1799 33.986 36 32.9779 36ZM21.371 45.7123C21.7678 45.3157 22.4107 45.3157 22.8074 45.7123C23.204 46.1089 23.204 46.752 22.8074 47.1486L18.7816 51.1744C18.5911 51.3648 18.3328 51.4718 18.0635 51.4718C17.7942 51.4718 17.5359 51.3648 17.3454 51.1744L15.4968 49.326C15.1002 48.9293 15.1002 48.2862 15.4968 47.8896C15.8936 47.493 16.5365 47.493 16.9332 47.8896L18.0635 49.0199L21.371 45.7123Z" fill="url(#paint0_linear)"/>
<defs>
<linearGradient id="paint0_linear" x1="48.1207" y1="61.9729" x2="15.7475" y2="23.5581" gradientUnits="userSpaceOnUse">
<stop stop-color="#62214B"/>
<stop offset="0.450757" stop-color="#E6655E"/>
<stop offset="1" stop-color="#FFAB59"/>
</linearGradient>
</defs>
</svg>
