<svg width="72" height="72" viewBox="0 0 72 72" fill="none" xmlns="http://www.w3.org/2000/svg">
<path fill-rule="evenodd" clip-rule="evenodd" d="M32.125 58.2812H47.625C49.2273 58.2812 50.5312 59.5852 50.5312 61.1875V63.125C50.5312 64.7273 49.2273 66.0312 47.625 66.0312H32.125C31.3781 66.0312 30.7029 65.7406 30.1875 65.2756C29.6721 65.7397 28.9969 66.0312 28.25 66.0312H12.75C11.1477 66.0312 9.84375 64.7273 9.84375 63.125V61.1875C9.84375 60.4406 10.1353 59.7654 10.5994 59.25C10.1353 58.7346 9.84375 58.0594 9.84375 57.3125V55.375C9.84375 54.6281 10.1353 53.9529 10.5994 53.4375C10.1353 52.9221 9.84375 52.2469 9.84375 51.5V49.5625C9.84375 47.9602 11.1477 46.6562 12.75 46.6562H13.2818C8.91956 44.1462 5.96875 39.4468 5.96875 34.0625C5.96875 26.05 12.4875 19.5312 20.5 19.5312C22.5082 19.5312 24.4225 19.941 26.1643 20.6812C28.6559 11.9643 36.5115 5.96875 45.6875 5.96875C56.9056 5.96875 66.0312 15.0944 66.0312 26.3125C66.0312 37.5297 56.9056 46.6562 45.6875 46.6562C40.9193 46.6562 36.3613 44.9716 32.7033 41.922C31.444 43.8711 29.7341 45.4967 27.7182 46.6562H28.25C29.8523 46.6562 31.1562 47.9602 31.1562 49.5625V51.5C31.1562 52.2469 30.8656 52.9221 30.4006 53.4375C30.8647 53.9529 31.1562 54.6281 31.1562 55.375V57.3125C31.1562 57.7727 31.039 58.2028 30.8472 58.5903C31.2347 58.3985 31.6648 58.2812 32.125 58.2812ZM11.7812 57.3125C11.7812 57.8473 12.2162 58.2812 12.75 58.2812H28.25C28.7838 58.2812 29.2188 57.8473 29.2188 57.3125V55.375C29.2188 54.8402 28.7838 54.4062 28.25 54.4062H27.2812V54.8125H25.3438V54.4062H23.4062V54.8125H21.4688V54.4062H19.5312V54.8125H17.5938V54.4062H15.6562V54.8125H13.7188V54.4062H12.75C12.2162 54.4062 11.7812 54.8402 11.7812 55.375V57.3125ZM64.0938 26.3125C64.0938 16.1629 55.8371 7.90625 45.6875 7.90625C37.2545 7.90625 30.0567 13.5037 27.9235 21.5937C32.1715 24.1328 35.0312 28.7644 35.0312 34.0625C35.0312 36.2538 34.5294 38.326 33.6576 40.1908C37.0123 43.1058 41.2497 44.7188 45.6875 44.7188C55.8371 44.7188 64.0938 36.4621 64.0938 26.3125ZM20.5 21.4688C13.556 21.4688 7.90625 27.1185 7.90625 34.0625C7.90625 41.0065 13.556 46.6562 20.5 46.6562C27.444 46.6562 33.0938 41.0065 33.0938 34.0625C33.0938 27.1185 27.444 21.4688 20.5 21.4688ZM12.75 48.5938C12.2162 48.5938 11.7812 49.0277 11.7812 49.5625V51.5C11.7812 52.0348 12.2162 52.4688 12.75 52.4688H28.25C28.7838 52.4688 29.2188 52.0348 29.2188 51.5V49.5625C29.2188 49.0277 28.7838 48.5938 28.25 48.5938H27.2812V49H25.3438V48.5938H23.4062V49H21.4688V48.5938H19.5312V49H17.5938V48.5938H15.6562V49H13.7188V48.5938H12.75ZM11.7812 63.125C11.7812 63.6598 12.2162 64.0938 12.75 64.0938H28.25C28.7838 64.0938 29.2188 63.6598 29.2188 63.125V61.1875C29.2188 60.6527 28.7838 60.2188 28.25 60.2188H27.2812V60.625H25.3438V60.2188H23.4062V60.625H21.4688V60.2188H19.5312V60.625H17.5938V60.2188H15.6562V60.625H13.7188V60.2188H12.75C12.2162 60.2188 11.7812 60.6527 11.7812 61.1875V63.125ZM47.625 64.0938C48.1588 64.0938 48.5938 63.6598 48.5938 63.125V61.1875C48.5938 60.6527 48.1588 60.2188 47.625 60.2188H46.6562V60.625H44.7188V60.2188H42.7812V60.625H40.8438V60.2188H38.9062V60.625H36.9688V60.2188H35.0312V60.625H33.0938V60.2188H32.125C31.5912 60.2188 31.1562 60.6527 31.1562 61.1875V63.125C31.1562 63.6598 31.5912 64.0938 32.125 64.0938H47.625ZM9.84375 34.0625C9.84375 28.187 14.6245 23.4062 20.5 23.4062C26.3755 23.4062 31.1562 28.187 31.1562 34.0625C31.1562 39.938 26.3755 44.7188 20.5 44.7188C14.6245 44.7188 9.84375 39.938 9.84375 34.0625ZM11.7812 34.0625C11.7812 38.8704 15.6931 42.7812 20.5 42.7812C25.3069 42.7812 29.2188 38.8704 29.2188 34.0625C29.2188 29.2556 25.3069 25.3438 20.5 25.3438C15.6931 25.3438 11.7812 29.2556 11.7812 34.0625ZM23.6694 30.1937H21.9733C22.2799 30.6016 22.474 31.1003 22.5554 31.6896H24L23.6694 32.8832H22.577C22.4908 33.7798 22.153 34.4547 21.5637 34.908C20.9743 35.3613 20.155 35.5879 19.1057 35.5879L22.6489 39.9093V40H21.0175L17.2084 35.3386L17.2012 34.3942H18.9908C19.5897 34.3892 20.076 34.2532 20.4497 33.9863C20.8234 33.7143 21.0606 33.3466 21.1612 32.8832H17L17.3306 31.6896H21.1468C20.9168 30.7326 20.2125 30.234 19.0339 30.1937H17.0144L17.3522 29H24L23.6694 30.1937ZM41.5704 10.363L42.0548 12.2385C37.615 13.3816 33.9357 16.6056 32.2123 20.8633L30.4163 20.1367C32.3683 15.3124 36.5388 11.6582 41.5704 10.363ZM45.6875 11.7812V9.84375C44.9987 9.84375 44.3061 9.88637 43.6299 9.97162L43.8701 11.8936C44.4679 11.819 45.0791 11.7812 45.6875 11.7812ZM53.9238 40.5764L52.9531 38.9004C57.4346 36.3071 60.2188 31.4837 60.2188 26.3125H62.1562C62.1562 32.1734 59.002 37.6391 53.9238 40.5764ZM49.3203 40.3855L49.8037 42.263C50.5032 42.0818 51.1958 41.8542 51.8633 41.5839L51.1357 39.7878C50.5487 40.0252 49.9374 40.2267 49.3203 40.3855ZM50.5312 27.2812C52.6683 27.2812 54.4062 29.0192 54.4062 31.1562C54.4062 33.2933 52.6683 35.0312 50.5312 35.0312C48.3942 35.0312 46.6562 33.2933 46.6562 31.1562C46.6562 29.0192 48.3942 27.2812 50.5312 27.2812ZM50.5312 29.2188C49.4627 29.2188 48.5938 30.0877 48.5938 31.1562C48.5938 32.2248 49.4627 33.0938 50.5312 33.0938C51.5998 33.0938 52.4688 32.2248 52.4688 31.1562C52.4688 30.0877 51.5998 29.2188 50.5312 29.2188ZM36.9688 21.4688C36.9688 23.6058 38.7067 25.3438 40.8438 25.3438C42.9808 25.3438 44.7188 23.6058 44.7188 21.4688C44.7188 19.3317 42.9808 17.5938 40.8438 17.5938C38.7067 17.5938 36.9688 19.3317 36.9688 21.4688ZM42.7812 21.4688C42.7812 22.5373 41.9123 23.4062 40.8438 23.4062C39.7752 23.4062 38.9062 22.5373 38.9062 21.4688C38.9062 20.4002 39.7752 19.5312 40.8438 19.5312C41.9123 19.5312 42.7812 20.4002 42.7812 21.4688ZM54.6817 15.9436L35.3098 35.3155L36.6796 36.6853L56.0515 17.3134L54.6817 15.9436Z" fill="url(#paint0_linear)"/>
<defs>
<linearGradient id="paint0_linear" x1="50" y1="66" x2="12.6074" y2="21.629" gradientUnits="userSpaceOnUse">
<stop stop-color="#62214B"/>
<stop offset="0.450757" stop-color="#E6655E"/>
<stop offset="1" stop-color="#FFAB59"/>
</linearGradient>
</defs>
</svg>
