<svg width="72" height="72" viewBox="0 0 72 72" fill="none" xmlns="http://www.w3.org/2000/svg">
<path d="M56.3474 14.0523C50.4735 14.0523 45.6947 18.831 45.6947 24.7049C45.6947 26.5782 46.1881 28.4209 47.1215 30.0338C47.3783 30.4776 47.9465 30.629 48.39 30.3722C48.8338 30.1153 48.9854 29.5474 48.7284 29.1037C47.9583 27.773 47.5513 26.252 47.5513 24.7049C47.5513 19.8548 51.4972 15.909 56.3473 15.909C61.1974 15.909 65.1433 19.8549 65.1433 24.7049C65.1433 29.5549 61.1975 33.5007 56.3474 33.5007C54.5846 33.5007 52.8841 32.9815 51.4301 31.9992C51.0051 31.7121 50.4281 31.8239 50.1411 32.2487C49.8542 32.6736 49.9659 33.2507 50.3908 33.5378C52.153 34.7283 54.2127 35.3576 56.3474 35.3576C62.2212 35.3576 67 30.5789 67 24.705C67 18.8311 62.2213 14.0523 56.3474 14.0523Z" fill="url(#paint0_linear)"/>
<path d="M59.6256 20.666H57.9194C58.2279 21.0578 58.4231 21.5366 58.505 22.1024H59.9582L59.6256 23.2486H58.5267C58.44 24.1095 58.1002 24.7576 57.5073 25.1929C56.9145 25.6281 56.0903 25.8458 55.0348 25.8458L58.599 29.9954V30.0824H56.9579L53.1261 25.6064L53.1189 24.6995H54.9191C55.5216 24.6947 56.0108 24.5641 56.3867 24.3078C56.7627 24.0466 57.0012 23.6936 57.1025 23.2486H52.9164L53.249 22.1024H57.088C56.8567 21.1835 56.1481 20.7047 54.9625 20.666H52.9309L53.2707 19.5198H59.9582L59.6256 20.666Z" fill="url(#paint1_linear)"/>
<path fill-rule="evenodd" clip-rule="evenodd" d="M12.4618 34.4028C17.1033 29.7614 23.3967 27.1513 29.9607 27.1455C36.5247 27.1513 42.8182 29.7614 47.4596 34.4028C52.1011 39.0443 54.7112 45.3378 54.7169 51.9018C54.7169 52.1644 54.6126 52.4163 54.4269 52.602C54.2412 52.7877 53.9893 52.892 53.7267 52.892H45.8047C45.5421 52.892 45.2902 52.7877 45.1045 52.602C44.9188 52.4163 44.8145 52.1644 44.8145 51.9018C44.819 48.4748 43.6323 45.1528 41.4575 42.5043L36.2092 48.931C36.9195 50.4148 37.0823 52.102 36.6686 53.6942C36.2549 55.2864 35.2916 56.681 33.9488 57.6315C32.606 58.5818 30.9705 59.0268 29.3313 58.8876C27.6921 58.7484 26.155 58.034 24.9918 56.8707C23.8285 55.7075 23.1141 54.1704 22.9749 52.5312C22.8357 50.892 23.2806 49.2564 24.231 47.9137C25.1814 46.5709 26.5761 45.6075 28.1683 45.1939C29.7605 44.7802 31.4477 44.9429 32.9315 45.6533L39.3582 40.405C37.1825 38.6245 34.546 37.4983 31.7554 37.1573C28.9648 36.8164 26.1348 37.2747 23.5944 38.479C21.0541 39.6833 18.9078 41.5841 17.4053 43.9603C15.9028 46.3365 15.1058 49.0904 15.107 51.9018C15.107 52.1644 15.0027 52.4163 14.817 52.602C14.6313 52.7877 14.3794 52.892 14.1168 52.892H6.19478C5.93215 52.892 5.68027 52.7877 5.49457 52.602C5.30886 52.4163 5.20453 52.1644 5.20453 51.9018C5.2103 45.3378 7.82039 39.0443 12.4618 34.4028ZM7.20483 50.9115H13.1562C13.2898 48.6308 13.8932 46.4024 14.9288 44.366L9.75967 41.3853C8.22065 44.3353 7.34848 47.5873 7.20483 50.9115ZM10.7598 39.6722L15.919 42.6528C17.1747 40.747 18.8013 39.1136 20.7019 37.8501L17.7312 32.7008C14.9276 34.4894 12.5484 36.8686 10.7598 39.6722ZM22.4249 36.8599C24.465 35.8384 26.6926 35.2453 28.9705 35.117V29.1459C25.6463 29.2895 22.3943 30.1617 19.4443 31.7007L22.4249 36.8599ZM26.4597 55.4028C27.3882 56.3313 28.6476 56.853 29.9607 56.853C31.2739 56.853 32.5333 56.3313 33.4618 55.4028C34.3903 54.4743 34.912 53.2149 34.912 51.9018C34.9077 51.498 34.8579 51.0961 34.7634 50.7036L32.1294 53.9318C32.1088 53.9573 32.0856 53.9805 32.0601 54.0011C31.7881 54.2929 31.4601 54.5271 31.0957 54.6894C30.7313 54.8518 30.3379 54.9391 29.939 54.9461C29.5402 54.9532 29.1439 54.8798 28.774 54.7304C28.4041 54.581 28.0681 54.3586 27.786 54.0765C27.5039 53.7944 27.2815 53.4584 27.1321 53.0885C26.9827 52.7185 26.9093 52.3223 26.9163 51.9235C26.9234 51.5246 27.0107 51.1312 27.1731 50.7668C27.3354 50.4024 27.5695 50.0744 27.8614 49.8024C27.882 49.7769 27.9052 49.7537 27.9307 49.7331L31.1589 47.099C30.7664 47.0046 30.3645 46.9548 29.9607 46.9505C28.6476 46.9505 27.3882 47.4722 26.4597 48.4007C25.5311 49.3292 25.0095 50.5886 25.0095 51.9018C25.0095 53.2149 25.5311 54.4743 26.4597 55.4028ZM29.9402 52.8832C30.1942 52.8886 30.4413 52.8001 30.6341 52.6345L36.8529 45.0096L29.228 51.2284C29.0617 51.4132 28.97 51.6532 28.9705 51.9018C28.9692 52.0322 28.9939 52.1615 29.0432 52.2822C29.0925 52.403 29.1654 52.5126 29.2577 52.6048C29.4431 52.7786 29.6862 52.8777 29.9402 52.8832ZM30.951 29.1459V35.117C33.2289 35.2453 35.4565 35.8384 37.4965 36.8599L40.4772 31.7007C37.5272 30.1617 34.2752 29.2895 30.951 29.1459ZM42.725 40.9496C43.1868 41.4894 43.6135 42.0583 44.0025 42.6528L49.1616 39.6722C47.3731 36.8686 44.9939 34.4894 42.1903 32.7008L39.2196 37.8501C39.8062 38.2484 40.3683 38.6816 40.903 39.1474L43.2004 37.2758C43.389 37.1184 43.6297 37.0373 43.8752 37.0484C44.1206 37.0595 44.353 37.162 44.5268 37.3357C44.7005 37.5094 44.803 37.7419 44.8141 37.9873C44.8251 38.2327 44.7441 38.4734 44.5867 38.6621L42.725 40.9496ZM44.9927 44.366C46.0282 46.4024 46.6317 48.6308 46.7652 50.9115H52.7166C52.573 47.5873 51.7008 44.3353 50.1618 41.3853L44.9927 44.366Z" fill="url(#paint2_linear)"/>
<defs>
<linearGradient id="paint0_linear" x1="67.0504" y1="36.5809" x2="51.6149" y2="19.721" gradientUnits="userSpaceOnUse">
<stop stop-color="#62214B"/>
<stop offset="0.399987" stop-color="#E6655E"/>
<stop offset="1" stop-color="#FFAB59"/>
</linearGradient>
<linearGradient id="paint1_linear" x1="67.0504" y1="36.5809" x2="51.6149" y2="19.721" gradientUnits="userSpaceOnUse">
<stop stop-color="#62214B"/>
<stop offset="0.399987" stop-color="#E6655E"/>
<stop offset="1" stop-color="#FFAB59"/>
</linearGradient>
<linearGradient id="paint2_linear" x1="67.0504" y1="36.5809" x2="51.6149" y2="19.721" gradientUnits="userSpaceOnUse">
<stop stop-color="#62214B"/>
<stop offset="0.399987" stop-color="#E6655E"/>
<stop offset="1" stop-color="#FFAB59"/>
</linearGradient>
</defs>
</svg>
