<svg width="72" height="72" viewBox="0 0 72 72" fill="none" xmlns="http://www.w3.org/2000/svg">
<path fill-rule="evenodd" clip-rule="evenodd" d="M43.6598 12.9423H56.7986C59.115 12.9423 60.9997 14.7545 61 16.9814V56.9609C61 59.1878 59.1153 61 56.7989 61H14.2011C11.8847 61 10 59.1878 10 56.9612V16.9814C10 14.7545 11.8847 12.9423 14.2011 12.9423H27.3399V10.9808C27.3399 10.4386 27.7966 10 28.3599 10C28.9232 10 29.3799 10.4386 29.3799 10.9808V12.9423H41.6198V10.9808C41.6198 10.4386 42.0765 10 42.6398 10C43.2031 10 43.6598 10.4386 43.6598 10.9808V12.9423ZM27.3399 14.9038H14.2011C13.0092 14.9038 12.04 15.8358 12.04 16.9814V24.7115H58.9598V16.9814C58.9598 15.8358 57.9905 14.9038 56.7986 14.9038H43.6598V18.1181C44.267 18.4579 44.6798 19.0834 44.6798 19.8077C44.6798 20.891 43.7664 21.7692 42.6398 21.7692C41.5133 21.7692 40.5998 20.891 40.5998 19.8077C40.5998 19.0834 41.0127 18.4579 41.6198 18.1181V14.9038H29.3799V18.1181C29.9871 18.4579 30.3999 19.0834 30.3999 19.8077C30.3999 20.891 29.4865 21.7692 28.3599 21.7692C27.2333 21.7692 26.3199 20.891 26.3199 19.8077C26.3199 19.0834 26.7328 18.4579 27.3399 18.1181V14.9038ZM54.8798 26.6731H16.12V53.6594C16.12 54.4622 16.799 55.1154 17.6336 55.1154H53.3661C54.201 55.1154 54.8798 54.4619 54.8798 53.6594V26.6731ZM14.2011 59.0385H56.7986C57.9905 59.0385 58.9598 58.1065 58.96 56.9609V26.6731H56.92V53.6594C56.92 55.5435 55.3258 57.0769 53.3664 57.0769H17.6336C15.6742 57.0769 14.08 55.5435 14.08 53.6594V26.6731H12.04V56.9609C12.04 58.1065 13.0092 59.0385 14.2011 59.0385ZM38.8826 36.43L40.5998 35.8803V47.2692H39.5798C39.0165 47.2692 38.5598 47.7079 38.5598 48.25C38.5598 48.7921 39.0165 49.2308 39.5798 49.2308H43.6598C44.2231 49.2308 44.6798 48.7921 44.6798 48.25C44.6798 47.7079 44.2231 47.2692 43.6598 47.2692H42.6398V34.5192C42.6398 34.2042 42.4825 33.9082 42.216 33.7233C41.9495 33.5385 41.6068 33.4867 41.297 33.5892L38.237 34.57C37.7025 34.7404 37.4136 35.296 37.5921 35.8104C37.7698 36.3236 38.3471 36.6024 38.8826 36.43ZM31.4662 47.2692H27.3398C26.7765 47.2692 26.3198 47.7079 26.3198 48.25C26.3198 48.7921 26.7765 49.2308 27.3398 49.2308H31.4662C33.6906 49.2308 35.4998 47.3048 35.4998 44.9379V43.7159C35.4998 42.4348 34.9589 41.2959 34.1197 40.5085C34.9589 39.8733 35.4998 38.954 35.4998 37.9203V37.0028C35.4998 35.093 33.6903 33.5385 31.4662 33.5385H27.3398C26.7765 33.5385 26.3198 33.9771 26.3198 34.5192C26.3198 35.0614 26.7765 35.5 27.3398 35.5H31.4662C32.5655 35.5 33.4598 36.1743 33.4598 37.0028V37.9203C33.4598 38.7488 32.5653 39.4231 31.4662 39.4231H29.3798H28.3598C27.7965 39.4231 27.3398 39.8617 27.3398 40.4038C27.3398 40.946 27.7965 41.3846 28.3598 41.3846H29.3798H31.4662C32.5655 41.3846 33.4598 42.4306 33.4598 43.7159V44.9379C33.4598 46.2232 32.5653 47.2692 31.4662 47.2692Z" fill="url(#paint0_linear)"/>
<defs>
<linearGradient id="paint0_linear" x1="47.3876" y1="60.9735" x2="15.637" y2="23.2973" gradientUnits="userSpaceOnUse">
<stop stop-color="#62214B"/>
<stop offset="0.450757" stop-color="#E6655E"/>
<stop offset="1" stop-color="#FFAB59"/>
</linearGradient>
</defs>
</svg>
