<svg width="72" height="72" viewBox="0 0 72 72" fill="none" xmlns="http://www.w3.org/2000/svg">
<path fill-rule="evenodd" clip-rule="evenodd" d="M45.0921 56.2018C45.0921 56.6512 44.7277 57.0156 44.2783 57.0156H10.0399C7.81241 57.0156 6 55.1901 6 52.9465V17.1382C6 14.8947 7.81241 13.0691 10.0399 13.0691H14.0797V11.4415C14.0797 10.0952 15.167 9 16.5036 9C17.8403 9 18.9276 10.0952 18.9276 11.4415V13.0691H22.9674V11.4415C22.9674 10.0952 24.0547 9 25.3913 9C26.728 9 27.8153 10.0952 27.8153 11.4415V13.0691H32.6631V11.4415C32.6631 10.0952 33.7504 9 35.087 9C36.4236 9 37.5109 10.0952 37.5109 11.4415V13.0691H41.5508V11.4415C41.5508 10.0952 42.6381 9 43.9747 9C45.3113 9 46.3986 10.0952 46.3986 11.4415V13.0691H50.4385C52.6659 13.0691 54.4783 14.8947 54.4783 17.1382V43.1345C54.4783 43.5807 54.1166 43.9425 53.6704 43.9425C53.2241 43.9425 52.8624 43.5807 52.8624 43.1345V22.835H7.61594V52.9465C7.61594 54.2928 8.70323 55.3879 10.0399 55.3879H44.2783C44.7277 55.3879 45.0921 55.7523 45.0921 56.2018ZM43.9747 10.6276C43.5289 10.6276 43.1667 10.9924 43.1667 11.4415V16.3244C43.1667 16.7734 43.5289 17.1382 43.9747 17.1382C44.4205 17.1382 44.7827 16.7734 44.7827 16.3244V11.4415C44.7827 10.9924 44.4205 10.6276 43.9747 10.6276ZM35.087 10.6276C34.6412 10.6276 34.279 10.9924 34.279 11.4415V16.3244C34.279 16.7734 34.6412 17.1382 35.087 17.1382C35.5328 17.1382 35.895 16.7734 35.895 16.3244V11.4415C35.895 10.9924 35.5328 10.6276 35.087 10.6276ZM25.3913 10.6276C24.9455 10.6276 24.5834 10.9924 24.5834 11.4415V16.3244C24.5834 16.7734 24.9455 17.1382 25.3913 17.1382C25.8371 17.1382 26.1993 16.7734 26.1993 16.3244V11.4415C26.1993 10.9924 25.8371 10.6276 25.3913 10.6276ZM16.5036 10.6276C16.0578 10.6276 15.6957 10.9924 15.6957 11.4415V16.3244C15.6957 16.7734 16.0578 17.1382 16.5036 17.1382C16.9494 17.1382 17.3116 16.7734 17.3116 16.3244V11.4415C17.3116 10.9924 16.9494 10.6276 16.5036 10.6276ZM14.0797 14.6968H10.0399C8.70323 14.6968 7.61594 15.7919 7.61594 17.1382V21.2074H52.8624V17.1382C52.8624 15.7919 51.7751 14.6968 50.4385 14.6968H46.3986V16.3244C46.3986 17.6707 45.3113 18.7659 43.9747 18.7659C42.6381 18.7659 41.5508 17.6707 41.5508 16.3244V14.6968H37.5109V16.3244C37.5109 17.6707 36.4236 18.7659 35.087 18.7659C33.7504 18.7659 32.6631 17.6707 32.6631 16.3244V14.6968H27.8153V16.3244C27.8153 17.6707 26.728 18.7659 25.3913 18.7659C24.0547 18.7659 22.9674 17.6707 22.9674 16.3244V14.6968H18.9276V16.3244C18.9276 17.6707 17.8403 18.7659 16.5036 18.7659C15.167 18.7659 14.0797 17.6707 14.0797 16.3244V14.6968Z" fill="url(#paint0_linear)"/>
<path fill-rule="evenodd" clip-rule="evenodd" d="M21.3515 24.4626C20.9049 24.4626 20.5435 24.8266 20.5435 25.2765V31.7871C20.5435 32.2369 20.9049 32.6009 21.3515 32.6009H27.8153C28.2618 32.6009 28.6232 32.2369 28.6232 31.7871V25.2765C28.6232 24.8266 28.2618 24.4626 27.8153 24.4626H21.3515ZM22.1594 30.9732V26.0903H27.0073V30.9732H22.1594Z" fill="url(#paint1_linear)"/>
<path fill-rule="evenodd" clip-rule="evenodd" d="M32.6631 24.4626C32.2165 24.4626 31.8551 24.8266 31.8551 25.2765V31.7871C31.8551 32.2369 32.2165 32.6009 32.6631 32.6009H39.1269C39.5735 32.6009 39.9348 32.2369 39.9348 31.7871V25.2765C39.9348 24.8266 39.5735 24.4626 39.1269 24.4626H32.6631ZM33.4711 30.9732V26.0903H38.3189V30.9732H33.4711Z" fill="url(#paint2_linear)"/>
<path fill-rule="evenodd" clip-rule="evenodd" d="M43.9747 24.4626H50.4385C50.8851 24.4626 51.2465 24.8266 51.2465 25.2765V31.7871C51.2465 32.2369 50.8851 32.6009 50.4385 32.6009H43.9747C43.5281 32.6009 43.1667 32.2369 43.1667 31.7871V25.2765C43.1667 24.8266 43.5281 24.4626 43.9747 24.4626ZM44.7827 30.9732H49.6305V26.0903H44.7827V30.9732Z" fill="url(#paint3_linear)"/>
<path fill-rule="evenodd" clip-rule="evenodd" d="M16.5036 35.0424H10.0399C9.59327 35.0424 9.23189 35.4064 9.23189 35.8562V42.3668C9.23189 42.8166 9.59327 43.1806 10.0399 43.1806H16.5036C16.9502 43.1806 17.3116 42.8166 17.3116 42.3668V35.8562C17.3116 35.4064 16.9502 35.0424 16.5036 35.0424ZM12.1292 39.1115L10.8478 40.4022V37.8208L12.1292 39.1115ZM14.5531 36.67L13.2718 37.9607L11.9904 36.67H14.5531ZM13.2718 40.2623L14.5531 41.5529H11.9904L13.2718 40.2623ZM14.4143 39.1115L15.6957 37.8208V40.4022L14.4143 39.1115Z" fill="url(#paint4_linear)"/>
<path fill-rule="evenodd" clip-rule="evenodd" d="M20.5435 35.8562C20.5435 35.4064 20.9049 35.0424 21.3515 35.0424H27.8153C28.2618 35.0424 28.6232 35.4064 28.6232 35.8562V42.3668C28.6232 42.8166 28.2618 43.1806 27.8153 43.1806H21.3515C20.9049 43.1806 20.5435 42.8166 20.5435 42.3668V35.8562ZM22.1594 40.4022L23.4408 39.1115L22.1594 37.8208V40.4022ZM24.5834 37.9607L25.8648 36.67H23.302L24.5834 37.9607ZM25.8648 41.5529L24.5834 40.2623L23.302 41.5529H25.8648ZM27.0073 37.8208L25.7259 39.1115L27.0073 40.4022V37.8208Z" fill="url(#paint5_linear)"/>
<path fill-rule="evenodd" clip-rule="evenodd" d="M32.6631 35.0424C32.2165 35.0424 31.8551 35.4064 31.8551 35.8562V42.3668C31.8551 42.8166 32.2165 43.1806 32.6631 43.1806H39.1269C39.5735 43.1806 39.9348 42.8166 39.9348 42.3668V35.8562C39.9348 35.4064 39.5735 35.0424 39.1269 35.0424H32.6631ZM34.7525 39.1115L33.4711 40.4022V37.8208L34.7525 39.1115ZM37.1764 36.67L35.895 37.9607L34.6136 36.67H37.1764ZM35.895 40.2623L37.1764 41.5529H34.6136L35.895 40.2623ZM37.0375 39.1115L38.3189 37.8208V40.4022L37.0375 39.1115Z" fill="url(#paint6_linear)"/>
<path fill-rule="evenodd" clip-rule="evenodd" d="M43.9747 35.0424H50.4385C50.8851 35.0424 51.2465 35.4064 51.2465 35.8562V42.3668C51.2465 42.8166 50.8851 43.1806 50.4385 43.1806H43.9747C43.5281 43.1806 43.1667 42.8166 43.1667 42.3668V35.8562C43.1667 35.4064 43.5281 35.0424 43.9747 35.0424ZM44.7827 41.5529H49.6305V36.67H44.7827V41.5529Z" fill="url(#paint7_linear)"/>
<path fill-rule="evenodd" clip-rule="evenodd" d="M10.0399 45.6221C9.59327 45.6221 9.23189 45.9861 9.23189 46.4359V52.9465C9.23189 53.3963 9.59327 53.7603 10.0399 53.7603H16.5036C16.9502 53.7603 17.3116 53.3963 17.3116 52.9465V46.4359C17.3116 45.9861 16.9502 45.6221 16.5036 45.6221H10.0399ZM10.8478 52.1327V47.2497H15.6957V52.1327H10.8478Z" fill="url(#paint8_linear)"/>
<path fill-rule="evenodd" clip-rule="evenodd" d="M20.5435 46.4359C20.5435 45.9861 20.9049 45.6221 21.3515 45.6221H27.8153C28.2618 45.6221 28.6232 45.9861 28.6232 46.4359V52.9465C28.6232 53.3963 28.2618 53.7603 27.8153 53.7603H21.3515C20.9049 53.7603 20.5435 53.3963 20.5435 52.9465V46.4359ZM22.1594 47.2497V52.1327H27.0073V47.2497H22.1594Z" fill="url(#paint9_linear)"/>
<path fill-rule="evenodd" clip-rule="evenodd" d="M32.6631 45.6221C32.2165 45.6221 31.8551 45.9861 31.8551 46.4359V52.9465C31.8551 53.3963 32.2165 53.7603 32.6631 53.7603H39.1269C39.5735 53.7603 39.9348 53.3963 39.9348 52.9465V46.4359C39.9348 45.9861 39.5735 45.6221 39.1269 45.6221H32.6631ZM33.4711 52.1327V47.2497H38.3189V52.1327H33.4711Z" fill="url(#paint10_linear)"/>
<path d="M65.4459 52.6312C63.7472 47.316 58.179 44.2759 53.0335 45.8545C51.3924 46.358 49.9209 47.2996 48.778 48.5778C48.4634 48.9295 48.4951 49.4843 48.8484 49.8166C49.2017 50.1491 49.743 50.1337 50.0574 49.7819C51.0004 48.7274 52.2151 47.9503 53.5704 47.5345C57.8191 46.2311 62.4167 48.7413 63.8193 53.1301C65.222 57.5189 62.9065 62.1499 58.6579 63.4533C54.4093 64.7568 49.8116 62.2467 48.4089 57.8579C47.8992 56.2628 47.8623 54.5845 48.3023 53.0047C48.4308 52.5431 48.166 52.0509 47.7109 51.9054C47.2557 51.76 46.7825 52.0161 46.6539 52.4778C46.1206 54.3923 46.165 56.4252 46.7823 58.3569C48.481 63.672 54.0491 66.7121 59.1947 65.1335C64.3403 63.5549 67.1446 57.9464 65.4459 52.6312Z" fill="url(#paint11_linear)"/>
<path d="M59.1444 51.2438H57.5584C57.8451 51.6106 58.0266 52.0589 58.1027 52.5887H59.4535L59.1444 53.6619H58.1229C58.0422 54.4679 57.7264 55.0746 57.1753 55.4822C56.6243 55.8897 55.8582 56.0935 54.877 56.0935L58.1901 59.9786V60.0601H56.6646L53.1028 55.8693L53.0961 55.0203H54.7695C55.3295 55.0158 55.7842 54.8935 56.1337 54.6535C56.4831 54.409 56.7049 54.0784 56.799 53.6619H52.908L53.2171 52.5887H56.7856C56.5705 51.7284 55.9119 51.2801 54.8098 51.2438H52.9214L53.2373 50.1707H59.4535L59.1444 51.2438Z" fill="url(#paint12_linear)"/>
<defs>
<linearGradient id="paint0_linear" x1="65.8544" y1="65.5507" x2="7.15546" y2="28.0523" gradientUnits="userSpaceOnUse">
<stop stop-color="#62214B"/>
<stop offset="0.450757" stop-color="#E6655E"/>
<stop offset="1" stop-color="#FFAB59"/>
</linearGradient>
<linearGradient id="paint1_linear" x1="65.8544" y1="65.5507" x2="7.15546" y2="28.0523" gradientUnits="userSpaceOnUse">
<stop stop-color="#62214B"/>
<stop offset="0.450757" stop-color="#E6655E"/>
<stop offset="1" stop-color="#FFAB59"/>
</linearGradient>
<linearGradient id="paint2_linear" x1="65.8544" y1="65.5507" x2="7.15546" y2="28.0523" gradientUnits="userSpaceOnUse">
<stop stop-color="#62214B"/>
<stop offset="0.450757" stop-color="#E6655E"/>
<stop offset="1" stop-color="#FFAB59"/>
</linearGradient>
<linearGradient id="paint3_linear" x1="65.8544" y1="65.5507" x2="7.15546" y2="28.0523" gradientUnits="userSpaceOnUse">
<stop stop-color="#62214B"/>
<stop offset="0.450757" stop-color="#E6655E"/>
<stop offset="1" stop-color="#FFAB59"/>
</linearGradient>
<linearGradient id="paint4_linear" x1="65.8544" y1="65.5507" x2="7.15546" y2="28.0523" gradientUnits="userSpaceOnUse">
<stop stop-color="#62214B"/>
<stop offset="0.450757" stop-color="#E6655E"/>
<stop offset="1" stop-color="#FFAB59"/>
</linearGradient>
<linearGradient id="paint5_linear" x1="65.8544" y1="65.5507" x2="7.15546" y2="28.0523" gradientUnits="userSpaceOnUse">
<stop stop-color="#62214B"/>
<stop offset="0.450757" stop-color="#E6655E"/>
<stop offset="1" stop-color="#FFAB59"/>
</linearGradient>
<linearGradient id="paint6_linear" x1="65.8544" y1="65.5507" x2="7.15546" y2="28.0523" gradientUnits="userSpaceOnUse">
<stop stop-color="#62214B"/>
<stop offset="0.450757" stop-color="#E6655E"/>
<stop offset="1" stop-color="#FFAB59"/>
</linearGradient>
<linearGradient id="paint7_linear" x1="65.8544" y1="65.5507" x2="7.15546" y2="28.0523" gradientUnits="userSpaceOnUse">
<stop stop-color="#62214B"/>
<stop offset="0.450757" stop-color="#E6655E"/>
<stop offset="1" stop-color="#FFAB59"/>
</linearGradient>
<linearGradient id="paint8_linear" x1="65.8544" y1="65.5507" x2="7.15546" y2="28.0523" gradientUnits="userSpaceOnUse">
<stop stop-color="#62214B"/>
<stop offset="0.450757" stop-color="#E6655E"/>
<stop offset="1" stop-color="#FFAB59"/>
</linearGradient>
<linearGradient id="paint9_linear" x1="65.8544" y1="65.5507" x2="7.15546" y2="28.0523" gradientUnits="userSpaceOnUse">
<stop stop-color="#62214B"/>
<stop offset="0.450757" stop-color="#E6655E"/>
<stop offset="1" stop-color="#FFAB59"/>
</linearGradient>
<linearGradient id="paint10_linear" x1="65.8544" y1="65.5507" x2="7.15546" y2="28.0523" gradientUnits="userSpaceOnUse">
<stop stop-color="#62214B"/>
<stop offset="0.450757" stop-color="#E6655E"/>
<stop offset="1" stop-color="#FFAB59"/>
</linearGradient>
<linearGradient id="paint11_linear" x1="65.8544" y1="65.5507" x2="7.15546" y2="28.0523" gradientUnits="userSpaceOnUse">
<stop stop-color="#62214B"/>
<stop offset="0.450757" stop-color="#E6655E"/>
<stop offset="1" stop-color="#FFAB59"/>
</linearGradient>
<linearGradient id="paint12_linear" x1="65.8544" y1="65.5507" x2="7.15546" y2="28.0523" gradientUnits="userSpaceOnUse">
<stop stop-color="#62214B"/>
<stop offset="0.450757" stop-color="#E6655E"/>
<stop offset="1" stop-color="#FFAB59"/>
</linearGradient>
</defs>
</svg>
