<svg width="72" height="72" viewBox="0 0 72 72" fill="none" xmlns="http://www.w3.org/2000/svg">
<path d="M38.771 31.2842C38.7185 30.4017 37.6408 29.7121 35.4852 29.186C35.5578 29.0312 35.5986 28.8703 35.5991 28.7032V25.0947H35.5901C35.4005 22.0887 22.7523 22 21.2996 22C19.8468 22 7.1986 22.0887 7.009 25.0947H7V25.1618V28.7047C7.00265 29.6847 8.30126 30.4517 10.2333 31.0227C10.2068 31.1083 10.1909 31.1955 10.1856 31.2842H10.1777V31.3513V34.888C8.0963 35.41 7.05667 36.0898 7.0053 36.9579H7V37.0249V40.5679C7.00159 41.2503 7.63342 41.829 8.66722 42.3113C8.62803 42.416 8.60367 42.5227 8.59678 42.6321H8.58884V42.6991V46.2421C8.59308 47.9576 12.5593 49.0227 16.9663 49.5199C16.9986 49.5261 17.0282 49.539 17.0626 49.539C17.0727 49.539 17.0812 49.5339 17.0912 49.5334C17.9407 49.6267 18.804 49.6994 19.6583 49.7515C19.6763 49.7536 19.6922 49.7619 19.7107 49.7619C19.7208 49.7619 19.7287 49.7567 19.7383 49.7562C20.8229 49.8201 21.8901 49.8526 22.8884 49.8526C23.8867 49.8526 24.9539 49.8201 26.0385 49.7557C26.0481 49.7562 26.0565 49.7613 26.0661 49.7613C26.0846 49.7613 26.1005 49.7526 26.1185 49.751C26.9728 49.6989 27.836 49.6267 28.6855 49.5328C28.6956 49.5328 28.7041 49.538 28.7141 49.538C28.7486 49.538 28.7782 49.5251 28.8105 49.5189C33.2174 49.0217 37.1832 47.9561 37.1879 46.24V42.6316H37.1795C37.1424 41.9992 36.589 41.4716 35.4958 41.0306C35.5626 40.8815 35.5991 40.7268 35.5991 40.5664V37.1952C37.5004 36.6257 38.7741 35.8639 38.7768 34.8927V31.2842H38.771ZM34.4827 40.734L34.3021 40.8882C34.024 41.127 33.5606 41.3679 32.951 41.6V39.1407C33.5807 38.9272 34.1167 38.6904 34.5399 38.431V40.5653C34.5399 40.6185 34.5198 40.6752 34.4827 40.734ZM22.6374 43.1309C22.56 43.1329 22.4822 43.134 22.4043 43.1355C22.2153 43.1391 22.0214 43.1401 21.8297 43.1417V40.5653C21.9753 40.5638 22.121 40.5617 22.2666 40.5591C22.2947 40.5586 22.3228 40.5581 22.3508 40.5576C22.8842 40.5478 23.4175 40.5318 23.9481 40.5081V43.0834C23.8348 43.0891 23.7209 43.0942 23.606 43.0989C23.2872 43.1128 22.9652 43.1231 22.6374 43.1309ZM20.3245 43.1381C20.082 43.134 19.8405 43.1283 19.6006 43.1211C19.5709 43.12 19.5412 43.119 19.5116 43.118C19.2229 43.1087 18.9364 43.0968 18.652 43.0834V40.5086C19.1827 40.5328 19.716 40.5488 20.2493 40.5581C20.2774 40.5586 20.3055 40.5591 20.333 40.5597C20.4787 40.5622 20.6243 40.5643 20.7699 40.5658V43.1438C20.6672 43.1427 20.5644 43.1427 20.4622 43.1412C20.4156 43.1401 20.3706 43.1386 20.3245 43.1381ZM10.7587 41.9621C10.7412 41.9569 10.7248 41.9523 10.7073 41.9476V39.4559C11.2019 39.5858 11.7337 39.7045 12.2961 39.8123V42.3298C11.8099 42.2293 11.3614 42.1235 10.953 42.0152C10.8884 41.9972 10.8217 41.9801 10.7587 41.9621ZM21.9218 46.2333C22.0675 46.2359 22.2131 46.238 22.3588 46.2395V48.818C21.6269 48.8113 20.9203 48.7906 20.2403 48.7581V46.1828C20.771 46.207 21.3043 46.223 21.8376 46.2323C21.8657 46.2323 21.8938 46.2328 21.9218 46.2333ZM23.9391 46.2318C24.4725 46.222 25.0058 46.206 25.5365 46.1823V48.7576C24.8564 48.7901 24.1499 48.8107 23.418 48.8174V46.239C23.5636 46.2375 23.7093 46.2354 23.8549 46.2328C23.883 46.2328 23.9111 46.2323 23.9391 46.2318ZM28.1845 45.9987V48.5601C27.6756 48.6122 27.146 48.6581 26.5957 48.6957V46.1235C27.1327 46.0894 27.6634 46.0477 28.1845 45.9987ZM29.2437 45.8872C29.7898 45.8233 30.3199 45.7506 30.8326 45.6696V48.2021C30.3337 48.2877 29.8035 48.3666 29.2437 48.4383V45.8872ZM31.8918 45.4854C32.4543 45.3776 32.986 45.259 33.4807 45.129V47.6208C33.0088 47.7534 32.4776 47.8818 31.8918 48.003V45.4854ZM13.885 45.4854V48.003C13.2992 47.8818 12.768 47.7534 12.2961 47.6208V45.129C12.7908 45.259 13.3225 45.3782 13.885 45.4854ZM14.9442 45.6701C15.4569 45.7511 15.987 45.8238 16.533 45.8878V48.4389C15.9732 48.3672 15.4431 48.2882 14.9442 48.2026V45.6701ZM17.5923 45.9987C18.1134 46.0477 18.6441 46.0894 19.1811 46.124V48.6962C18.6308 48.6586 18.1012 48.6127 17.5923 48.5606V45.9987ZM16.2783 42.9142C16.2243 42.9091 16.1708 42.9034 16.1173 42.8982C16.0792 42.8946 16.0416 42.89 16.0034 42.8864V40.3255C16.5246 40.3745 17.0552 40.4163 17.5923 40.4508V43.021C17.1474 42.9901 16.7078 42.955 16.2783 42.9142ZM14.9442 40.2136V42.7647C14.3844 42.693 13.8543 42.614 13.3554 42.5284V39.9959C13.868 40.0769 14.3982 40.1501 14.9442 40.2136ZM25.3596 42.9968C25.2431 43.0055 25.1255 43.0143 25.0068 43.0225V40.4503C25.5439 40.4157 26.0745 40.3745 26.5957 40.325V42.8864C26.2684 42.9199 25.9337 42.9514 25.5899 42.9787C25.5132 42.9854 25.4364 42.9911 25.3596 42.9968ZM27.6549 42.7647V40.2136C28.2009 40.1496 28.7311 40.0769 29.2437 39.9959V42.5284C28.7449 42.614 28.2147 42.6935 27.6549 42.7647ZM30.303 39.8118C30.8654 39.704 31.3972 39.5853 31.8918 39.4553V41.9471C31.4199 42.0797 30.8887 42.2081 30.303 42.3293V39.8118ZM23.0605 37.4556C22.6622 37.4458 22.273 37.4309 21.8906 37.4128C21.8699 37.4118 21.8493 37.4108 21.8292 37.4102V34.8349C22.3598 34.8591 22.8932 34.8751 23.4265 34.8844C23.4545 34.8849 23.4826 34.8855 23.5102 34.886C23.6558 34.8885 23.8014 34.8906 23.9471 34.8922V37.4675C23.6892 37.4649 23.4291 37.4639 23.1776 37.4582C23.1389 37.4572 23.0992 37.4567 23.0605 37.4556ZM10.7073 30.0845V27.5927C11.2019 27.7227 11.7337 27.8413 12.2961 27.9491V30.4667C12.231 30.4533 12.1637 30.4399 12.1002 30.4265C11.8184 30.3661 11.5436 30.3032 11.2809 30.2366C11.0807 30.1866 10.8905 30.1355 10.7073 30.0845ZM20.333 28.6965C20.4787 28.6991 20.6243 28.7011 20.7699 28.7027V31.278C20.0571 31.2713 19.3485 31.2533 18.6515 31.2192V28.6459C19.1822 28.6702 19.7155 28.6862 20.2488 28.6955C20.2769 28.6955 20.3049 28.696 20.333 28.6965ZM22.3503 28.6949C22.8836 28.6851 23.4169 28.6692 23.9476 28.6454V31.2187C23.8576 31.2228 23.7713 31.229 23.6807 31.2331C23.6733 31.2337 23.6659 31.2337 23.6579 31.2342C23.3025 31.2497 22.9403 31.261 22.5733 31.2693C22.5161 31.2708 22.4589 31.2713 22.4017 31.2729C22.2131 31.2765 22.0204 31.277 21.8292 31.2791V28.7027C21.9748 28.7011 22.1205 28.6991 22.2661 28.6965C22.2942 28.696 22.3222 28.6955 22.3503 28.6949ZM34.4186 28.9539L34.4038 28.9508L34.211 29.0967C33.9314 29.3087 33.5018 29.5233 32.951 29.7307V27.277C33.5807 27.0635 34.1167 26.8268 34.5399 26.5673V28.7017C34.5399 28.7801 34.4975 28.8646 34.4186 28.9539ZM27.6549 30.8984V28.3504C28.2009 28.2864 28.7311 28.2137 29.2437 28.1327V30.6611C28.7417 30.7478 28.2131 30.8272 27.6549 30.8984ZM30.303 30.4626V27.9491C30.8654 27.8413 31.3972 27.7227 31.8918 27.5927V30.0788C31.4173 30.2134 30.8829 30.3419 30.303 30.4626ZM26.5957 28.4618V31.0201C26.0841 31.0727 25.5545 31.1186 25.0068 31.1568V28.5871C25.5439 28.5526 26.0745 28.5108 26.5957 28.4618ZM16.0034 31.0212V28.4618C16.5246 28.5108 17.0552 28.5526 17.5923 28.5871V31.1547C17.0531 31.1171 16.5214 31.0743 16.0034 31.0212ZM14.9442 28.3504V30.8989C14.8393 30.8855 14.7302 30.8747 14.6264 30.8607C14.5586 30.8515 14.494 30.8417 14.4273 30.8324C14.1212 30.7896 13.8219 30.7437 13.5285 30.6957C13.4698 30.6859 13.4131 30.6756 13.3554 30.6658V28.1333C13.868 28.2137 14.3982 28.287 14.9442 28.3504ZM20.6386 37.3391C20.5671 37.3339 20.4951 37.3287 20.4241 37.3236C20.0851 37.2978 19.7541 37.2694 19.4311 37.238C19.3617 37.2313 19.2923 37.224 19.2235 37.2173C19.2092 37.2158 19.1954 37.2137 19.1811 37.2127V34.6513C19.7022 34.7003 20.2329 34.7421 20.7699 34.7766V37.3473C20.727 37.3442 20.6815 37.3422 20.6386 37.3391ZM17.1394 36.9538C16.9297 36.9213 16.7327 36.8862 16.533 36.8522V34.3227C17.0457 34.4037 17.5758 34.4764 18.1219 34.5404V37.0915C17.7978 37.0497 17.4805 37.0064 17.176 36.96C17.1638 36.9574 17.1516 36.9553 17.1394 36.9538ZM15.4738 34.1381V36.6515C14.8886 36.5293 14.3579 36.3993 13.885 36.2642V33.7817C14.3796 33.9116 14.9114 34.0308 15.4738 34.1381ZM12.8257 33.4665V35.917C11.9932 35.6039 11.4562 35.2842 11.2814 34.9994L11.2459 34.9417C11.2427 34.9257 11.2374 34.9087 11.2369 34.8927V32.7568C11.6601 33.0162 12.196 33.253 12.8257 33.4665ZM25.528 34.8844C26.0613 34.8746 26.5946 34.8586 27.1253 34.8349V37.4077C26.4294 37.4412 25.7218 37.4598 25.0068 37.467V34.8922C25.1525 34.8906 25.2981 34.8885 25.4438 34.886C25.4718 34.8855 25.4999 34.8849 25.528 34.8844ZM32.3722 36.8635C32.1397 36.9027 31.9051 36.9414 31.6641 36.977C31.5258 36.9976 31.3844 37.0172 31.2425 37.0368C31.1085 37.0554 30.9692 37.0714 30.8331 37.0884V34.5399C31.3791 34.4759 31.9093 34.4032 32.422 34.3222V36.8547C32.405 36.8578 32.3886 36.8609 32.3722 36.8635ZM28.7862 37.304C28.5886 37.32 28.3847 37.3303 28.1845 37.3442V34.7766C28.7215 34.7421 29.2522 34.7008 29.7734 34.6513V37.2101C29.4657 37.2416 29.1585 37.273 28.8423 37.2988C28.8232 37.3004 28.8052 37.3024 28.7862 37.304ZM34.8386 36.3369C34.5748 36.4086 34.2957 36.4756 34.0108 36.5411C33.8789 36.5711 33.7444 36.601 33.6067 36.6299C33.5659 36.6386 33.5225 36.6464 33.4812 36.6551V34.1386C34.0436 34.0308 34.5754 33.9122 35.07 33.7822V36.274C34.9938 36.2946 34.917 36.3157 34.8386 36.3369ZM37.7117 31.3177C37.663 31.668 36.8479 32.1337 35.3931 32.5716C33.5193 33.1354 30.5874 33.6517 26.8716 33.8116C26.6815 33.8193 26.4919 33.8271 26.298 33.8332C26.1397 33.8384 25.9808 33.843 25.8193 33.8472C25.3808 33.8565 24.9359 33.8632 24.4772 33.8632C24.0186 33.8632 23.5737 33.8565 23.1352 33.8467C22.9742 33.843 22.8153 33.8379 22.6564 33.8327C22.4621 33.8271 22.2725 33.8188 22.0828 33.8111C18.3671 33.6512 15.4346 33.1349 13.5614 32.5711C12.1182 32.1368 11.3047 31.6747 11.2443 31.326C11.247 31.3162 11.247 31.3079 11.2533 31.2956C11.2893 31.3043 11.3296 31.3115 11.3661 31.3203C11.5732 31.3683 11.7856 31.4147 12.0017 31.4591C13.054 31.6798 14.2202 31.8609 15.4627 31.9991C15.4669 31.9991 15.4701 32.0012 15.4738 32.0012L15.4765 32.0006C16.3228 32.0945 17.2009 32.1683 18.1023 32.2204C18.1092 32.2204 18.115 32.224 18.1219 32.224C18.1256 32.224 18.1282 32.2219 18.1319 32.2219C18.7807 32.2591 19.438 32.2864 20.1032 32.3008C20.5104 32.3106 20.9103 32.3158 21.2996 32.3158C21.5776 32.3158 21.8625 32.3127 22.1501 32.3075C25.9983 32.2498 29.5647 31.8041 32.0465 31.1135C32.1609 31.082 32.2726 31.0495 32.3828 31.017C32.45 30.9969 32.5189 30.9773 32.584 30.9572C32.7757 30.8974 32.9595 30.836 33.1369 30.772C33.1677 30.7607 33.1968 30.7493 33.2275 30.738C33.3774 30.6828 33.5214 30.6255 33.6591 30.5673C33.6989 30.5502 33.7396 30.5337 33.7783 30.5167C33.925 30.4522 34.0669 30.3862 34.1983 30.3176C34.2576 30.2872 34.309 30.2557 34.3646 30.2248C34.4281 30.1892 34.4917 30.1531 34.5505 30.1165C34.5838 30.0958 34.6236 30.0762 34.6553 30.0556C37.0264 30.5564 37.6514 31.1042 37.7117 31.3177ZM21.2996 23.0316C30.0323 23.0316 34.4493 24.3706 34.5319 25.1391C34.4678 25.4878 33.6549 25.9484 32.2154 26.3816C30.3416 26.9454 27.4097 27.4617 23.6939 27.6216C23.5038 27.6293 23.3142 27.6371 23.1204 27.6433C22.962 27.6484 22.8031 27.6531 22.6416 27.6572C22.2031 27.667 21.7582 27.6737 21.2996 27.6737C20.8409 27.6737 20.396 27.667 19.9575 27.6572C19.7965 27.6536 19.6376 27.6484 19.4787 27.6433C19.2844 27.6376 19.0948 27.6293 18.9052 27.6216C15.1894 27.4617 12.2569 26.9454 10.3837 26.3816C8.94368 25.9484 8.13125 25.4878 8.06717 25.1391C8.14979 24.3706 12.5668 23.0316 21.2996 23.0316ZM8.05923 28.7032V26.5673C8.48239 26.8268 9.01836 27.0635 9.64807 27.277V29.7466C8.61797 29.3706 8.06029 28.9936 8.05923 28.7032ZM10.6247 35.8412C10.6326 35.8495 10.6448 35.8567 10.6527 35.8649C11.3778 36.5778 12.8792 37.1379 14.7482 37.5557C14.7911 37.5655 14.8367 37.5748 14.8801 37.5846C15.0173 37.6145 15.1566 37.6439 15.2974 37.6723C17.0139 38.0282 19.063 38.2855 21.2953 38.4129C21.2969 38.4129 21.299 38.4135 21.299 38.4135L21.3011 38.4129C22.0182 38.4537 22.7518 38.4821 23.5006 38.4944C23.8322 38.5011 24.1584 38.5053 24.4772 38.5053C24.8427 38.5053 25.2176 38.5011 25.599 38.4924C26.2917 38.4784 26.9744 38.4506 27.6475 38.4124C27.6501 38.4124 27.6523 38.414 27.6549 38.414C27.6597 38.414 27.6634 38.4114 27.6681 38.4114C29.9063 38.283 32.0062 38.023 33.782 37.6491C33.3975 37.8451 32.8711 38.0478 32.2154 38.2453C30.2373 38.8405 27.0782 39.3826 23.0632 39.5085C22.944 39.5121 22.8264 39.5162 22.7057 39.5193C22.5759 39.5224 22.444 39.5245 22.3122 39.527C21.979 39.5322 21.6438 39.5368 21.2996 39.5368C20.8409 39.5368 20.396 39.5301 19.9575 39.5203C19.7965 39.5167 19.6376 39.5116 19.4787 39.5064C19.2844 39.5007 19.0948 39.4925 18.9052 39.4847C15.1894 39.3249 12.2569 38.8085 10.3837 38.2448C8.92726 37.8064 8.11219 37.3401 8.06505 36.9899C8.12384 36.7959 8.65928 36.3106 10.6247 35.8412ZM8.05923 40.5664V38.4305C8.48239 38.6899 9.01836 38.9267 9.64807 39.1402V41.6L9.34566 41.4855L9.3393 41.4917C8.50781 41.1559 8.06029 40.8263 8.05923 40.5664ZM9.64807 46.24V44.1042C10.0712 44.3636 10.6072 44.6003 11.2369 44.8139V47.2835C10.2068 46.9075 9.64912 46.5304 9.64807 46.24ZM34.5399 47.2835V44.8144C35.1696 44.6009 35.7056 44.3641 36.1287 44.1047V46.239C36.1282 46.5294 35.57 46.907 34.5399 47.2835ZM36.1218 42.6713C36.0641 43.0205 35.2506 43.4837 33.8042 43.919C31.9305 44.4827 28.9985 44.9991 25.2828 45.1589C25.0926 45.1667 24.903 45.1744 24.7092 45.1806C24.5508 45.1858 24.392 45.1904 24.2304 45.1945C23.7919 45.2038 23.347 45.2105 22.8884 45.2105C22.4297 45.2105 21.9843 45.2038 21.5453 45.194C21.3859 45.1904 21.2286 45.1853 21.0713 45.1801C20.8759 45.1739 20.6852 45.1662 20.494 45.1584C16.7782 44.9985 13.8463 44.4822 11.9725 43.9185C10.5717 43.4971 9.76246 43.0494 9.66078 42.7038C9.8186 42.7574 9.98225 42.8095 10.1501 42.8606C10.1671 42.8657 10.184 42.8709 10.201 42.8755C10.344 42.9184 10.4901 42.9596 10.64 42.9999C10.6967 43.0153 10.7539 43.0308 10.8116 43.0458C10.8964 43.0679 10.9832 43.0891 11.0701 43.1107C12.9989 43.592 15.4611 43.9329 18.1192 44.0861L18.1219 44.0866L18.1235 44.0861C18.9444 44.1336 19.7827 44.163 20.6301 44.1728C20.8557 44.1769 21.0798 44.1789 21.2996 44.1789C21.5914 44.1789 21.8901 44.1753 22.1925 44.1702C22.9652 44.1578 23.7278 44.1299 24.4735 44.0866C24.4751 44.0866 24.4762 44.0877 24.4778 44.0877C24.4804 44.0877 24.482 44.0861 24.4846 44.0861C25.3929 44.033 26.2721 43.9572 27.1168 43.8628C27.12 43.8628 27.1226 43.8643 27.1258 43.8643C27.1375 43.8643 27.147 43.8586 27.1587 43.8576C28.0993 43.7519 28.9911 43.6219 29.8189 43.4708C29.9894 43.4403 30.1573 43.4089 30.3236 43.3764C30.3607 43.3692 30.3978 43.3619 30.4348 43.3542C31.9988 43.0416 33.3525 42.6367 34.2814 42.1349C34.3323 42.1081 34.3799 42.0802 34.4281 42.0529C34.4869 42.0188 34.5431 41.9843 34.5976 41.9492C34.6484 41.9172 34.7072 41.8863 34.7538 41.8538C35.7993 42.2169 36.0874 42.5418 36.1218 42.6713ZM36.1287 35.9361V33.467C36.7584 33.2535 37.2944 33.0167 37.7176 32.7573V34.8916C37.717 35.182 37.1588 35.5596 36.1287 35.9361Z" fill="url(#paint0_linear)"/>
<path fill-rule="evenodd" clip-rule="evenodd" d="M62.1047 41.5683C64.0007 42.0443 64.9488 42.6682 64.9949 43.4667H65V46.7315C64.9977 47.6102 63.8773 48.2995 62.2048 48.8147V48.8333L60.5757 49.2413C60.5861 49.236 60.5963 49.2307 60.6065 49.2253C59.0444 49.5637 57.1973 49.7989 55.2285 49.9151C55.2264 49.9151 55.2246 49.9156 55.2227 49.9162C55.2208 49.9168 55.219 49.9174 55.2169 49.9174C55.2157 49.9174 55.2147 49.917 55.2136 49.9167C55.2126 49.9163 55.2115 49.916 55.2104 49.916C54.6183 49.9505 54.0178 49.9757 53.4084 49.9883C53.073 49.9963 52.7432 50 52.4217 50C52.1413 50 51.8543 49.9963 51.5627 49.9902C50.9039 49.979 50.2587 49.9533 49.6279 49.9165L49.6261 49.9169C49.6261 49.9169 49.6254 49.9168 49.6246 49.9166C49.624 49.9165 49.6234 49.9165 49.6228 49.9165C47.6592 49.8012 45.8568 49.5683 44.3469 49.2463C44.223 49.2207 44.1005 49.1941 43.9798 49.167C43.9617 49.1628 43.9433 49.1587 43.9248 49.1546C43.9042 49.1501 43.8837 49.1455 43.8638 49.1409C42.2532 48.7706 40.9529 48.2766 40.3011 47.6503L39.8407 46.728C39.8416 46.7277 39.8425 46.7275 39.8434 46.7273V43.5273V43.4667H39.8504C39.855 43.3864 39.869 43.3075 39.8923 43.2301C38.1928 42.7135 37.0505 42.0195 37.0482 41.1329V37.9273V37.8667H37.0561C37.2229 35.1469 48.3487 35.0667 49.6265 35.0667C50.9044 35.0667 62.0301 35.1469 62.1969 37.8667H62.2048V41.1315C62.2044 41.2827 62.1685 41.4283 62.1047 41.5683ZM50.1464 49.0116C50.4828 49.0279 50.8252 49.0415 51.1755 49.0503C51.1925 49.0508 51.2098 49.0511 51.227 49.0515C51.2442 49.0518 51.2615 49.0522 51.2785 49.0527C51.4446 49.0565 51.6149 49.058 51.7855 49.0595C51.8422 49.06 51.8988 49.0605 51.9554 49.0611V46.731C51.8273 46.7296 51.6992 46.7277 51.571 46.7254L51.4974 46.724C51.0283 46.7156 50.5592 46.7011 50.0924 46.6792V49.0093C50.1101 49.0097 50.1283 49.0107 50.1464 49.0116ZM40.3093 40.1267V42.3812C40.4704 42.4274 40.6377 42.4736 40.8138 42.5189C41.0449 42.5791 41.2866 42.636 41.5345 42.6906C41.57 42.6983 41.6069 42.706 41.6438 42.7138C41.6649 42.7182 41.686 42.7226 41.7069 42.727V40.4492C41.2121 40.3517 40.7444 40.2443 40.3093 40.1267ZM49.1607 41.131C49.0326 41.1296 48.9044 41.1277 48.7763 41.1254C48.7516 41.1249 48.7269 41.1245 48.7023 41.1245C48.2331 41.1161 47.764 41.1016 47.2972 41.0797V43.4079C47.9103 43.4387 48.5336 43.455 49.1607 43.4611V41.131ZM51.9558 41.0792C51.489 41.1007 51.0199 41.1151 50.5508 41.124L50.4767 41.1254C50.3486 41.1277 50.2205 41.1296 50.0924 41.131V43.462C50.1483 43.4614 50.2044 43.4609 50.2605 43.4604C50.373 43.4595 50.4853 43.4586 50.596 43.4564C50.6211 43.4557 50.6463 43.4552 50.6715 43.4548C50.6966 43.4543 50.7218 43.4538 50.7469 43.4531C51.0698 43.4457 51.3884 43.4354 51.701 43.4214C51.7044 43.4212 51.7078 43.4211 51.711 43.4209C51.7144 43.4208 51.7177 43.4207 51.721 43.4205C51.7611 43.4186 51.8003 43.4162 51.8394 43.4139C51.878 43.4116 51.9165 43.4093 51.9558 43.4074V41.0792ZM61.1534 41.3555L61.1664 41.3583C61.2358 41.2775 61.2731 41.201 61.2731 41.1301V39.199C60.9009 39.4337 60.4294 39.6479 59.8755 39.8411V42.0611C60.36 41.8735 60.7378 41.6793 60.9838 41.4875L61.1534 41.3555ZM55.2169 40.8123V43.1176C55.7079 43.0532 56.1728 42.9813 56.6145 42.9029V40.6153C56.1635 40.6886 55.6972 40.7544 55.2169 40.8123ZM57.5462 40.4492V42.7233C58.0563 42.6141 58.5264 42.4979 58.9438 42.3761V40.1267C58.5087 40.2443 58.0409 40.3517 57.5462 40.4492ZM54.2852 43.2277V40.9131C53.8267 40.9574 53.36 40.9952 52.8876 41.0265V43.3514C53.3693 43.3169 53.8351 43.2753 54.2852 43.2277ZM44.9679 40.9131V43.2287C45.4235 43.2767 45.8912 43.3155 46.3655 43.3495V41.0265C45.8931 40.9952 45.4263 40.9574 44.9679 40.9131ZM44.0362 43.1181V40.8123C43.5559 40.7549 43.0895 40.6886 42.6386 40.6158V42.9071C42.661 42.911 42.6832 42.9151 42.7056 42.9191C42.7337 42.9241 42.762 42.9292 42.7909 42.9342C43.049 42.9776 43.3122 43.0191 43.5815 43.0579C43.6083 43.0617 43.6348 43.0656 43.6613 43.0696C43.6928 43.0743 43.7243 43.079 43.7566 43.0835C43.8066 43.0904 43.8579 43.0965 43.9093 43.1025C43.9518 43.1076 43.9944 43.1126 44.0362 43.1181ZM48.8565 48.9309L49.0451 48.9449C49.064 48.9463 49.0834 48.9474 49.1029 48.9486C49.1223 48.9498 49.1418 48.9509 49.1607 48.9523V46.6265C48.6883 46.5952 48.2215 46.5574 47.7631 46.5131V48.8305C47.7713 48.8311 47.7793 48.8321 47.7874 48.8332C47.7917 48.8337 47.796 48.8342 47.8003 48.8347C47.8289 48.8376 47.8576 48.8406 47.8864 48.8435C47.9185 48.8469 47.9508 48.8502 47.983 48.8534C48.2671 48.8819 48.5583 48.9075 48.8565 48.9309ZM45.5588 48.5264C45.6924 48.5501 45.8265 48.5739 45.9672 48.5963C45.9779 48.5977 45.9886 48.5995 45.9993 48.6019C46.2672 48.6439 46.5462 48.6831 46.8313 48.7209V46.4127C46.351 46.3549 45.8847 46.2891 45.4338 46.2158V48.5043C45.4755 48.5117 45.5171 48.519 45.5588 48.5264ZM44.502 48.3228V46.0487C44.0073 45.9517 43.5396 45.8439 43.1044 45.7263V47.9723C43.5205 48.0946 43.9873 48.2122 44.502 48.3228ZM42.1727 47.6583V45.4411C41.6188 45.2479 41.1473 45.0337 40.7751 44.799V46.7315C40.7755 46.7417 40.7779 46.7524 40.7803 46.7629C40.7812 46.7672 40.7822 46.7716 40.783 46.7758L40.8143 46.8281C40.968 47.0857 41.4404 47.375 42.1727 47.6583ZM54.751 46.6792C54.2842 46.7007 53.8151 46.7151 53.346 46.724L53.2719 46.7254C53.1438 46.7277 53.0157 46.7296 52.8876 46.731V49.0606C53.5165 49.0541 54.1389 49.0373 54.751 49.0069V46.6792ZM58.7435 48.6173C58.9554 48.5851 59.1618 48.5501 59.3663 48.5146C59.3785 48.5126 59.3906 48.5103 59.403 48.508L59.4101 48.5067V46.2153C58.9592 46.2886 58.4928 46.3544 58.0125 46.4123V48.7181C58.0491 48.7134 58.086 48.7087 58.1229 48.7041C58.2067 48.6936 58.2908 48.6831 58.3726 48.6714C58.4975 48.6537 58.6219 48.6359 58.7435 48.6173ZM55.8884 48.9359C55.997 48.9289 56.1055 48.922 56.212 48.9131C56.2204 48.9124 56.2285 48.9116 56.2367 48.9108C56.2448 48.91 56.253 48.9092 56.2614 48.9085C56.5371 48.8853 56.8051 48.8571 57.0735 48.8289L57.0803 48.8282V46.5131C56.6219 46.5579 56.1551 46.5952 55.6827 46.6265V48.9495C55.751 48.9446 55.8197 48.9403 55.8884 48.9359ZM60.8077 48.2229C61.0583 48.1637 61.3039 48.103 61.5359 48.0381C61.573 48.0278 61.6098 48.0175 61.6463 48.0073C61.6775 47.9985 61.7085 47.9898 61.7394 47.9812V45.7267C61.3043 45.8443 60.8366 45.9517 60.3418 46.0492V48.3261C60.3594 48.3222 60.3774 48.3186 60.3953 48.315C60.4145 48.3112 60.4337 48.3073 60.4523 48.3032C60.5734 48.2771 60.6917 48.25 60.8077 48.2229ZM62.0236 44.6315C63.3033 44.2353 64.0203 43.8139 64.0632 43.497C64.0101 43.3038 63.4603 42.8082 61.3747 42.3551C61.3595 42.3652 61.3422 42.3751 61.3249 42.385C61.3103 42.3933 61.2958 42.4016 61.2824 42.4101C61.2307 42.4433 61.1748 42.4759 61.1189 42.5081C61.102 42.5178 61.0856 42.5275 61.0691 42.5372C61.038 42.5557 61.0068 42.5741 60.9726 42.5921C60.8571 42.6542 60.7322 42.7139 60.6032 42.7723C60.583 42.7814 60.5621 42.7904 60.5412 42.7994C60.5269 42.8056 60.5126 42.8117 60.4984 42.818C60.3773 42.8707 60.2505 42.9225 60.1187 42.9725C60.1052 42.9776 60.092 42.9827 60.0789 42.9879C60.0657 42.993 60.0525 42.9981 60.039 43.0033C59.883 43.0611 59.7213 43.1167 59.5527 43.1708C59.5171 43.1821 59.4803 43.1932 59.4434 43.2044C59.4208 43.2112 59.3981 43.218 59.3756 43.2249C59.2787 43.2543 59.1805 43.2837 59.0798 43.3122C56.8968 43.9371 53.7597 44.3403 50.3747 44.3925C50.1217 44.3972 49.8711 44.4 49.6265 44.4C49.2841 44.4 48.9324 44.3953 48.5741 44.3865C47.989 44.3734 47.4109 44.3487 46.8402 44.3151C46.8386 44.3151 46.8372 44.3155 46.8358 44.316C46.8344 44.3165 46.833 44.3169 46.8313 44.3169C46.8283 44.3169 46.8255 44.3161 46.8227 44.3153C46.8199 44.3145 46.8171 44.3137 46.8141 44.3137C46.0212 44.2665 45.2488 44.1998 44.5044 44.1149L44.502 44.1153C44.5005 44.1153 44.499 44.1149 44.4975 44.1144C44.4958 44.114 44.4942 44.1135 44.4922 44.1135C43.3993 43.9884 42.3735 43.8246 41.4478 43.6249C41.2578 43.5847 41.0709 43.5427 40.8888 43.4993C40.8731 43.4955 40.8566 43.4919 40.8402 43.4884C40.823 43.4847 40.8058 43.481 40.7896 43.4769C40.7856 43.4848 40.7845 43.4908 40.7833 43.4968C40.7828 43.4993 40.7823 43.5018 40.7816 43.5045C40.8348 43.8199 41.5503 44.2381 42.8198 44.631C44.4676 45.1411 47.047 45.6082 50.3155 45.7529C50.3417 45.754 50.3678 45.7551 50.3939 45.7562C50.5347 45.7621 50.6759 45.7681 50.8201 45.7725L50.8204 45.7725C50.96 45.7771 51.0997 45.7818 51.2412 45.7851C51.6269 45.7939 52.0183 45.8 52.4217 45.8C52.8251 45.8 53.2165 45.7939 53.6022 45.7855C53.7443 45.7818 53.8841 45.7776 54.0233 45.7729C54.1917 45.7674 54.3565 45.7605 54.5217 45.7536L54.5279 45.7533C57.7964 45.6087 60.3754 45.1415 62.0236 44.6315ZM61.2661 37.9068C61.1934 37.2115 57.3081 36 49.6265 36C41.9449 36 38.0596 37.2115 37.9869 37.9068C38.0433 38.2223 38.7579 38.639 40.0246 39.031C41.6724 39.5411 44.2519 40.0082 47.5204 40.1529C47.5465 40.154 47.5726 40.1551 47.5988 40.1562C47.7395 40.1621 47.8807 40.1681 48.0249 40.1725H48.0249C48.1647 40.1771 48.3044 40.1818 48.446 40.1851C48.8318 40.1939 49.2231 40.2 49.6265 40.2C50.03 40.2 50.4213 40.1939 50.807 40.1851C50.9491 40.1813 51.0889 40.1771 51.2282 40.1725C51.3966 40.1669 51.5613 40.16 51.7265 40.1531L51.7327 40.1529C55.0012 40.0082 57.5802 39.5411 59.2284 39.031C60.4947 38.639 61.2098 38.2223 61.2661 37.9068ZM37.9799 39.199V41.1315C37.9809 41.3942 38.4714 41.7353 39.3775 42.0755V39.8411C38.8236 39.6479 38.3522 39.4337 37.9799 39.199ZM62.6707 45.4416V47.6755C63.5768 47.3349 64.0678 46.9933 64.0683 46.7305V44.7995C63.6961 45.0342 63.2246 45.2484 62.6707 45.4416Z" fill="url(#paint1_linear)"/>
<defs>
<linearGradient id="paint0_linear" x1="38.7303" y1="49.8526" x2="8.97929" y2="29.396" gradientUnits="userSpaceOnUse">
<stop stop-color="#62214B"/>
<stop offset="0.450757" stop-color="#E6655E"/>
<stop offset="1" stop-color="#FFAB59"/>
</linearGradient>
<linearGradient id="paint1_linear" x1="64.9591" y1="50" x2="47.9992" y2="30.8678" gradientUnits="userSpaceOnUse">
<stop stop-color="#62214B"/>
<stop offset="0.450757" stop-color="#E6655E"/>
<stop offset="1" stop-color="#FFAB59"/>
</linearGradient>
</defs>
</svg>
