<svg width="72" height="72" viewBox="0 0 72 72" fill="none" xmlns="http://www.w3.org/2000/svg">
<path d="M28.8005 12H30.4004V13.5999H28.8005V12Z" fill="url(#paint0_linear)"/>
<path d="M38.3997 12.7999H36.7998V15.9997H38.3997V12.7999Z" fill="url(#paint1_linear)"/>
<path d="M33.6001 15.9998V20.9439C33.6002 21.1791 33.7038 21.4024 33.8833 21.5543C34.0637 21.7051 34.3006 21.7702 34.5328 21.7327C36.5495 21.3737 38.6282 21.7423 40.3987 22.7727C40.7812 22.9936 41.2705 22.8625 41.4914 22.4799C41.5616 22.3583 41.5986 22.2203 41.5986 22.0799V14.3998H39.9995V20.7999C38.7319 20.2725 37.3727 20.0007 35.9999 19.9999C35.7391 19.9999 35.4735 20.0119 35.1999 20.0351V15.9998H33.6001Z" fill="url(#paint2_linear)"/>
<path d="M28.8005 22.9102C24.6576 26.8882 24.5236 33.4719 28.5012 37.6152C32.4787 41.7586 39.0617 41.8926 43.2046 37.9146C46.766 34.495 47.4323 29.0422 44.7991 24.8656V18.3998H43.1992V25.1015C43.1992 25.2589 43.2457 25.4128 43.3328 25.5439C46.0205 29.593 44.9174 35.0546 40.8686 37.7426C36.8199 40.4307 31.3589 39.3273 28.6712 35.2782C26.2531 31.6353 26.8761 26.7694 30.134 23.8535C30.3033 23.7018 30.4002 23.4854 30.4004 23.2582V15.1997H28.8005V22.9102Z" fill="url(#paint3_linear)"/>
<path d="M32.2218 43.469L31.7787 45.0064C33.1509 45.4011 34.5719 45.6009 35.9999 45.6C39.3631 45.6115 42.6332 44.4963 45.2886 42.4323L44.3095 41.1668C41.9338 43.0129 39.0085 44.0103 35.9999 44.0001C34.7218 44.0009 33.45 43.8221 32.2218 43.469Z" fill="url(#paint4_linear)"/>
<path d="M25.864 21.3329L24.6713 20.2657C25.2922 19.5724 25.9749 18.937 26.7111 18.3675L27.6894 19.633C27.0309 20.1434 26.4199 20.7123 25.864 21.3329Z" fill="url(#paint5_linear)"/>
<path d="M44.7991 15.1997H43.1992V16.7996H44.7991V15.1997Z" fill="url(#paint6_linear)"/>
<path d="M39.9995 29.6002H41.5993V31.2001H39.9995V29.6002Z" fill="url(#paint7_linear)"/>
<path d="M32.0002 29.6002H30.4004V31.2001H32.0002V29.6002Z" fill="url(#paint8_linear)"/>
<path d="M30.0892 44.4082L30.7116 42.9331C30.1929 42.7147 29.6885 42.4638 29.2013 42.182L28.4014 43.5659C28.9458 43.8815 29.5096 44.1628 30.0892 44.4082Z" fill="url(#paint9_linear)"/>
<path d="M52.7983 52.0005H54.3982V53.6004H52.7983V52.0005Z" fill="url(#paint10_linear)"/>
<path fill-rule="evenodd" clip-rule="evenodd" d="M52.8159 18.6531C53.5337 18.9662 54.0952 19.5554 54.3734 20.2875L59.0857 32.6461C60.3426 35.9308 60.3022 39.5708 58.9729 42.827L56.4932 48.7999H56.7979C57.2397 48.7999 57.5979 49.1581 57.5979 49.5999V55.9999C57.5979 56.4418 57.2397 56.8 56.7979 56.8V60H55.1981V56.8H47.1988V60H45.599V56.8C45.1572 56.8 44.7991 56.4418 44.7991 55.9999V49.5999C44.7991 49.1581 45.1572 48.7999 45.599 48.7999V46.7718C45.6024 43.871 46.2775 41.0103 47.5716 38.4141C47.8516 37.8522 47.9979 37.2331 47.9988 36.6053V30.3996C47.9988 28.8532 49.2522 27.5996 50.7985 27.5996C50.8971 27.6034 50.9953 27.6125 51.0929 27.6268L48.8907 22.4395C48.5851 21.7244 48.5833 20.9159 48.8859 20.1995C49.1917 19.4686 49.7817 18.8936 50.5201 18.6067C51.2606 18.3131 52.088 18.3298 52.8159 18.6531ZM55.998 55.1999V50.3999H46.3989V55.1999H55.998ZM54.7605 48.7999L57.4939 42.2182C58.6673 39.3398 58.7025 36.123 57.5923 33.2197L52.8807 20.8611C52.7536 20.5287 52.4977 20.2616 52.1712 20.1203C51.8342 19.9702 51.4508 19.9624 51.1081 20.0987C50.7721 20.2273 50.5032 20.4873 50.3633 20.8187C50.2278 21.1374 50.2278 21.4976 50.3633 21.8163L53.2023 28.5052C53.4504 29.0897 53.5832 29.7167 53.5934 30.3516C53.5934 30.3546 53.5936 30.3575 53.5938 30.3604C53.594 30.3619 53.5941 30.3633 53.5943 30.3647C53.5947 30.3686 53.5953 30.3723 53.5959 30.3761L53.5972 30.3852C53.5976 30.3882 53.5979 30.3912 53.5981 30.3942L53.5982 30.3996V39.9997H51.9984V30.4492C51.9984 30.3809 51.9895 30.3142 51.9806 30.2474C51.9756 30.2103 51.9706 30.173 51.9672 30.1356C51.8414 29.5949 51.3612 29.211 50.8062 29.2074C50.1436 29.2031 49.6029 29.7369 49.5986 30.3996V36.6053C49.5979 37.4814 49.3939 38.3454 49.0027 39.1293C47.8194 41.5034 47.2019 44.1192 47.1988 46.7718V48.7999H54.7605Z" fill="url(#paint11_linear)"/>
<path d="M17.6016 52.0005H19.2014V53.6004H17.6016V52.0005Z" fill="url(#paint12_linear)"/>
<path fill-rule="evenodd" clip-rule="evenodd" d="M21.4796 18.6067C22.218 18.8936 22.808 19.4686 23.1139 20.1995C23.4169 20.9165 23.4154 21.726 23.1099 22.4419L20.9069 27.6292C21.0044 27.6141 21.1026 27.6042 21.2012 27.5996C22.7475 27.5996 24.001 28.8532 24.001 30.3996V36.6053C24.0019 37.2331 24.1482 37.8522 24.4281 38.4141C25.7222 41.0103 26.3974 43.871 26.4008 46.7718V48.7999C26.8425 48.7999 27.2007 49.1581 27.2007 49.5999V56C27.2007 56.4418 26.8425 56.8 26.4008 56.8V60H24.8009V56.8H16.8016V60H15.2018V56.8C14.76 56.8 14.4019 56.4418 14.4019 56V49.5999C14.4019 49.1581 14.76 48.7999 15.2018 48.7999H15.5066L13.0292 42.8326C11.6979 39.5751 11.6567 35.9329 12.914 32.6461L17.6256 20.2875C17.9043 19.5554 18.4659 18.9664 19.1838 18.6531C19.9119 18.3303 20.7391 18.3136 21.4796 18.6067ZM25.6008 55.1999V50.3999H16.0017V55.1999H25.6008ZM18.8015 28.5052L21.6364 21.8163C21.7736 21.497 21.7745 21.1355 21.6388 20.8155C21.4989 20.4841 21.23 20.2241 20.8941 20.0955C20.5513 19.9588 20.1678 19.9666 19.831 20.1171C19.5044 20.2584 19.2485 20.5255 19.1214 20.8579L14.4091 33.2165C13.2971 36.1225 13.3326 39.3429 14.5083 42.2238L17.2392 48.7999H24.8009V46.7718C24.7978 44.1192 24.1804 41.5034 22.9971 39.1293C22.6058 38.3454 22.4018 37.4814 22.4011 36.6053V30.3996C22.3904 29.8565 22.0164 29.3883 21.489 29.2581C20.8457 29.0993 20.1953 29.4922 20.0365 30.1356C20.0331 30.1731 20.0281 30.2103 20.0232 30.2474C20.0143 30.3142 20.0053 30.3809 20.0053 30.4492V39.9998H18.4055V30.3996C18.4055 30.3917 18.4067 30.384 18.4079 30.3762C18.4091 30.3682 18.4103 30.3601 18.4103 30.3516C18.4205 29.7167 18.5534 29.0897 18.8015 28.5052Z" fill="url(#paint13_linear)"/>
<path d="M37.1225 27.5328H38.4148L38.6666 26.6646H33.6016L33.3443 27.5328H34.8829C35.7809 27.5621 36.3176 27.9247 36.4928 28.6207H33.5852L33.3333 29.4889H36.5037C36.4271 29.8259 36.2464 30.0933 35.9616 30.2911C35.6769 30.4852 35.3064 30.5841 34.8501 30.5878H33.4866L33.4921 31.2746L36.3942 34.6647H37.6372V34.5988L34.9377 31.4559C35.7371 31.4559 36.3614 31.2911 36.8104 30.9614C37.2594 30.6317 37.5167 30.1409 37.5825 29.4889H38.4148L38.6666 28.6207H37.566C37.504 28.1921 37.3561 27.8295 37.1225 27.5328Z" fill="url(#paint14_linear)"/>
<defs>
<linearGradient id="paint0_linear" x1="60.1135" y1="62.7561" x2="25.3381" y2="24.7714" gradientUnits="userSpaceOnUse">
<stop stop-color="#62214B"/>
<stop offset="0.399987" stop-color="#E6655E"/>
<stop offset="1" stop-color="#FFAB59"/>
</linearGradient>
<linearGradient id="paint1_linear" x1="60.1135" y1="62.7561" x2="25.3381" y2="24.7714" gradientUnits="userSpaceOnUse">
<stop stop-color="#62214B"/>
<stop offset="0.399987" stop-color="#E6655E"/>
<stop offset="1" stop-color="#FFAB59"/>
</linearGradient>
<linearGradient id="paint2_linear" x1="60.1135" y1="62.7561" x2="25.3381" y2="24.7714" gradientUnits="userSpaceOnUse">
<stop stop-color="#62214B"/>
<stop offset="0.399987" stop-color="#E6655E"/>
<stop offset="1" stop-color="#FFAB59"/>
</linearGradient>
<linearGradient id="paint3_linear" x1="60.1135" y1="62.7561" x2="25.3381" y2="24.7714" gradientUnits="userSpaceOnUse">
<stop stop-color="#62214B"/>
<stop offset="0.399987" stop-color="#E6655E"/>
<stop offset="1" stop-color="#FFAB59"/>
</linearGradient>
<linearGradient id="paint4_linear" x1="60.1135" y1="62.7561" x2="25.3381" y2="24.7714" gradientUnits="userSpaceOnUse">
<stop stop-color="#62214B"/>
<stop offset="0.399987" stop-color="#E6655E"/>
<stop offset="1" stop-color="#FFAB59"/>
</linearGradient>
<linearGradient id="paint5_linear" x1="60.1135" y1="62.7561" x2="25.3381" y2="24.7714" gradientUnits="userSpaceOnUse">
<stop stop-color="#62214B"/>
<stop offset="0.399987" stop-color="#E6655E"/>
<stop offset="1" stop-color="#FFAB59"/>
</linearGradient>
<linearGradient id="paint6_linear" x1="60.1135" y1="62.7561" x2="25.3381" y2="24.7714" gradientUnits="userSpaceOnUse">
<stop stop-color="#62214B"/>
<stop offset="0.399987" stop-color="#E6655E"/>
<stop offset="1" stop-color="#FFAB59"/>
</linearGradient>
<linearGradient id="paint7_linear" x1="60.1135" y1="62.7561" x2="25.3381" y2="24.7714" gradientUnits="userSpaceOnUse">
<stop stop-color="#62214B"/>
<stop offset="0.399987" stop-color="#E6655E"/>
<stop offset="1" stop-color="#FFAB59"/>
</linearGradient>
<linearGradient id="paint8_linear" x1="60.1135" y1="62.7561" x2="25.3381" y2="24.7714" gradientUnits="userSpaceOnUse">
<stop stop-color="#62214B"/>
<stop offset="0.399987" stop-color="#E6655E"/>
<stop offset="1" stop-color="#FFAB59"/>
</linearGradient>
<linearGradient id="paint9_linear" x1="60.1135" y1="62.7561" x2="25.3381" y2="24.7714" gradientUnits="userSpaceOnUse">
<stop stop-color="#62214B"/>
<stop offset="0.399987" stop-color="#E6655E"/>
<stop offset="1" stop-color="#FFAB59"/>
</linearGradient>
<linearGradient id="paint10_linear" x1="60.1135" y1="62.7561" x2="25.3381" y2="24.7714" gradientUnits="userSpaceOnUse">
<stop stop-color="#62214B"/>
<stop offset="0.399987" stop-color="#E6655E"/>
<stop offset="1" stop-color="#FFAB59"/>
</linearGradient>
<linearGradient id="paint11_linear" x1="60.1135" y1="62.7561" x2="25.3381" y2="24.7714" gradientUnits="userSpaceOnUse">
<stop stop-color="#62214B"/>
<stop offset="0.399987" stop-color="#E6655E"/>
<stop offset="1" stop-color="#FFAB59"/>
</linearGradient>
<linearGradient id="paint12_linear" x1="60.1135" y1="62.7561" x2="25.3381" y2="24.7714" gradientUnits="userSpaceOnUse">
<stop stop-color="#62214B"/>
<stop offset="0.399987" stop-color="#E6655E"/>
<stop offset="1" stop-color="#FFAB59"/>
</linearGradient>
<linearGradient id="paint13_linear" x1="60.1135" y1="62.7561" x2="25.3381" y2="24.7714" gradientUnits="userSpaceOnUse">
<stop stop-color="#62214B"/>
<stop offset="0.399987" stop-color="#E6655E"/>
<stop offset="1" stop-color="#FFAB59"/>
</linearGradient>
<linearGradient id="paint14_linear" x1="60.1135" y1="62.7561" x2="25.3381" y2="24.7714" gradientUnits="userSpaceOnUse">
<stop stop-color="#62214B"/>
<stop offset="0.399987" stop-color="#E6655E"/>
<stop offset="1" stop-color="#FFAB59"/>
</linearGradient>
</defs>
</svg>
