<svg width="72" height="72" viewBox="0 0 72 72" fill="none" xmlns="http://www.w3.org/2000/svg">
<path fill-rule="evenodd" clip-rule="evenodd" d="M30.7648 7.94594C30.7194 7.94594 30.674 7.94594 30.6286 7.95729H30.5831C18.1258 9.20643 8.25763 19.0292 6.96307 31.4752C6.89493 32.0997 7.34916 32.6562 7.97373 32.7243H8.08729H21.3736C21.9073 32.7243 22.3729 32.3496 22.4864 31.8272C23.3836 27.6937 26.7789 24.3324 30.9238 23.4807C31.4462 23.3671 31.8323 22.9129 31.8323 22.3678L31.889 9.08152C31.889 8.45695 31.3894 7.94594 30.7648 7.94594ZM9.38185 30.4531C9.48405 29.7945 9.60897 29.1359 9.76795 28.4886L11.7325 30.4531H9.38185ZM14.9348 30.4531L10.5061 26.0244C10.7786 25.2522 11.0966 24.5027 11.46 23.7646L18.1485 30.4531H14.9348ZM20.7149 29.7945L12.5955 21.6865C12.993 21.0278 13.4245 20.3919 13.8901 19.7673L21.7256 27.6028C21.3168 28.3069 20.9761 29.0337 20.7149 29.7945ZM23.8491 24.8207C23.5652 25.1046 23.2927 25.3998 23.0429 25.7064L15.3436 18.0072C15.6048 17.7119 15.8774 17.428 16.1613 17.1441L16.9448 16.3947L24.644 24.0939C24.3715 24.321 24.1103 24.5708 23.8491 24.8207ZM26.5291 22.7653L18.705 14.9411C19.3182 14.4755 19.9541 14.044 20.6127 13.6466L28.7208 21.7432C27.9599 22.0158 27.2332 22.3565 26.5291 22.7653ZM29.5725 19.3926L22.6908 12.511C23.429 12.1589 24.1785 11.8296 24.9507 11.5571L29.5838 16.1903L29.5725 19.3926ZM29.5952 12.9879L27.4035 10.7962C28.1303 10.6146 28.8684 10.4669 29.6065 10.3647L29.5952 12.9879ZM35.8759 8.01659C48.2991 9.26573 58.19 19.1907 59.3937 31.6026C59.4278 31.9206 59.3256 32.2385 59.1098 32.477C58.8941 32.7155 58.5875 32.8404 58.2695 32.829H44.9605C44.4268 32.8404 43.9612 32.477 43.8476 31.9546C42.9619 27.7303 39.6574 24.4257 35.433 23.54H35.4103C35.081 23.4718 34.5359 23.2107 34.5359 22.2908V21.8593C34.5359 21.7021 34.538 21.5151 34.5404 21.303V21.303V21.303V21.303V21.3029V21.3029V21.3028V21.3027V21.3026V21.3025V21.3024V21.3022C34.5436 21.0242 34.5472 20.703 34.5472 20.349C34.5583 19.1327 34.5694 17.5181 34.5804 15.9035V15.9035V15.9034L34.5813 15.7726L34.6267 9.12946V9.02726C34.6949 8.41404 35.2513 7.94846 35.8759 8.01659ZM36.8184 21.5527C41.1904 22.8132 44.6085 26.2313 45.8576 30.6146L56.9863 30.5919C55.3851 20.2127 47.2657 12.0593 36.8865 10.4354C36.8525 14.5008 36.8184 19.5654 36.8184 21.5527ZM24.0316 40.1762C23.2822 39.0066 22.7484 37.712 22.4645 36.3607C22.351 35.8383 21.8854 35.4522 21.3517 35.4635H8.07674C7.45217 35.4635 6.94116 35.9746 6.94116 36.5991V36.6218C6.94116 36.6786 6.94116 36.7354 6.95252 36.7922C7.45217 41.9818 9.49622 46.9102 12.8121 50.9302C13.0165 51.18 13.3118 51.3276 13.6297 51.339H13.6865C13.9931 51.339 14.277 51.2141 14.4928 51.0096L23.884 41.6184C24.2588 41.2209 24.3269 40.6191 24.0316 40.1762ZM13.7887 48.4773C11.4494 45.309 9.91638 41.6184 9.34859 37.7234H20.4546C20.7385 38.734 21.1359 39.6993 21.6469 40.6191L13.7887 48.4773ZM30.9247 44.8775C29.5847 44.5936 28.3129 44.0713 27.1773 43.3331C26.7231 43.0379 26.1326 43.0947 25.7465 43.4808L16.3779 52.872C15.9351 53.3149 15.9351 54.0303 16.3779 54.4732C16.3893 54.4845 16.4035 54.4959 16.4177 54.5073C16.4319 54.5186 16.4461 54.53 16.4574 54.5413C20.4774 57.8572 25.4058 59.8899 30.5954 60.4009C30.6749 60.4123 30.743 60.4123 30.8225 60.4123H30.8452C31.4698 60.4123 31.9808 59.9012 31.9808 59.2767V46.0131C31.9922 45.4113 31.5266 44.9116 30.9247 44.8775ZM29.721 58.0048C25.8032 57.437 22.0785 55.9154 18.8989 53.5647L26.7344 45.7179C27.677 46.2402 28.6876 46.649 29.721 46.9216V58.0048ZM34.0361 49.9763C34.0361 41.6865 40.7815 34.9526 49.0599 34.9526C57.3496 34.9526 64.0836 41.6865 64.0836 49.9763C64.0836 58.266 57.3496 65 49.0599 65C40.7701 65 34.0361 58.266 34.0361 49.9763ZM36.3073 49.9649C36.3073 57.0055 42.0193 62.7175 49.0599 62.7175C56.1005 62.7175 61.8011 57.0055 61.8124 49.9649C61.8124 42.9243 56.1005 37.2124 49.0599 37.2124C42.0193 37.2124 36.3073 42.9243 36.3073 49.9649ZM57.3155 54.53H49.5708C49.1052 53.1673 47.8675 52.3156 46.4139 52.3156C44.9604 52.3156 43.7226 53.1673 43.257 54.53H41.2584C40.6338 54.53 40.1228 55.041 40.1228 55.6655C40.1228 56.2901 40.6338 56.8011 41.2584 56.8011H43.257C43.7226 58.0503 44.9604 59.0155 46.4139 59.0155C47.822 58.9928 49.0712 58.1184 49.5708 56.8011H57.3155C57.9401 56.8011 58.4511 56.2901 58.4511 55.6655C58.4511 55.041 57.9401 54.53 57.3155 54.53ZM46.4139 56.6876C45.8121 56.6876 45.3351 56.1993 45.3351 55.6088C45.3351 55.0069 45.8234 54.53 46.4139 54.53C47.0158 54.53 47.4927 55.0183 47.4927 55.6088C47.4927 56.2106 47.0044 56.6876 46.4139 56.6876ZM49.5708 43.1741H57.3155C57.9401 43.1741 58.4511 43.6852 58.4511 44.3097C58.4511 44.9343 57.9401 45.4453 57.3155 45.4453H49.5708C49.0712 46.7626 47.822 47.637 46.4139 47.6597C44.9604 47.6597 43.7226 46.6944 43.257 45.4453H41.2584C40.6338 45.4453 40.1228 44.9343 40.1228 44.3097C40.1228 43.6852 40.6338 43.1741 41.2584 43.1741H43.257C43.7226 41.8114 44.9604 40.9598 46.4139 40.9598C47.8675 40.9598 49.1052 41.8114 49.5708 43.1741ZM45.3351 44.2757C45.3351 44.8662 45.8121 45.3545 46.4139 45.3545C47.0044 45.3431 47.4927 44.8662 47.4927 44.2757C47.4927 43.6852 47.0158 43.1969 46.4139 43.1969C45.8234 43.1969 45.3351 43.6738 45.3351 44.2757ZM36.5749 29.3022H34.3943C34.7885 29.7473 35.038 30.2912 35.1427 30.9341H37L36.5749 32.2363H35.1704C35.0595 33.2143 34.6253 33.9506 33.8676 34.4451C33.1099 34.9396 32.0565 35.1868 30.7074 35.1868L35.2628 39.9011V40H33.1653L28.268 34.9148L28.2587 33.8846H30.5595C31.3296 33.8791 31.9548 33.7308 32.4353 33.4396C32.9158 33.1429 33.2207 32.7418 33.3501 32.2363H28L28.4251 30.9341H33.3316C33.0359 29.8901 32.1304 29.3462 30.615 29.3022H28.0185L28.4528 28H37L36.5749 29.3022ZM55.3169 48.7385H57.3155C57.9401 48.7385 58.4511 49.2495 58.4511 49.8741C58.4511 50.4986 57.9401 51.0097 57.3155 51.0097H55.3169C54.8172 52.3269 53.5681 53.2013 52.16 53.224C50.7064 53.224 49.4686 52.2588 49.003 51.0097H41.2584C40.6338 51.0097 40.1228 50.4986 40.1228 49.8741C40.1228 49.2495 40.6338 48.7385 41.2584 48.7385H49.003C49.4686 47.3758 50.7064 46.5241 52.16 46.5241C53.6135 46.5241 54.8513 47.3758 55.3169 48.7385ZM51.0812 49.84C51.0812 50.4305 51.5581 50.9188 52.16 50.9188C52.7618 50.9188 53.2388 50.4305 53.2388 49.84C53.2388 49.2495 52.7618 48.7612 52.16 48.7612C51.5695 48.7612 51.0812 49.2381 51.0812 49.84Z" fill="url(#paint0_linear)"/>
<defs>
<linearGradient id="paint0_linear" x1="64" y1="65" x2="6.24845" y2="30.1402" gradientUnits="userSpaceOnUse">
<stop stop-color="#62214B"/>
<stop offset="0.450757" stop-color="#E6655E"/>
<stop offset="1" stop-color="#FFAB59"/>
</linearGradient>
</defs>
</svg>
