<svg width="72" height="72" viewBox="0 0 72 72" fill="none" xmlns="http://www.w3.org/2000/svg">
<path d="M43.8551 19.936C43.8551 15.2384 47.7007 11.4167 52.4276 11.4167C57.1545 11.4167 61 15.2385 61 19.9361C61 24.6338 57.1544 28.4555 52.4276 28.4555C50.7097 28.4555 49.0522 27.9522 47.6342 27.0001C47.2923 26.7706 47.2024 26.309 47.4333 25.9692C47.6642 25.6295 48.1286 25.5401 48.4705 25.7696C49.6406 26.5552 51.0091 26.9705 52.4276 26.9705C56.3306 26.9705 59.5059 23.8148 59.5059 19.936C59.5059 16.0573 56.3305 12.9016 52.4275 12.9016C48.5245 12.9016 45.3492 16.0572 45.3492 19.936C45.3492 21.1734 45.6767 22.3898 46.2965 23.454C46.5032 23.8089 46.3812 24.2631 46.0241 24.4685C45.6672 24.6739 45.21 24.5528 45.0033 24.1978C44.2522 22.9079 43.8551 21.4342 43.8551 19.936Z" fill="url(#paint0_linear)"/>
<path fill-rule="evenodd" clip-rule="evenodd" d="M57.531 38.9195H56.828V36.5686H57.4194C57.8321 36.5686 58.1665 36.2362 58.1665 35.8262V31.9904C58.1665 31.5804 57.8321 31.2479 57.4194 31.2479H49.4942C49.0815 31.2479 48.7472 31.5804 48.7472 31.9904V35.0837H48.1557C47.743 35.0837 47.4086 35.4162 47.4086 35.8262V39.662C47.4086 40.072 47.743 40.4044 48.1557 40.4044H48.8587V42.7553C48.41 42.7207 47.9663 43.0115 47.9663 43.4978V58.8409C47.9663 59.2509 48.3007 59.5833 48.7134 59.5833H56.6386C57.0513 59.5833 57.3857 59.2509 57.3857 58.8409V44.226C57.8322 44.3135 58.278 43.9521 58.278 43.4978V39.662C58.2781 39.2519 57.9436 38.9195 57.531 38.9195ZM55.3338 38.9195H48.9028V36.5686H55.3338V38.9195ZM50.2414 32.7329H56.6725V35.0838H50.2414V32.7329ZM50.353 40.4044H56.7839V42.7553H55.1704C54.7577 42.7553 54.4233 43.0877 54.4233 43.4978C54.4233 43.9078 54.7577 44.2402 55.1704 44.2402H55.8916V46.5911H49.4606V44.2402H51.741C52.1537 44.2402 52.4881 43.9078 52.4881 43.4978C52.4881 43.0877 52.1537 42.7553 51.741 42.7553H50.353V40.4044ZM55.8916 50.4269H49.4606V48.076H55.8916V50.4269ZM49.4606 51.9118H55.8916V54.2627H49.4606V51.9118ZM55.8916 58.0984H49.4606V55.7475H55.8916V58.0984Z" fill="url(#paint1_linear)"/>
<path fill-rule="evenodd" clip-rule="evenodd" d="M44.284 42.7553H44.764C45.1766 42.7553 45.511 43.0878 45.511 43.4978V47.3336C45.511 47.7601 45.1408 48.0716 44.7302 48.076V58.8409C44.7302 59.2509 44.3958 59.5833 43.9831 59.5833H36.058C35.6453 59.5833 35.3109 59.2509 35.3109 58.8409V47.3336C35.3109 46.907 35.6812 46.5956 36.0918 46.5911V44.2402H35.6119C35.1992 44.2402 34.8648 43.9078 34.8648 43.4978V39.662C34.8648 39.252 35.1992 38.9195 35.6119 38.9195H43.537C43.9497 38.9195 44.284 39.252 44.284 39.662V42.7553ZM42.7899 40.4044H36.3589V42.7553H42.7899V40.4044ZM44.0169 44.2402H37.5859V46.5911H44.0169V44.2402ZM36.8051 54.2626H43.2361V51.9117H36.8051V54.2626ZM36.8051 58.0984H43.2361V55.7475H36.8051V58.0984ZM36.8051 50.4269H43.2361V48.076H36.8051V50.4269Z" fill="url(#paint2_linear)"/>
<path fill-rule="evenodd" clip-rule="evenodd" d="M31.3277 46.5911H28.4804C28.0677 46.5911 27.7334 46.9235 27.7334 47.3336C27.7334 47.7436 28.0677 48.076 28.4804 48.076H30.5806V50.4269H24.1495V48.076H24.9442C25.3569 48.076 25.6913 47.7436 25.6913 47.3336C25.6913 46.9235 25.3569 46.5911 24.9442 46.5911H23.4024C22.9898 46.5911 22.6554 46.9235 22.6554 47.3336V58.8409C22.6554 59.2509 22.9898 59.5833 23.4024 59.5833H31.3277C31.7403 59.5833 32.0747 59.2509 32.0747 58.8409V47.3336C32.0747 46.9234 31.7403 46.5911 31.3277 46.5911ZM30.5806 51.9118V54.2627H24.1495V51.9118H30.5806ZM30.5806 58.0984H24.1495V55.7475H30.5806V58.0984Z" fill="url(#paint3_linear)"/>
<path fill-rule="evenodd" clip-rule="evenodd" d="M18.6722 50.4269H10.7471C10.3344 50.4269 10 50.7593 10 51.1694V58.8409C10 59.2509 10.3344 59.5833 10.7471 59.5833H18.6722C19.0849 59.5833 19.4193 59.2509 19.4193 58.8409V51.1694C19.4193 50.7593 19.0848 50.4269 18.6722 50.4269ZM11.4941 51.9118H17.9251V54.2627H11.4941V51.9118ZM17.9251 58.0984H11.4941V55.7475H17.9251V58.0984Z" fill="url(#paint4_linear)"/>
<path d="M18.2288 43.1304C18.42 43.1304 18.6112 43.0579 18.7572 42.9129L35.4439 26.3292L34.9864 29.5037C34.851 30.4417 36.3286 30.6646 36.4654 29.7142L37.2408 24.3336C37.3109 23.8471 36.8696 23.4159 36.3813 23.4954L30.9813 24.264C30.5728 24.3222 30.2892 24.6983 30.3478 25.1043C30.4063 25.5103 30.7861 25.7926 31.1932 25.734L34.3873 25.2793L17.7006 41.8629C17.4089 42.1529 17.4089 42.623 17.7006 42.9128C17.8464 43.0578 18.0377 43.1304 18.2288 43.1304Z" fill="url(#paint5_linear)"/>
<path d="M53.6927 16.706H55.0657L55.3333 15.7893H49.9517L49.6783 16.706H51.3131C52.2673 16.7369 52.8374 17.1198 53.0236 17.8547H49.9343L49.6667 18.7714H53.0352C52.9538 19.1273 52.7618 19.4096 52.4593 19.6185C52.1567 19.8235 51.7631 19.9279 51.2782 19.9318H49.8296L49.8354 20.657L52.9189 24.2367H54.2396V24.1671L51.3713 20.8485C52.2207 20.8485 52.884 20.6744 53.3611 20.3263C53.8381 19.9782 54.1116 19.4599 54.1814 18.7714H55.0657L55.3333 17.8547H54.1639C54.098 17.4022 53.9409 17.0193 53.6927 16.706Z" fill="url(#paint6_linear)"/>
<defs>
<linearGradient id="paint0_linear" x1="61.1206" y1="62.349" x2="26.4556" y2="22.2576" gradientUnits="userSpaceOnUse">
<stop stop-color="#62214B"/>
<stop offset="0.399987" stop-color="#E6655E"/>
<stop offset="1" stop-color="#FFAB59"/>
</linearGradient>
<linearGradient id="paint1_linear" x1="61.1206" y1="62.349" x2="26.4556" y2="22.2576" gradientUnits="userSpaceOnUse">
<stop stop-color="#62214B"/>
<stop offset="0.399987" stop-color="#E6655E"/>
<stop offset="1" stop-color="#FFAB59"/>
</linearGradient>
<linearGradient id="paint2_linear" x1="61.1206" y1="62.349" x2="26.4556" y2="22.2576" gradientUnits="userSpaceOnUse">
<stop stop-color="#62214B"/>
<stop offset="0.399987" stop-color="#E6655E"/>
<stop offset="1" stop-color="#FFAB59"/>
</linearGradient>
<linearGradient id="paint3_linear" x1="61.1206" y1="62.349" x2="26.4556" y2="22.2576" gradientUnits="userSpaceOnUse">
<stop stop-color="#62214B"/>
<stop offset="0.399987" stop-color="#E6655E"/>
<stop offset="1" stop-color="#FFAB59"/>
</linearGradient>
<linearGradient id="paint4_linear" x1="61.1206" y1="62.349" x2="26.4556" y2="22.2576" gradientUnits="userSpaceOnUse">
<stop stop-color="#62214B"/>
<stop offset="0.399987" stop-color="#E6655E"/>
<stop offset="1" stop-color="#FFAB59"/>
</linearGradient>
<linearGradient id="paint5_linear" x1="61.1206" y1="62.349" x2="26.4556" y2="22.2576" gradientUnits="userSpaceOnUse">
<stop stop-color="#62214B"/>
<stop offset="0.399987" stop-color="#E6655E"/>
<stop offset="1" stop-color="#FFAB59"/>
</linearGradient>
<linearGradient id="paint6_linear" x1="61.1206" y1="62.349" x2="26.4556" y2="22.2576" gradientUnits="userSpaceOnUse">
<stop stop-color="#62214B"/>
<stop offset="0.399987" stop-color="#E6655E"/>
<stop offset="1" stop-color="#FFAB59"/>
</linearGradient>
</defs>
</svg>
