<svg width="72" height="72" viewBox="0 0 72 72" fill="none" xmlns="http://www.w3.org/2000/svg">
<path d="M55.5 52.5C54.8366 52.5022 54.1926 52.7242 53.6688 53.1313C53.145 53.5384 52.7709 54.1077 52.605 54.75H50.25C50.0511 54.75 49.8604 54.671 49.7197 54.5304C49.5791 54.3897 49.5 54.1989 49.5 54V48.75H51.105C51.2876 49.457 51.7217 50.0732 52.326 50.483C52.9304 50.8928 53.6634 51.0681 54.3878 50.9761C55.1121 50.8841 55.7781 50.5311 56.2608 49.9832C56.7435 49.4353 57.0098 48.7302 57.0098 48C57.0098 47.2698 56.7435 46.5647 56.2608 46.0168C55.7781 45.469 55.1121 45.1159 54.3878 45.0239C53.6634 44.9319 52.9304 45.1073 52.326 45.5171C51.7217 45.9269 51.2876 46.543 51.105 47.25H49.5V36H51.75C53.5402 36 55.2571 35.2889 56.523 34.023C57.7889 32.7571 58.5 31.0402 58.5 29.25C58.5 27.4598 57.7889 25.7429 56.523 24.4771C55.2571 23.2112 53.5402 22.5 51.75 22.5H50.205C50.0768 21.3293 49.6437 20.2126 48.949 19.2615C48.2543 18.3105 47.3222 17.5583 46.2459 17.0801C45.1696 16.6019 43.9867 16.4144 42.8152 16.5364C41.6438 16.6583 40.5248 17.0854 39.57 17.775C38.2408 16.0911 36.4572 14.8228 34.4302 14.1202C32.4031 13.4176 30.2173 13.3099 28.131 13.81C26.0447 14.3101 24.1452 15.397 22.6569 16.9422C21.1687 18.4874 20.1539 20.4264 19.7325 22.53C17.9927 22.6626 16.372 23.4643 15.2108 24.7666C14.0496 26.069 13.4383 27.7706 13.5052 29.5142C13.5722 31.2578 14.3123 32.9075 15.57 34.117C16.8277 35.3264 18.5052 36.0013 20.25 36H22.5V45.75H20.895C20.7125 45.043 20.2784 44.4269 19.674 44.0171C19.0697 43.6073 18.3366 43.4319 17.6123 43.5239C16.8879 43.6159 16.222 43.969 15.7393 44.5168C15.2566 45.0647 14.9903 45.7698 14.9903 46.5C14.9903 47.2302 15.2566 47.9353 15.7393 48.4832C16.222 49.0311 16.8879 49.3841 17.6123 49.4761C18.3366 49.5681 19.0697 49.3928 19.674 48.983C20.2784 48.5732 20.7125 47.957 20.895 47.25H22.5V54C22.5 54.1989 22.421 54.3897 22.2804 54.5304C22.1397 54.671 21.9489 54.75 21.75 54.75H19.395C19.2125 54.043 18.7784 53.4269 18.174 53.0171C17.5697 52.6073 16.8366 52.4319 16.1123 52.5239C15.3879 52.6159 14.722 52.969 14.2393 53.5168C13.7566 54.0647 13.4903 54.7698 13.4903 55.5C13.4903 56.2302 13.7566 56.9353 14.2393 57.4832C14.722 58.0311 15.3879 58.3841 16.1123 58.4761C16.8366 58.5681 17.5697 58.3928 18.174 57.983C18.7784 57.5732 19.2125 56.957 19.395 56.25H21.75C22.3462 56.2482 22.9175 56.0106 23.3391 55.589C23.7606 55.1675 23.9983 54.5962 24 54V47.25H30C30.5962 47.2482 31.1675 47.0106 31.5891 46.5891C32.0106 46.1675 32.2483 45.5962 32.25 45V36H35.25V52.605C34.543 52.7876 33.9269 53.2217 33.5171 53.826C33.1073 54.4304 32.9319 55.1634 33.0239 55.8878C33.116 56.6121 33.469 57.2781 34.0169 57.7608C34.5647 58.2435 35.2699 58.5098 36 58.5098C36.7302 58.5098 37.4353 58.2435 37.9832 57.7608C38.5311 57.2781 38.8841 56.6121 38.9761 55.8878C39.0681 55.1634 38.8928 54.4304 38.483 53.826C38.0732 53.2217 37.457 52.7876 36.75 52.605V36H39.75V46.5C39.7518 47.0962 39.9894 47.6675 40.411 48.0891C40.8326 48.5106 41.4038 48.7482 42 48.75H48V54C48.0018 54.5962 48.2394 55.1675 48.661 55.589C49.0826 56.0106 49.6538 56.2482 50.25 56.25H52.605C52.7461 56.7921 53.0364 57.2838 53.4429 57.6693C53.8494 58.0547 54.3559 58.3184 54.9047 58.4305C55.4536 58.5425 56.0229 58.4984 56.5479 58.3032C57.073 58.108 57.5328 57.7694 57.8751 57.326C58.2174 56.8826 58.4285 56.3521 58.4845 55.7947C58.5404 55.2373 58.439 54.6754 58.1916 54.1728C57.9443 53.6702 57.5609 53.247 57.0852 52.9513C56.6094 52.6556 56.0602 52.4993 55.5 52.5ZM54 46.5C54.2967 46.5 54.5867 46.588 54.8334 46.7528C55.0801 46.9176 55.2723 47.1519 55.3859 47.426C55.4994 47.7001 55.5291 48.0017 55.4712 48.2927C55.4133 48.5836 55.2705 48.8509 55.0607 49.0607C54.8509 49.2705 54.5836 49.4133 54.2927 49.4712C54.0017 49.5291 53.7001 49.4994 53.426 49.3858C53.1519 49.2723 52.9177 49.0801 52.7528 48.8334C52.588 48.5867 52.5 48.2967 52.5 48C52.5012 47.6026 52.6596 47.2217 52.9407 46.9407C53.2217 46.6596 53.6026 46.5012 54 46.5ZM18 48C17.7034 48 17.4134 47.9121 17.1667 47.7472C16.92 47.5824 16.7277 47.3481 16.6142 47.0741C16.5007 46.8 16.471 46.4984 16.5289 46.2074C16.5867 45.9164 16.7296 45.6491 16.9394 45.4394C17.1492 45.2296 17.4164 45.0867 17.7074 45.0288C17.9984 44.971 18.3 45.0007 18.5741 45.1142C18.8481 45.2277 19.0824 45.42 19.2472 45.6667C19.4121 45.9133 19.5 46.2034 19.5 46.5C19.4988 46.8975 19.3404 47.2783 19.0594 47.5594C18.7783 47.8404 18.3975 47.9988 18 48ZM16.5 57C16.2034 57 15.9134 56.9121 15.6667 56.7472C15.42 56.5824 15.2277 56.3481 15.1142 56.074C15.0007 55.8 14.971 55.4984 15.0289 55.2074C15.0867 54.9164 15.2296 54.6491 15.4394 54.4394C15.6492 54.2296 15.9164 54.0867 16.2074 54.0288C16.4984 53.971 16.8 54.0007 17.0741 54.1142C17.3481 54.2277 17.5824 54.42 17.7472 54.6667C17.9121 54.9133 18 55.2034 18 55.5C17.9988 55.8975 17.8404 56.2783 17.5594 56.5594C17.2783 56.8404 16.8975 56.9988 16.5 57ZM30.75 45C30.75 45.1989 30.671 45.3897 30.5304 45.5304C30.3897 45.671 30.1989 45.75 30 45.75H24V36H30.75V45ZM37.5 55.5C37.5 55.7967 37.4121 56.0867 37.2472 56.3334C37.0824 56.5801 36.8481 56.7723 36.5741 56.8858C36.3 56.9994 35.9984 57.0291 35.7074 56.9712C35.4164 56.9133 35.1492 56.7705 34.9394 56.5607C34.7296 56.3509 34.5867 56.0836 34.5289 55.7927C34.471 55.5017 34.5007 55.2001 34.6142 54.926C34.7277 54.6519 34.92 54.4176 35.1667 54.2528C35.4134 54.088 35.7034 54 36 54C36.3975 54.0012 36.7783 54.1596 37.0594 54.4407C37.3404 54.7217 37.4988 55.1026 37.5 55.5ZM48 47.25H42C41.8011 47.25 41.6104 47.171 41.4697 47.0304C41.3291 46.8897 41.25 46.6989 41.25 46.5V36H48V47.25ZM20.25 34.5C18.8576 34.5 17.5223 33.9469 16.5377 32.9623C15.5532 31.9778 15 30.6424 15 29.25C15 27.8576 15.5532 26.5223 16.5377 25.5377C17.5223 24.5532 18.8576 24 20.25 24H20.34C21.2615 24.0178 22.1621 24.2773 22.9518 24.7524C23.7415 25.2276 24.3927 25.9018 24.84 26.7075L26.16 25.98C25.6538 25.0765 24.9483 24.3002 24.097 23.7102C23.2458 23.1202 22.2713 22.732 21.2475 22.575C21.7682 20.2971 23.0897 18.282 24.9713 16.8965C26.8529 15.5111 29.1695 14.8474 31.4993 15.0264C33.8291 15.2054 36.0171 16.2152 37.6649 17.8718C39.3128 19.5285 40.3109 21.7218 40.4775 24.0525L41.97 23.9475C41.8455 22.2038 41.3137 20.5135 40.4175 19.0125C41.3834 18.3134 42.5586 17.9639 43.7496 18.0215C44.9405 18.0792 46.0764 18.5405 46.9703 19.3296C47.8642 20.1188 48.4628 21.1887 48.6677 22.3633C48.8726 23.538 48.6715 24.7474 48.0975 25.7925L49.4025 26.52C49.8335 25.7411 50.1062 24.8847 50.205 24H51.75C53.1424 24 54.4778 24.5532 55.4623 25.5377C56.4469 26.5223 57 27.8576 57 29.25C57 30.6424 56.4469 31.9778 55.4623 32.9623C54.4778 33.9469 53.1424 34.5 51.75 34.5H20.25ZM55.5 57C55.2034 57 54.9134 56.9121 54.6667 56.7472C54.42 56.5824 54.2277 56.3481 54.1142 56.074C54.0007 55.8 53.971 55.4984 54.0289 55.2074C54.0867 54.9164 54.2296 54.6491 54.4394 54.4394C54.6492 54.2296 54.9164 54.0867 55.2074 54.0288C55.4984 53.971 55.8 54.0007 56.0741 54.1142C56.3482 54.2277 56.5824 54.42 56.7472 54.6667C56.9121 54.9133 57 55.2034 57 55.5C56.9989 55.8975 56.8404 56.2783 56.5594 56.5594C56.2783 56.8404 55.8975 56.9988 55.5 57Z" fill="url(#paint0_linear)"/>
<path d="M18 29.25C18 28.6533 18.2371 28.081 18.659 27.659C19.081 27.2371 19.6533 27 20.25 27V25.5C19.2555 25.5 18.3016 25.8951 17.5984 26.5984C16.8951 27.3016 16.5 28.2555 16.5 29.25C16.5 30.2446 16.8951 31.1984 17.5984 31.9017C18.3016 32.6049 19.2555 33 20.25 33H24.75V31.5H20.25C19.6533 31.5 19.081 31.263 18.659 30.841C18.2371 30.4191 18 29.8468 18 29.25Z" fill="url(#paint1_linear)"/>
<path d="M31.4925 26.1675C31.4741 25.9838 31.3877 25.8136 31.2504 25.6902C31.1131 25.5667 30.9347 25.4989 30.75 25.5H27.75C27.5654 25.4989 27.387 25.5667 27.2497 25.6902C27.1123 25.8136 27.026 25.9838 27.0075 26.1675L26.2575 32.9175L27.7425 33.0825L28.005 30.75H30.495L30.7575 33.0825L32.2425 32.9175L31.4925 26.1675ZM28.17 29.25L28.425 27H30.075L30.33 29.25H28.17Z" fill="url(#paint2_linear)"/>
<path d="M39 25.5H34.5C34.3011 25.5 34.1104 25.579 33.9697 25.7197C33.829 25.8604 33.75 26.0511 33.75 26.25V33H35.25V30H39C39.1989 30 39.3897 29.921 39.5304 29.7804C39.671 29.6397 39.75 29.4489 39.75 29.25V26.25C39.75 26.0511 39.671 25.8604 39.5304 25.7197C39.3897 25.579 39.1989 25.5 39 25.5ZM38.25 28.5H35.25V27H38.25V28.5Z" fill="url(#paint3_linear)"/>
<path d="M44.25 27V31.5H45.75V33H41.25V31.5H42.75V27H41.25V25.5H45.75V27H44.25Z" fill="url(#paint4_linear)"/>
<defs>
<linearGradient id="paint0_linear" x1="58.6065" y1="61.0942" x2="25.9978" y2="25.4758" gradientUnits="userSpaceOnUse">
<stop stop-color="#62214B"/>
<stop offset="0.399987" stop-color="#E6655E"/>
<stop offset="1" stop-color="#FFAB59"/>
</linearGradient>
<linearGradient id="paint1_linear" x1="58.6065" y1="61.0942" x2="25.9978" y2="25.4758" gradientUnits="userSpaceOnUse">
<stop stop-color="#62214B"/>
<stop offset="0.399987" stop-color="#E6655E"/>
<stop offset="1" stop-color="#FFAB59"/>
</linearGradient>
<linearGradient id="paint2_linear" x1="58.6065" y1="61.0942" x2="25.9978" y2="25.4758" gradientUnits="userSpaceOnUse">
<stop stop-color="#62214B"/>
<stop offset="0.399987" stop-color="#E6655E"/>
<stop offset="1" stop-color="#FFAB59"/>
</linearGradient>
<linearGradient id="paint3_linear" x1="58.6065" y1="61.0942" x2="25.9978" y2="25.4758" gradientUnits="userSpaceOnUse">
<stop stop-color="#62214B"/>
<stop offset="0.399987" stop-color="#E6655E"/>
<stop offset="1" stop-color="#FFAB59"/>
</linearGradient>
<linearGradient id="paint4_linear" x1="58.6065" y1="61.0942" x2="25.9978" y2="25.4758" gradientUnits="userSpaceOnUse">
<stop stop-color="#62214B"/>
<stop offset="0.399987" stop-color="#E6655E"/>
<stop offset="1" stop-color="#FFAB59"/>
</linearGradient>
</defs>
</svg>
