<svg width="72" height="72" viewBox="0 0 72 72" fill="none" xmlns="http://www.w3.org/2000/svg">
<path d="M60.4842 43.7048L58.1422 42.7298L57.2733 40.6574L58.234 38.3241C58.3618 38.0137 58.2891 37.6578 58.0495 37.4208L55.3029 34.7059C55.0632 34.4689 54.7032 34.397 54.3893 34.5234L52.0295 35.4734L49.9327 34.6142L48.9484 32.2985C48.8168 31.9893 48.5105 31.7884 48.1713 31.7885H44.287C43.9476 31.7885 43.6413 31.9898 43.5099 32.2993L42.5239 34.6142L40.4279 35.4734L38.0682 34.5234C37.7542 34.397 37.3943 34.4689 37.1546 34.7059L34.408 37.4216C34.1683 37.6586 34.0957 38.0145 34.2234 38.3249L35.1842 40.6582L34.3153 42.7306L31.9741 43.7056C31.6611 43.8355 31.4575 44.1383 31.4575 44.4739V48.3138C31.4574 48.6492 31.6606 48.952 31.9732 49.0821L34.3153 50.057L35.1842 52.1303L34.2234 54.4636C34.0957 54.774 34.1683 55.1299 34.408 55.3669L37.1554 58.0818C37.3951 58.3187 37.7551 58.3906 38.069 58.2643L40.4288 57.3151L42.5247 58.1734L43.5108 60.49C43.6424 60.7992 43.9486 61.0001 44.2878 61H48.1713C48.5103 61.0002 48.8165 60.7997 48.9484 60.4909L49.9344 58.1743L52.0312 57.3151L54.391 58.2651C54.7046 58.3905 55.0636 58.3183 55.3029 58.0818L58.0503 55.3652C58.29 55.1282 58.3627 54.7723 58.2349 54.4619L57.275 52.1286L58.143 50.0554L60.4859 49.0804C60.7976 48.9499 61.0001 48.6476 61 48.3129V44.4731C61.0001 44.1376 60.7969 43.8349 60.4842 43.7048ZM59.3145 47.7596L57.1688 48.6538C56.9643 48.7389 56.8019 48.9002 56.717 49.1029L55.5835 51.8095C55.4996 52.0119 55.4996 52.2387 55.5835 52.4411L56.4608 54.5819L54.5107 56.511L52.3489 55.641C52.1438 55.5585 51.9144 55.5585 51.7093 55.641L48.9728 56.7627C48.768 56.8464 48.6048 57.0066 48.5185 57.2085L47.6109 59.3317H44.8466L43.944 57.2101C43.8579 57.008 43.6947 56.8474 43.4897 56.7635L40.7524 55.6427C40.5475 55.5596 40.3176 55.5596 40.1127 55.6427L37.951 56.5118L35.9966 54.5819L36.8765 52.4445C36.9612 52.242 36.9612 52.0145 36.8765 51.812L35.7421 49.1062C35.6574 48.9037 35.4954 48.7424 35.2912 48.6571L33.1455 47.763V45.0297L35.2904 44.1372C35.4949 44.0521 35.6572 43.8908 35.7421 43.6881L36.8765 40.9823C36.9608 40.7794 36.9608 40.5519 36.8765 40.349L35.9966 38.2116L37.951 36.2792L40.1127 37.1491C40.3176 37.2337 40.5483 37.2337 40.7532 37.1491L43.4897 36.0275C43.6947 35.9435 43.8579 35.783 43.944 35.5808L44.8466 33.4601H47.6109L48.5152 35.5817C48.6015 35.7836 48.7646 35.9438 48.9694 36.0275L51.7059 37.1491C51.9106 37.2333 52.1409 37.2333 52.3456 37.1491L54.5107 36.2758L56.465 38.2083L55.5852 40.3457C55.5009 40.5486 55.5009 40.7761 55.5852 40.979L56.7196 43.6847C56.8045 43.8875 56.9668 44.0488 57.1713 44.1339L59.3145 45.0264V47.7596Z" fill="url(#paint0_linear)"/>
<path d="M46.2296 38.0608C41.575 38.0608 37.8018 41.7916 37.8018 46.3938C37.8018 50.9961 41.575 54.7269 46.2296 54.7269C50.8841 54.7269 54.6573 50.9961 54.6573 46.3938C54.6522 41.7937 50.882 38.0658 46.2296 38.0608ZM46.2296 53.0603C42.506 53.0603 39.4874 50.0756 39.4874 46.3938C39.4874 42.7121 42.506 39.7274 46.2296 39.7274C49.9532 39.7274 52.9718 42.7121 52.9718 46.3938C52.9675 50.0739 49.9515 53.0561 46.2296 53.0603Z" fill="url(#paint1_linear)"/>
<path d="M47.0723 45.5605H45.3868V47.2271H47.0723V45.5605Z" fill="url(#paint2_linear)"/>
<path d="M43.7013 45.5605H42.0157V47.2271H43.7013V45.5605Z" fill="url(#paint3_linear)"/>
<path d="M50.4401 45.5605H48.7545V47.2271H50.4401V45.5605Z" fill="url(#paint4_linear)"/>
<path d="M46.2161 20.3255L43.9895 19.1914L43.6001 18.2631L44.3637 15.9007C44.4596 15.6038 44.38 15.2787 44.1572 15.0582L42.5686 13.4874C42.3456 13.2671 42.0168 13.1884 41.7165 13.2833L39.3273 14.0382L38.3884 13.6532L37.2414 11.4517C37.0969 11.1743 36.8077 11 36.4922 11H34.2445C33.929 11 33.6398 11.1743 33.4953 11.4517L32.3457 13.6532L31.4077 14.0382L29.0218 13.2833C28.7213 13.1881 28.3922 13.2668 28.169 13.4874L26.5795 15.0582C26.3567 15.2787 26.277 15.6038 26.373 15.9007L27.1357 18.2631L26.7464 19.1914L24.5206 20.3255C24.2401 20.4684 24.0638 20.7544 24.0638 21.0663V23.2888C24.0638 23.6007 24.2401 23.8867 24.5206 24.0296L26.7464 25.1662L27.1357 26.0937L26.373 28.4553C26.2767 28.7524 26.3564 29.0778 26.5795 29.2986L28.1681 30.8702C28.3911 31.0905 28.7199 31.1692 29.0202 31.0743L31.4094 30.3202L32.3457 30.7027L33.4928 32.9034C33.6373 33.1808 33.9265 33.3551 34.242 33.3551H36.4922C36.8077 33.3551 37.0969 33.1808 37.2414 32.9034L38.3884 30.7027L39.3273 30.3177L41.7165 31.0718C42.0168 31.1667 42.3456 31.088 42.5686 30.8677L44.1572 29.2969C44.38 29.0764 44.4596 28.7513 44.3637 28.4544L43.6001 26.092L43.9895 25.1662L46.2161 24.0321C46.4975 23.8887 46.6738 23.6017 46.6729 23.2888V21.0663C46.6729 20.7544 46.4966 20.4684 46.2161 20.3255ZM44.9873 22.7813L42.9428 23.8229C42.7656 23.9131 42.6264 24.0625 42.55 24.2446L41.9255 25.7362C41.8493 25.9179 41.8408 26.1205 41.9019 26.3078L42.6023 28.4744L41.7393 29.3327L39.5481 28.6402C39.3583 28.5801 39.1532 28.5884 38.9691 28.6636L37.4605 29.2819C37.2769 29.3573 37.1262 29.4946 37.0349 29.6694L35.9815 31.691H34.7578L33.7043 29.666C33.6133 29.4908 33.4621 29.3535 33.2778 29.2786L31.7693 28.6602C31.5855 28.5848 31.3806 28.5765 31.1911 28.6369L28.9999 29.3294L28.1319 28.4769L28.8322 26.3103C28.893 26.1227 28.8847 25.9199 28.8086 25.7378L28.1833 24.2462C28.1075 24.064 27.9686 23.9146 27.7914 23.8246L25.7468 22.7829V21.5738L27.7914 20.5322C27.9682 20.442 28.107 20.2929 28.1833 20.1114L28.8086 18.6197C28.8847 18.4377 28.893 18.2349 28.8322 18.0473L28.1319 15.8782L28.9974 15.0249L31.1886 15.7173C31.3782 15.7782 31.5836 15.7698 31.7676 15.694L33.2762 15.0765C33.4603 15.001 33.6114 14.8634 33.7026 14.6882L34.7578 12.6666H35.9789L37.0324 14.6882C37.1234 14.8633 37.2742 15.0009 37.458 15.0765L38.9666 15.694C39.1506 15.7698 39.3559 15.7782 39.5455 15.7173L41.7368 15.0249L42.6023 15.8782L41.9019 18.0448C41.8412 18.2324 41.8495 18.4352 41.9255 18.6172L42.55 20.1089C42.6265 20.2906 42.7657 20.4397 42.9428 20.5297L44.9873 21.5738V22.7813Z" fill="url(#paint5_linear)"/>
<path d="M31.0462 39.2374L28.8491 38.1174L28.587 37.4941L29.3404 35.1609C29.4365 34.8636 29.3564 34.5381 29.1331 34.3176L27.8689 33.0676C27.6457 32.847 27.3166 32.7682 27.016 32.8634L24.6563 33.6084L24.025 33.3501L22.8924 31.1768C22.7478 30.8994 22.4587 30.7252 22.1431 30.7252H20.3565C20.0412 30.7255 19.7525 30.8998 19.6081 31.1768L18.4745 33.3501L17.8442 33.6084L15.4903 32.8643C15.1895 32.7688 14.8599 32.8475 14.6366 33.0684L13.3724 34.3184C13.1465 34.5392 13.0654 34.8668 13.1626 35.1659L13.916 37.4991L13.6547 38.1224L11.4568 39.2374C11.1766 39.3802 11.0003 39.6656 11 39.9774V41.749C11 42.0609 11.1762 42.3469 11.4568 42.4898L13.6547 43.6073L13.916 44.2314L13.1626 46.5647C13.0663 46.8618 13.1459 47.1872 13.369 47.408L14.6332 48.6579C14.8576 48.8795 15.1888 48.9577 15.4903 48.8604L17.8501 48.1154L18.4804 48.3746L19.6131 50.547C19.7576 50.8241 20.0462 50.9984 20.3615 50.9987H22.1482C22.4637 50.9987 22.7529 50.8244 22.8974 50.547L24.0301 48.3746L24.6613 48.1154L27.0211 48.8604C27.3217 48.9556 27.6508 48.8769 27.874 48.6562L29.1381 47.4063C29.3615 47.1858 29.4415 46.8603 29.3455 46.563L28.592 44.2297L28.8541 43.6056L31.0512 42.4856C31.3284 42.3421 31.5024 42.0584 31.503 41.749V39.9774C31.5027 39.6656 31.3264 39.3802 31.0462 39.2374ZM29.8174 41.239L27.8015 42.2665C27.6241 42.3561 27.4851 42.5057 27.4096 42.6881L26.9124 43.8747C26.8358 44.0569 26.8272 44.2601 26.8879 44.4481L27.579 46.5855L27.0396 47.1188L24.8779 46.4355C24.688 46.3745 24.4821 46.3831 24.2981 46.4597L23.098 46.9513C22.9135 47.0259 22.7623 47.1634 22.6716 47.3388L21.6324 49.3321H20.8739L19.8348 47.3388C19.7441 47.1634 19.5928 47.0259 19.4083 46.9513L18.2074 46.4597C18.0236 46.3831 17.818 46.3745 17.6284 46.4355L15.4667 47.1188L14.9273 46.5855L15.6184 44.4481C15.6796 44.2599 15.6713 44.0565 15.5948 43.8739L15.0967 42.6873C15.0202 42.5055 14.8811 42.3565 14.704 42.2665L12.6855 41.239V40.489L14.7006 39.4616C14.8777 39.3716 15.0169 39.2225 15.0933 39.0407L15.5914 37.8533C15.6682 37.6711 15.6765 37.4678 15.615 37.28L14.9239 35.1425L15.4633 34.6092L17.625 35.2925C17.815 35.3533 18.0206 35.345 18.2049 35.2692L19.4058 34.7767C19.5881 34.7003 19.7372 34.5628 19.8272 34.3884L20.8663 32.396H21.6248L22.664 34.3884C22.7539 34.5628 22.9031 34.7003 23.0854 34.7767L24.2855 35.2692C24.4701 35.3448 24.6759 35.353 24.8661 35.2925L27.0278 34.6092L27.5672 35.1425L26.8761 37.28C26.8156 37.4677 26.8242 37.6705 26.9006 37.8524L27.3978 39.0399C27.4733 39.2223 27.6123 39.3719 27.7897 39.4616L29.8174 40.4857V41.239Z" fill="url(#paint6_linear)"/>
<path d="M35.3688 16.344C32.1106 16.344 29.4694 18.9556 29.4694 22.1771C29.4694 25.3987 32.1106 28.0103 35.3688 28.0103C38.6269 28.0103 41.2682 25.3987 41.2682 22.1771C41.264 18.9573 38.6251 16.3482 35.3688 16.344ZM35.3688 26.3437C33.0416 26.3437 31.1549 24.4782 31.1549 22.1771C31.1549 19.8761 33.0416 18.0106 35.3688 18.0106C37.696 18.0106 39.5826 19.8761 39.5826 22.1771C39.5799 24.4771 37.6948 26.3409 35.3688 26.3437Z" fill="url(#paint7_linear)"/>
<path d="M34.526 21.3438H32.8405V23.0104H34.526V21.3438Z" fill="url(#paint8_linear)"/>
<path d="M37.8971 21.3438H36.2115V23.0104H37.8971V21.3438Z" fill="url(#paint9_linear)"/>
<path d="M21.2515 36.6958C18.9243 36.6958 17.0376 38.5613 17.0376 40.8623C17.0376 43.1634 18.9243 45.0289 21.2515 45.0289C23.5787 45.0289 25.4653 43.1634 25.4653 40.8623C25.4626 38.5624 23.5775 36.6985 21.2515 36.6958ZM21.2515 43.3623C19.8551 43.3623 18.7232 42.243 18.7232 40.8623C18.7232 39.4817 19.8551 38.3624 21.2515 38.3624C22.6479 38.3624 23.7798 39.4817 23.7798 40.8623C23.7798 42.243 22.6479 43.3623 21.2515 43.3623Z" fill="url(#paint10_linear)"/>
<path d="M22.0943 40.029H20.4087V41.6956H22.0943V40.029Z" fill="url(#paint11_linear)"/>
<path d="M49.7633 20.4713L48.6391 21.713C51.9124 24.611 54.0957 28.5206 54.8326 32.8034L56.4945 32.5284C55.6945 27.8724 53.3216 23.622 49.7633 20.4713Z" fill="url(#paint12_linear)"/>
<path d="M21.7799 20.3747C18.822 22.9508 16.655 26.2962 15.5257 30.0302L17.1404 30.5069C18.1797 27.0716 20.1738 23.9939 22.8957 21.6246L21.7799 20.3747Z" fill="url(#paint13_linear)"/>
<path d="M24.9993 51.9711L24.0663 53.3594C26.2714 54.8126 28.7359 55.8375 31.3285 56.3793L31.6774 54.7485C29.2933 54.2499 27.027 53.3073 24.9993 51.9711Z" fill="url(#paint14_linear)"/>
<defs>
<linearGradient id="paint0_linear" x1="61.1183" y1="63.871" x2="24.8938" y2="24.3035" gradientUnits="userSpaceOnUse">
<stop stop-color="#62214B"/>
<stop offset="0.399987" stop-color="#E6655E"/>
<stop offset="1" stop-color="#FFAB59"/>
</linearGradient>
<linearGradient id="paint1_linear" x1="61.1183" y1="63.871" x2="24.8938" y2="24.3035" gradientUnits="userSpaceOnUse">
<stop stop-color="#62214B"/>
<stop offset="0.399987" stop-color="#E6655E"/>
<stop offset="1" stop-color="#FFAB59"/>
</linearGradient>
<linearGradient id="paint2_linear" x1="61.1183" y1="63.871" x2="24.8938" y2="24.3035" gradientUnits="userSpaceOnUse">
<stop stop-color="#62214B"/>
<stop offset="0.399987" stop-color="#E6655E"/>
<stop offset="1" stop-color="#FFAB59"/>
</linearGradient>
<linearGradient id="paint3_linear" x1="61.1183" y1="63.871" x2="24.8938" y2="24.3035" gradientUnits="userSpaceOnUse">
<stop stop-color="#62214B"/>
<stop offset="0.399987" stop-color="#E6655E"/>
<stop offset="1" stop-color="#FFAB59"/>
</linearGradient>
<linearGradient id="paint4_linear" x1="61.1183" y1="63.871" x2="24.8938" y2="24.3035" gradientUnits="userSpaceOnUse">
<stop stop-color="#62214B"/>
<stop offset="0.399987" stop-color="#E6655E"/>
<stop offset="1" stop-color="#FFAB59"/>
</linearGradient>
<linearGradient id="paint5_linear" x1="61.1183" y1="63.871" x2="24.8938" y2="24.3035" gradientUnits="userSpaceOnUse">
<stop stop-color="#62214B"/>
<stop offset="0.399987" stop-color="#E6655E"/>
<stop offset="1" stop-color="#FFAB59"/>
</linearGradient>
<linearGradient id="paint6_linear" x1="61.1183" y1="63.871" x2="24.8938" y2="24.3035" gradientUnits="userSpaceOnUse">
<stop stop-color="#62214B"/>
<stop offset="0.399987" stop-color="#E6655E"/>
<stop offset="1" stop-color="#FFAB59"/>
</linearGradient>
<linearGradient id="paint7_linear" x1="61.1183" y1="63.871" x2="24.8938" y2="24.3035" gradientUnits="userSpaceOnUse">
<stop stop-color="#62214B"/>
<stop offset="0.399987" stop-color="#E6655E"/>
<stop offset="1" stop-color="#FFAB59"/>
</linearGradient>
<linearGradient id="paint8_linear" x1="61.1183" y1="63.871" x2="24.8938" y2="24.3035" gradientUnits="userSpaceOnUse">
<stop stop-color="#62214B"/>
<stop offset="0.399987" stop-color="#E6655E"/>
<stop offset="1" stop-color="#FFAB59"/>
</linearGradient>
<linearGradient id="paint9_linear" x1="61.1183" y1="63.871" x2="24.8938" y2="24.3035" gradientUnits="userSpaceOnUse">
<stop stop-color="#62214B"/>
<stop offset="0.399987" stop-color="#E6655E"/>
<stop offset="1" stop-color="#FFAB59"/>
</linearGradient>
<linearGradient id="paint10_linear" x1="61.1183" y1="63.871" x2="24.8938" y2="24.3035" gradientUnits="userSpaceOnUse">
<stop stop-color="#62214B"/>
<stop offset="0.399987" stop-color="#E6655E"/>
<stop offset="1" stop-color="#FFAB59"/>
</linearGradient>
<linearGradient id="paint11_linear" x1="61.1183" y1="63.871" x2="24.8938" y2="24.3035" gradientUnits="userSpaceOnUse">
<stop stop-color="#62214B"/>
<stop offset="0.399987" stop-color="#E6655E"/>
<stop offset="1" stop-color="#FFAB59"/>
</linearGradient>
<linearGradient id="paint12_linear" x1="61.1183" y1="63.871" x2="24.8938" y2="24.3035" gradientUnits="userSpaceOnUse">
<stop stop-color="#62214B"/>
<stop offset="0.399987" stop-color="#E6655E"/>
<stop offset="1" stop-color="#FFAB59"/>
</linearGradient>
<linearGradient id="paint13_linear" x1="61.1183" y1="63.871" x2="24.8938" y2="24.3035" gradientUnits="userSpaceOnUse">
<stop stop-color="#62214B"/>
<stop offset="0.399987" stop-color="#E6655E"/>
<stop offset="1" stop-color="#FFAB59"/>
</linearGradient>
<linearGradient id="paint14_linear" x1="61.1183" y1="63.871" x2="24.8938" y2="24.3035" gradientUnits="userSpaceOnUse">
<stop stop-color="#62214B"/>
<stop offset="0.399987" stop-color="#E6655E"/>
<stop offset="1" stop-color="#FFAB59"/>
</linearGradient>
</defs>
</svg>
