<svg width="72" height="72" viewBox="0 0 72 72" fill="none" xmlns="http://www.w3.org/2000/svg">
<path d="M55.75 38.1953V22.875C58.3961 22.4937 60.4375 20.218 60.4375 17.4688C60.4375 14.4539 57.9844 12 54.9688 12C51.9531 12 49.5 14.4539 49.5 17.4688H12V48.7188H35.4773C35.8836 55.2469 41.3094 60.4375 47.9375 60.4375C54.8297 60.4375 60.4375 54.8297 60.4375 47.9375C60.4375 44.0008 58.6039 40.4883 55.75 38.1953ZM54.9688 13.5625C57.1227 13.5625 58.875 15.3148 58.875 17.4688C58.875 19.6227 57.1227 21.375 54.9688 21.375C52.8148 21.375 51.0625 19.6227 51.0625 17.4688C51.0625 15.3148 52.8148 13.5625 54.9688 13.5625ZM13.5625 19.0312H49.7305C49.9172 19.6547 50.2141 20.2289 50.5953 20.7383L45.8172 25.5164C45.5109 25.3695 45.1734 25.2812 44.8125 25.2812C44.4516 25.2812 44.1141 25.3695 43.8086 25.5164L42.2344 23.9422C42.3805 23.6359 42.4688 23.2984 42.4688 22.9375C42.4688 21.6453 41.4172 20.5938 40.125 20.5938C38.8328 20.5938 37.7812 21.6453 37.7812 22.9375C37.7812 23.2984 37.8695 23.6359 38.0164 23.9414L34.0984 27.8594C33.7922 27.7133 33.4547 27.625 33.0938 27.625C31.8016 27.625 30.75 28.6766 30.75 29.9688C30.75 31.2609 31.8016 32.3125 33.0938 32.3125C34.3859 32.3125 35.4375 31.2609 35.4375 29.9688C35.4375 29.6078 35.3492 29.2703 35.2023 28.9648L39.1203 25.0469C39.4266 25.193 39.7641 25.2812 40.125 25.2812C40.4859 25.2812 40.8234 25.193 41.1289 25.0461L42.7031 26.6203C42.557 26.9266 42.4688 27.2641 42.4688 27.625C42.4688 28.9172 43.5203 29.9688 44.8125 29.9688C46.1047 29.9688 47.1562 28.9172 47.1562 27.625C47.1562 27.2641 47.068 26.9266 46.9211 26.6211L51.7 21.843C52.4148 22.3789 53.2633 22.7422 54.1875 22.8758V37.1297C52.3461 36.0602 50.2156 35.4375 47.9375 35.4375C44.2031 35.4375 40.8547 37.0922 38.5625 39.6977V36.2188H33.875V45.5938H35.6656C35.5688 46.1039 35.5102 46.6266 35.4773 47.1562H13.5625V19.0312ZM44.8125 26.8438C45.243 26.8438 45.5938 27.1938 45.5938 27.625C45.5938 28.0562 45.243 28.4062 44.8125 28.4062C44.382 28.4062 44.0312 28.0562 44.0312 27.625C44.0312 27.1938 44.382 26.8438 44.8125 26.8438ZM39.3438 22.9375C39.3438 22.5063 39.6945 22.1562 40.125 22.1562C40.5555 22.1562 40.9062 22.5063 40.9062 22.9375C40.9062 23.3687 40.5555 23.7188 40.125 23.7188C39.6945 23.7188 39.3438 23.3687 39.3438 22.9375ZM33.875 29.9688C33.875 30.4 33.5242 30.75 33.0938 30.75C32.6633 30.75 32.3125 30.4 32.3125 29.9688C32.3125 29.5375 32.6633 29.1875 33.0938 29.1875C33.5242 29.1875 33.875 29.5375 33.875 29.9688ZM47.9375 54.1875C44.4914 54.1875 41.6875 51.3836 41.6875 47.9375C41.6875 44.4914 44.4914 41.6875 47.9375 41.6875C51.3836 41.6875 54.1875 44.4914 54.1875 47.9375C54.1875 51.3836 51.3836 54.1875 47.9375 54.1875ZM37 41.8992C36.6258 42.5742 36.3164 43.2875 36.0711 44.0312H35.4375V37.7812H37V41.8992ZM47.1562 37.0398V40.1648C43.2141 40.5586 40.125 43.8937 40.125 47.9375C40.125 49.0805 40.3781 50.1641 40.8211 51.1437L38.1109 52.7086C37.4063 51.2648 37 49.6492 37 47.9375C37 42.1703 41.4898 37.443 47.1562 37.0398ZM47.9375 58.875C44.1766 58.875 40.8531 56.9664 38.8844 54.0664L41.6055 52.4953C43.0258 54.4625 45.3312 55.75 47.9375 55.75C50.5438 55.75 52.8492 54.4625 54.2695 52.4953L56.9906 54.0664C55.0219 56.9664 51.6984 58.875 47.9375 58.875ZM57.7641 52.7086L55.0539 51.1437C55.4969 50.1641 55.75 49.0805 55.75 47.9375C55.75 43.8937 52.6609 40.5578 48.7188 40.1648V37.0398C54.3852 37.443 58.875 42.1703 58.875 47.9375C58.875 49.6492 58.4688 51.2648 57.7641 52.7086Z" fill="url(#paint0_linear)"/>
<path d="M47.9375 43.25C45.3523 43.25 43.25 45.3523 43.25 47.9375C43.25 50.5227 45.3523 52.625 47.9375 52.625C50.5227 52.625 52.625 50.5227 52.625 47.9375C52.625 45.3523 50.5227 43.25 47.9375 43.25ZM47.9375 51.0625C46.2141 51.0625 44.8125 49.6609 44.8125 47.9375C44.8125 46.2141 46.2141 44.8125 47.9375 44.8125C49.6609 44.8125 51.0625 46.2141 51.0625 47.9375C51.0625 49.6609 49.6609 51.0625 47.9375 51.0625Z" fill="url(#paint1_linear)"/>
<path d="M15.125 20.5938H16.6875V22.1562H15.125V20.5938Z" fill="url(#paint2_linear)"/>
<path d="M18.25 20.5938H29.1875V22.1562H18.25V20.5938Z" fill="url(#paint3_linear)"/>
<path d="M15.125 23.7188H16.6875V25.2812H15.125V23.7188Z" fill="url(#paint4_linear)"/>
<path d="M18.25 23.7188H29.1875V25.2812H18.25V23.7188Z" fill="url(#paint5_linear)"/>
<path d="M15.125 26.8438H16.6875V28.4062H15.125V26.8438Z" fill="url(#paint6_linear)"/>
<path d="M18.25 26.8438H29.1875V28.4062H18.25V26.8438Z" fill="url(#paint7_linear)"/>
<path d="M15.125 29.9688H16.6875V31.5312H15.125V29.9688Z" fill="url(#paint8_linear)"/>
<path d="M18.25 29.9688H29.1875V31.5312H18.25V29.9688Z" fill="url(#paint9_linear)"/>
<path d="M15.125 45.5938H19.8125V37.7812H15.125V45.5938ZM16.6875 39.3438H18.25V44.0312H16.6875V39.3438Z" fill="url(#paint10_linear)"/>
<path d="M21.375 45.5938H26.0625V39.3438H21.375V45.5938ZM22.9375 40.9062H24.5V44.0312H22.9375V40.9062Z" fill="url(#paint11_linear)"/>
<path d="M27.625 45.5938H32.3125V33.0938H27.625V45.5938ZM29.1875 34.6562H30.75V44.0312H29.1875V34.6562Z" fill="url(#paint12_linear)"/>
<defs>
<linearGradient id="paint0_linear" x1="60.5521" y1="63.2187" x2="25.4596" y2="24.8878" gradientUnits="userSpaceOnUse">
<stop stop-color="#62214B"/>
<stop offset="0.399987" stop-color="#E6655E"/>
<stop offset="1" stop-color="#FFAB59"/>
</linearGradient>
<linearGradient id="paint1_linear" x1="60.5521" y1="63.2187" x2="25.4596" y2="24.8878" gradientUnits="userSpaceOnUse">
<stop stop-color="#62214B"/>
<stop offset="0.399987" stop-color="#E6655E"/>
<stop offset="1" stop-color="#FFAB59"/>
</linearGradient>
<linearGradient id="paint2_linear" x1="60.5521" y1="63.2187" x2="25.4596" y2="24.8878" gradientUnits="userSpaceOnUse">
<stop stop-color="#62214B"/>
<stop offset="0.399987" stop-color="#E6655E"/>
<stop offset="1" stop-color="#FFAB59"/>
</linearGradient>
<linearGradient id="paint3_linear" x1="60.5521" y1="63.2187" x2="25.4596" y2="24.8878" gradientUnits="userSpaceOnUse">
<stop stop-color="#62214B"/>
<stop offset="0.399987" stop-color="#E6655E"/>
<stop offset="1" stop-color="#FFAB59"/>
</linearGradient>
<linearGradient id="paint4_linear" x1="60.5521" y1="63.2187" x2="25.4596" y2="24.8878" gradientUnits="userSpaceOnUse">
<stop stop-color="#62214B"/>
<stop offset="0.399987" stop-color="#E6655E"/>
<stop offset="1" stop-color="#FFAB59"/>
</linearGradient>
<linearGradient id="paint5_linear" x1="60.5521" y1="63.2187" x2="25.4596" y2="24.8878" gradientUnits="userSpaceOnUse">
<stop stop-color="#62214B"/>
<stop offset="0.399987" stop-color="#E6655E"/>
<stop offset="1" stop-color="#FFAB59"/>
</linearGradient>
<linearGradient id="paint6_linear" x1="60.5521" y1="63.2187" x2="25.4596" y2="24.8878" gradientUnits="userSpaceOnUse">
<stop stop-color="#62214B"/>
<stop offset="0.399987" stop-color="#E6655E"/>
<stop offset="1" stop-color="#FFAB59"/>
</linearGradient>
<linearGradient id="paint7_linear" x1="60.5521" y1="63.2187" x2="25.4596" y2="24.8878" gradientUnits="userSpaceOnUse">
<stop stop-color="#62214B"/>
<stop offset="0.399987" stop-color="#E6655E"/>
<stop offset="1" stop-color="#FFAB59"/>
</linearGradient>
<linearGradient id="paint8_linear" x1="60.5521" y1="63.2187" x2="25.4596" y2="24.8878" gradientUnits="userSpaceOnUse">
<stop stop-color="#62214B"/>
<stop offset="0.399987" stop-color="#E6655E"/>
<stop offset="1" stop-color="#FFAB59"/>
</linearGradient>
<linearGradient id="paint9_linear" x1="60.5521" y1="63.2187" x2="25.4596" y2="24.8878" gradientUnits="userSpaceOnUse">
<stop stop-color="#62214B"/>
<stop offset="0.399987" stop-color="#E6655E"/>
<stop offset="1" stop-color="#FFAB59"/>
</linearGradient>
<linearGradient id="paint10_linear" x1="60.5521" y1="63.2187" x2="25.4596" y2="24.8878" gradientUnits="userSpaceOnUse">
<stop stop-color="#62214B"/>
<stop offset="0.399987" stop-color="#E6655E"/>
<stop offset="1" stop-color="#FFAB59"/>
</linearGradient>
<linearGradient id="paint11_linear" x1="60.5521" y1="63.2187" x2="25.4596" y2="24.8878" gradientUnits="userSpaceOnUse">
<stop stop-color="#62214B"/>
<stop offset="0.399987" stop-color="#E6655E"/>
<stop offset="1" stop-color="#FFAB59"/>
</linearGradient>
<linearGradient id="paint12_linear" x1="60.5521" y1="63.2187" x2="25.4596" y2="24.8878" gradientUnits="userSpaceOnUse">
<stop stop-color="#62214B"/>
<stop offset="0.399987" stop-color="#E6655E"/>
<stop offset="1" stop-color="#FFAB59"/>
</linearGradient>
</defs>
</svg>
